<svg xmlns="http://www.w3.org/2000/svg" width="800" height="800" viewBox="0 0 800 800">
<g>
<path d="M 447.65 343.48 C447.33,344.31 446.71,344.96 446.28,344.92 C443.98,344.69 439.34,342.47 438.27,341.09 C437.26,339.79 436.88,339.74 436.15,340.84 C435.42,341.96 434.74,341.91 432.19,340.60 C430.50,339.73 428.46,338.06 427.64,336.90 C426.83,335.73 425.67,335.08 425.08,335.45 C424.15,336.03 423.60,334.91 423.83,332.90 C423.95,331.84 416.92,325.48 416.20,326.00 C415.27,326.69 411.99,319.80 412.51,318.25 C412.89,317.14 411.81,316.58 409.82,316.86 C408.96,316.98 406.33,308.77 405.49,303.31 C404.52,297.05 406.75,284.34 410.07,277.13 C415.60,265.13 428.81,254.74 442.16,251.87 C452.55,249.64 474.96,253.05 473.58,256.65 C473.24,257.54 474.05,258.47 475.77,259.17 C483.36,262.26 485.02,263.26 487.83,266.46 C493.35,272.74 496.94,280.36 498.48,289.00 C499.75,296.17 499.99,300.00 499.17,300.00 C497.56,300.00 496.73,305.21 498.19,306.16 C499.21,306.83 499.04,307.40 497.41,308.76 C496.26,309.72 494.74,311.96 494.04,313.75 C493.33,315.54 492.36,317.00 491.88,317.00 C491.40,317.00 491.06,317.34 491.13,317.75 C491.50,319.79 489.55,325.09 487.89,326.60 C486.85,327.54 486.00,327.95 486.00,327.50 C486.00,327.05 485.15,327.46 484.11,328.40 C483.07,329.34 482.40,330.88 482.63,331.81 C483.10,333.70 473.44,340.66 469.03,341.62 C467.64,341.92 464.48,342.81 462.00,343.61 C458.29,344.80 457.33,344.82 456.50,343.73 C455.02,341.78 448.37,341.59 447.65,343.48 ZM 333.93 313.13 C333.07,314.73 331.71,315.00 324.46,315.00 C319.81,315.00 316.00,314.66 316.00,314.24 C316.00,312.97 308.40,310.08 306.38,310.58 C304.39,311.08 297.36,307.31 298.37,306.29 C299.17,305.49 295.89,303.07 293.95,303.03 C291.25,302.98 286.09,296.75 285.82,293.24 C285.59,290.26 284.89,289.52 282.68,289.91 C282.22,289.99 282.11,289.64 282.42,289.13 C283.10,288.03 280.55,282.78 279.74,283.59 C279.43,283.90 278.61,281.60 277.91,278.48 C276.93,274.10 276.91,272.38 277.82,270.92 C279.29,268.56 279.35,265.33 277.93,264.46 C277.27,264.05 277.11,262.20 277.50,259.65 C278.47,253.38 280.05,248.91 281.08,249.55 C282.04,250.14 282.10,249.99 282.49,246.21 C282.75,243.75 286.83,238.78 288.00,239.50 C288.88,240.05 292.89,235.85 294.41,232.79 C295.04,231.53 296.55,230.36 297.78,230.18 C299.00,230.00 300.00,229.26 300.00,228.53 C300.00,227.19 305.40,224.73 306.32,225.65 C306.59,225.92 309.44,224.94 312.66,223.46 C317.98,221.01 319.21,220.82 326.50,221.39 C335.15,222.06 339.93,223.07 340.01,224.24 C340.13,226.15 341.30,227.93 342.10,227.44 C342.60,227.13 343.00,227.39 343.00,228.00 C343.00,228.61 343.45,228.84 344.00,228.50 C344.55,228.16 345.00,228.26 345.00,228.72 C345.00,229.19 346.13,229.66 347.52,229.77 C350.90,230.05 355.22,232.98 354.61,234.57 C354.08,235.96 356.32,238.35 357.26,237.40 C358.09,236.58 361.08,241.42 361.27,243.88 C361.35,245.02 362.00,246.17 362.71,246.44 C363.42,246.71 364.00,247.50 364.00,248.18 C364.00,248.87 365.13,250.34 366.51,251.46 C368.19,252.82 369.27,255.00 369.76,258.00 C371.02,265.68 370.38,278.95 368.67,280.67 C368.30,281.03 368.00,282.16 368.00,283.17 C368.00,284.17 367.43,285.00 366.72,285.00 C364.66,285.00 362.49,288.28 362.60,291.23 C362.67,293.07 362.10,294.15 360.85,294.55 C359.83,294.87 358.93,295.67 358.85,296.32 C358.76,296.97 358.64,297.95 358.57,298.50 C358.31,300.60 356.97,301.69 353.06,302.98 C350.05,303.97 349.28,304.63 350.04,305.54 C350.81,306.48 350.29,306.71 347.84,306.52 C345.77,306.36 343.90,306.95 342.57,308.20 C341.43,309.27 339.25,310.39 337.71,310.70 C336.18,311.01 334.48,312.10 333.93,313.13 ZM 357.40 454.51 C353.98,457.93 348.11,457.94 344.43,454.53 C342.39,452.63 341.35,452.28 339.96,453.02 C338.70,453.69 338.04,453.62 337.76,452.77 C337.52,452.07 335.97,451.65 334.11,451.79 C332.33,451.93 328.69,451.39 326.03,450.60 C323.36,449.81 320.95,449.38 320.68,449.65 C319.68,450.65 313.88,446.83 312.80,444.45 C312.18,443.10 311.30,441.94 310.84,441.88 C310.38,441.81 309.65,441.69 309.23,441.62 C308.41,441.49 307.38,440.70 302.60,436.53 C301.01,435.14 298.73,434.00 297.54,434.00 C294.69,434.00 289.82,428.83 289.44,425.41 C289.28,423.92 288.77,422.44 288.32,422.10 C287.87,421.77 286.15,419.49 284.50,417.03 C280.97,411.77 278.36,408.97 277.66,409.67 C276.48,410.85 274.96,405.95 275.94,404.12 C276.70,402.69 276.48,401.71 274.99,399.99 C273.08,397.78 272.41,395.37 271.54,387.59 C271.09,383.45 269.45,381.65 267.27,382.87 C266.50,383.30 262.59,382.01 257.96,379.80 C253.57,377.71 249.42,376.00 248.74,375.99 C248.06,375.99 246.96,374.81 246.29,373.38 C245.32,371.28 245.35,370.51 246.45,369.41 C247.25,368.61 247.57,367.09 247.23,365.77 C246.67,363.63 246.74,363.60 248.35,365.21 C249.29,366.15 250.75,366.65 251.58,366.33 C252.46,365.99 253.97,366.66 255.10,367.88 C256.73,369.62 257.47,369.82 259.13,368.93 C260.25,368.33 261.43,368.10 261.75,368.42 C262.07,368.74 261.70,369.02 260.92,369.04 C260.14,369.06 261.30,370.02 263.50,371.16 C267.38,373.18 270.40,373.48 276.39,372.43 C281.94,371.46 286.30,367.96 285.28,365.30 C284.82,364.08 285.07,363.81 286.26,364.27 C287.80,364.86 292.28,362.12 294.53,359.22 C295.92,357.42 298.48,358.57 299.86,361.60 C301.70,365.62 301.25,366.73 296.50,370.00 C292.35,372.86 291.50,374.04 291.92,376.37 C292.01,376.85 291.40,376.98 290.57,376.67 C288.78,375.98 285.70,378.71 286.61,380.18 C287.00,380.81 286.46,380.78 285.19,380.10 C281.04,377.88 278.90,384.52 282.36,388.88 C282.96,389.63 283.32,391.54 283.15,393.13 C282.98,394.71 283.33,396.00 283.92,396.00 C284.52,396.00 285.00,396.93 285.00,398.07 C285.00,400.58 286.49,403.49 289.11,406.11 C290.19,407.19 290.80,408.51 290.48,409.04 C290.15,409.57 290.30,410.00 290.82,410.00 C291.34,410.00 292.32,411.35 293.00,413.00 C294.15,415.78 295.15,416.48 297.37,416.08 C297.85,415.99 297.98,416.61 297.65,417.46 C296.92,419.38 303.17,425.86 305.57,425.65 C306.52,425.57 307.39,426.31 307.56,427.34 C307.72,428.35 308.00,429.28 308.17,429.39 C312.72,432.34 314.77,433.46 315.97,433.66 C316.78,433.78 317.91,434.52 318.47,435.29 C319.90,437.24 325.24,439.82 326.75,439.28 C327.44,439.03 328.00,439.32 328.00,439.92 C328.00,440.51 329.61,441.00 331.57,441.00 C333.54,441.00 335.82,441.67 336.64,442.50 C337.80,443.66 338.60,443.75 340.20,442.89 C341.73,442.07 342.44,442.10 343.00,443.00 C343.47,443.77 346.42,444.21 351.03,444.21 C356.69,444.21 358.50,443.85 359.21,442.59 C359.99,441.20 360.31,441.17 361.52,442.38 C363.07,443.93 365.20,443.38 374.00,439.19 C376.48,438.01 379.09,437.03 379.81,437.02 C380.53,437.01 380.87,436.60 380.57,436.12 C379.90,435.03 385.10,432.77 387.65,433.04 C391.01,433.39 391.86,433.02 392.52,430.93 C392.91,429.71 393.75,429.07 394.56,429.39 C396.19,430.01 399.28,427.26 398.45,425.92 C398.14,425.41 398.85,425.00 400.04,425.00 C402.87,425.00 408.10,419.43 407.28,417.28 C406.93,416.37 407.08,415.93 407.63,416.27 C408.89,417.05 410.16,416.11 412.25,412.83 C414.15,409.83 413.94,402.20 411.91,400.94 C411.25,400.53 410.98,399.48 411.32,398.61 C411.69,397.66 411.06,396.21 409.78,395.01 C408.59,393.90 408.16,393.00 408.81,393.00 C410.27,393.00 410.42,386.38 408.98,385.49 C408.42,385.14 408.23,384.44 408.55,383.91 C408.87,383.39 409.52,383.20 409.99,383.49 C410.46,383.78 411.56,383.30 412.45,382.41 C413.92,380.94 414.27,380.95 416.78,382.55 C418.27,383.50 420.29,385.10 421.25,386.10 C423.45,388.38 423.55,392.00 421.42,392.00 C420.18,392.00 419.94,392.78 420.33,395.64 C421.01,400.67 424.11,404.59 427.07,404.15 C429.04,403.86 429.21,404.04 428.17,405.30 C427.17,406.50 427.24,407.10 428.55,408.40 C429.43,409.29 430.64,409.72 431.23,409.36 C431.82,408.99 432.86,409.45 433.54,410.38 C434.72,412.00 436.72,412.75 441.83,413.50 C443.22,413.70 444.82,413.07 445.80,411.92 C447.77,409.62 450.59,409.45 452.65,411.51 C453.48,412.34 454.59,412.76 455.11,412.43 C455.62,412.11 455.99,412.22 455.91,412.68 C455.54,414.80 456.16,415.92 458.05,416.52 C459.72,417.05 459.88,417.44 458.89,418.63 C458.23,419.43 457.09,419.86 456.37,419.59 C455.65,419.31 454.40,419.74 453.60,420.54 C452.80,421.34 451.24,422.00 450.13,422.00 C449.02,422.00 447.39,423.01 446.50,424.25 L 444.90 426.50 L 442.92 424.11 C441.07,421.86 437.86,421.07 428.80,420.65 C427.86,420.61 427.29,420.37 427.54,420.13 C427.78,419.88 427.48,419.08 426.87,418.34 C425.55,416.75 422.00,416.54 422.00,418.06 C422.00,418.64 421.59,418.86 421.08,418.55 C419.88,417.81 416.81,420.88 417.55,422.08 C417.86,422.59 417.70,423.00 417.20,423.00 C416.70,423.00 413.63,425.62 410.39,428.83 C407.15,432.04 402.80,435.68 400.72,436.93 C398.65,438.18 396.22,439.92 395.33,440.81 C394.45,441.70 393.04,442.52 392.21,442.65 C391.38,442.77 390.38,443.39 389.99,444.02 C389.60,444.65 388.88,445.14 388.39,445.10 C386.60,444.95 384.00,446.16 384.00,447.15 C384.00,447.71 383.44,447.97 382.75,447.73 C382.06,447.49 379.70,447.94 377.50,448.73 C375.30,449.51 372.83,450.30 372.00,450.49 C368.30,451.31 365.08,453.03 364.11,454.69 C363.20,456.26 363.06,456.28 363.03,454.86 C362.98,452.03 360.06,451.85 357.40,454.51 Z" fill="rgba(0,0,0,1)"/>
<path d="M 539.51 715.93 C522.27,713.05 505.39,703.35 472.02,676.95 C472.59,677.05 473.00,676.79 473.00,676.12 C473.00,674.82 470.42,672.92 469.67,673.67 C469.38,673.95 469.46,674.58 469.81,675.20 C469.56,675.00 469.30,674.79 469.03,674.58 C466.49,672.55 464.05,670.57 461.66,668.60 C462.88,669.21 464.00,669.31 464.00,668.57 C464.00,667.50 460.70,665.00 459.27,665.00 C458.12,665.00 457.96,665.19 458.87,666.28 C454.17,662.34 449.64,658.38 444.93,654.08 C445.40,654.31 445.73,654.31 445.82,654.03 C446.33,652.51 444.08,650.00 442.20,650.00 C441.28,650.00 441.20,650.37 442.09,651.47 C437.86,647.55 433.44,643.33 428.60,638.59 C429.02,638.47 429.10,637.71 428.63,636.48 C428.29,635.60 427.54,635.17 426.96,635.53 C426.56,635.77 426.39,636.09 426.46,636.48 C424.23,634.29 421.91,631.98 419.48,629.54 C416.25,626.31 412.87,622.83 409.49,619.30 C409.92,619.42 410.31,619.43 410.61,619.32 C411.74,618.89 411.59,618.38 409.89,616.91 C408.06,615.32 406.57,615.26 406.53,616.18 C404.52,614.05 402.53,611.91 400.59,609.82 C400.80,609.71 400.70,609.01 400.45,607.75 C399.95,605.10 396.73,602.32 396.15,604.04 C396.07,604.30 396.18,604.74 396.43,605.27 C394.90,603.58 393.42,601.93 392.03,600.36 C392.45,600.55 392.86,600.59 393.12,600.43 C394.23,599.74 393.13,597.27 391.42,596.61 C390.21,596.14 389.77,597.10 390.19,598.28 C388.77,596.66 387.44,595.13 386.25,593.72 C387.02,594.33 387.81,594.62 388.20,594.38 C388.71,594.06 388.37,592.96 387.43,591.92 C386.50,590.89 385.31,590.31 384.80,590.62 C384.47,590.83 384.50,591.37 384.82,592.01 C382.61,589.35 380.99,587.26 380.21,586.00 C379.35,584.62 377.20,581.92 375.43,580.00 C374.36,578.84 372.24,576.27 369.88,573.29 C370.36,573.54 370.83,573.60 371.12,573.43 C372.23,572.74 371.13,570.27 369.42,569.61 C368.29,569.17 367.83,569.98 368.12,571.05 C367.12,569.77 366.12,568.47 365.16,567.21 L 362.80 564.10 C364.54,566.31 364.76,566.20 365.42,565.13 C365.90,564.35 364.96,562.91 360.82,558.08 C358.41,555.27 358.85,558.59 361.11,561.87 L 358.11 557.92 L 352.87 565.71 C351.48,567.78 349.63,570.44 347.74,573.09 C347.88,572.66 347.92,572.26 347.82,571.96 C347.53,571.08 346.92,571.22 345.70,572.45 C344.75,573.39 344.26,574.62 344.61,575.18 C344.95,575.72 345.58,575.67 346.34,575.05 C344.79,577.22 343.28,579.28 342.06,580.90 C339.00,584.97 335.20,590.15 333.62,592.40 C331.23,595.81 328.17,599.87 324.64,604.36 C324.86,603.83 324.94,603.32 324.82,602.96 C324.53,602.08 323.92,602.22 322.70,603.45 C321.75,604.39 321.26,605.62 321.61,606.18 C321.93,606.70 322.52,606.67 323.23,606.14 C322.38,607.20 321.51,608.29 320.62,609.40 C320.86,608.86 320.94,608.33 320.82,607.96 C320.53,607.08 319.92,607.22 318.70,608.45 C317.75,609.39 317.26,610.62 317.61,611.18 C317.92,611.69 318.49,611.67 319.19,611.17 C318.37,612.17 317.54,613.19 316.69,614.22 C316.87,613.75 316.93,613.29 316.82,612.96 C316.53,612.08 315.92,612.22 314.70,613.45 C313.75,614.39 313.26,615.62 313.61,616.18 C313.89,616.63 314.37,616.67 314.97,616.31 C313.89,617.62 312.79,618.94 311.67,620.27 C311.87,619.78 311.93,619.30 311.82,618.96 C311.53,618.08 310.92,618.22 309.70,619.45 C308.75,620.39 308.26,621.62 308.61,622.18 C308.89,622.62 309.36,622.67 309.94,622.33 C308.88,623.58 307.81,624.85 306.73,626.12 C306.88,625.68 306.92,625.27 306.82,624.96 C306.53,624.08 305.92,624.22 304.70,625.45 C303.75,626.39 303.26,627.62 303.61,628.18 C303.86,628.58 304.26,628.65 304.76,628.42 C303.43,629.97 302.09,631.53 300.74,633.09 C300.88,632.66 300.92,632.26 300.82,631.96 C300.53,631.08 299.92,631.22 298.70,632.45 C297.75,633.39 297.26,634.62 297.61,635.18 C297.84,635.55 298.21,635.64 298.67,635.46 C297.04,637.34 295.39,639.21 293.75,641.07 C293.88,640.65 293.92,640.26 293.82,639.96 C293.53,639.08 292.92,639.22 291.70,640.45 C290.75,641.39 290.26,642.62 290.61,643.18 C290.83,643.53 291.17,643.63 291.60,643.49 C289.18,646.21 286.77,648.89 284.40,651.49 C284.50,651.08 284.42,650.76 284.15,650.59 C282.90,649.82 279.79,652.85 280.55,654.08 C280.84,654.56 281.04,654.84 281.29,654.89 C270.52,666.61 260.83,676.49 255.00,681.41 C230.33,702.23 209.44,707.01 191.66,695.83 C191.90,695.91 192.09,695.96 192.22,695.97 C193.43,696.02 191.94,693.19 190.45,692.62 C188.98,692.06 188.24,692.81 188.59,693.71 C186.42,692.09 184.30,690.23 182.23,688.12 C175.03,680.77 171.97,676.70 166.80,666.42 C167.94,668.33 168.83,669.28 169.11,668.82 C169.97,667.44 169.15,665.00 167.83,665.00 C167.31,665.00 167.16,664.55 167.50,664.00 C167.84,663.45 167.64,663.00 167.06,663.00 C166.48,663.00 166.09,662.66 166.20,662.25 C166.60,660.72 164.88,657.17 163.46,656.62 C162.52,656.26 162.03,656.11 162.20,656.87 C159.15,650.28 156.40,643.60 153.91,636.71 C154.18,637.13 154.44,636.90 154.96,636.06 C155.96,634.45 155.24,632.00 153.78,632.00 C153.22,632.00 153.00,631.09 153.29,629.98 C153.59,628.86 153.14,627.28 152.29,626.43 C150.70,624.84 150.09,624.74 150.56,626.87 C148.96,621.82 147.47,616.64 146.10,611.29 C146.26,611.80 146.42,612.31 146.55,612.72 C147.00,614.12 147.27,614.18 147.96,613.06 C149.00,611.37 148.32,609.34 146.47,608.63 C145.90,608.41 145.56,608.48 145.47,608.82 C144.76,605.96 144.08,603.05 143.43,600.08 C143.65,600.43 143.89,600.57 144.11,600.43 C145.47,599.59 145.17,596.28 143.69,595.71 C143.02,595.46 142.70,595.70 142.68,596.60 C142.43,595.41 142.18,594.21 141.94,593.00 C139.84,582.50 138.30,571.50 137.33,560.30 C137.49,560.58 137.70,560.68 137.94,560.54 C139.05,559.85 138.92,556.00 137.79,556.00 C137.48,556.00 137.22,556.57 137.09,557.39 C136.68,552.19 136.40,546.96 136.23,541.73 C136.42,542.50 136.69,543.00 137.00,543.00 C137.55,543.00 138.00,541.68 138.00,540.06 C138.00,538.44 137.55,536.84 137.00,536.50 C136.61,536.26 136.30,536.69 136.13,537.63 C136.06,533.92 136.05,530.21 136.10,526.51 C136.27,527.39 136.60,528.00 136.99,528.00 C137.54,528.00 137.85,527.11 137.69,526.03 C137.31,523.57 136.49,522.74 136.15,523.90 C136.42,511.61 137.37,499.49 139.01,487.97 C139.00,488.13 139.00,488.29 139.00,488.44 C139.00,489.30 139.40,490.00 139.89,490.00 C141.24,490.00 141.93,487.50 141.00,486.00 C140.51,485.21 140.75,484.11 141.59,483.27 C142.63,482.23 142.73,481.36 141.96,479.93 C141.25,478.60 141.25,478.00 141.96,478.00 C143.21,478.00 143.36,474.34 142.14,473.59 C141.86,473.42 141.37,474.82 140.85,476.88 C141.34,474.31 141.92,471.50 142.54,468.60 C142.64,469.17 143.15,468.70 144.39,467.47 C145.23,466.63 145.66,465.28 145.35,464.47 C144.83,463.11 144.22,462.75 143.71,463.29 C145.84,453.90 148.22,444.62 149.63,440.63 C151.29,435.92 150.73,433.53 147.01,429.50 C144.98,427.29 139.49,419.45 132.96,409.63 C134.42,411.46 135.76,412.65 136.16,412.40 C137.13,411.80 134.57,407.01 131.56,403.76 C128.99,401.00 128.63,402.42 130.19,405.43 C129.28,404.04 128.35,402.62 127.42,401.19 C127.69,401.25 127.92,401.12 128.12,400.80 C129.03,399.33 128.21,397.29 126.42,396.61 C125.32,396.18 124.88,396.60 125.12,397.63 C123.66,395.38 122.21,393.10 120.77,390.83 C120.91,390.60 121.13,390.10 121.35,389.53 C121.66,388.72 121.16,387.31 120.25,386.39 C119.33,385.47 118.48,384.04 118.35,383.21 C118.10,381.46 115.64,379.66 115.21,380.90 C115.12,381.17 115.45,382.09 116.04,383.30 C114.90,381.47 113.79,379.67 112.72,377.92 C112.85,377.72 113.10,377.17 113.35,376.53 C113.66,375.72 113.16,374.31 112.25,373.39 C111.33,372.47 110.48,371.04 110.35,370.21 C110.13,368.70 107.89,366.78 107.18,367.48 C107.00,367.66 107.82,369.54 109.06,371.85 C85.63,332.56 70.00,298.80 62.27,270.84 C62.37,271.16 62.47,271.46 62.55,271.72 C63.00,273.12 63.27,273.18 63.96,272.06 C65.00,270.37 64.32,268.34 62.47,267.63 C61.89,267.40 61.54,267.49 61.47,267.85 C58.33,255.77 56.71,244.82 56.62,235.00 C56.46,218.13 59.21,208.16 66.76,198.26 C72.57,190.62 87.66,183.55 103.54,181.01 C127.47,177.19 171.16,181.91 214.62,193.00 C217.21,193.67 219.90,194.37 222.66,195.11 C219.83,194.45 219.28,194.58 219.69,195.63 C219.98,196.38 220.50,197.03 220.86,197.08 C223.05,197.34 225.25,197.92 225.69,198.36 C225.97,198.63 226.86,198.61 227.66,198.30 C229.30,197.67 228.68,196.88 225.93,195.98 C231.05,197.37 236.33,198.84 241.54,200.34 C241.03,200.51 241.33,201.19 242.48,202.34 C243.35,203.21 244.72,203.66 245.53,203.35 C247.15,202.73 247.37,202.31 245.93,201.61 C259.85,205.66 272.68,209.68 279.50,212.23 C285.41,214.43 287.05,214.99 290.76,214.62 C282.78,215.72 281.74,216.22 282.93,216.96 C283.92,217.57 283.66,218.00 281.88,218.62 C279.19,219.57 278.39,219.72 275.33,219.88 C274.14,219.95 271.90,221.35 270.34,223.00 C268.78,224.65 266.74,226.00 265.81,226.00 C264.20,226.00 262.55,227.63 262.52,229.25 C262.51,229.66 262.12,229.96 261.66,229.90 C260.52,229.77 254.97,235.15 255.45,235.92 C255.66,236.25 255.20,237.64 254.45,239.01 C253.69,240.38 253.05,241.06 253.04,240.53 C253.02,239.99 252.28,240.58 251.41,241.82 C250.54,243.07 250.10,244.81 250.43,245.68 C250.77,246.57 249.71,249.63 248.01,252.63 C246.35,255.59 245.24,258.00 245.55,258.00 C245.86,258.00 245.76,258.56 245.32,259.25 C244.87,259.94 244.43,261.40 244.33,262.50 C243.80,268.36 242.59,273.10 241.37,274.11 C239.90,275.33 239.44,283.00 240.84,283.00 C241.30,283.00 242.19,284.12 242.82,285.50 C243.51,287.02 243.57,288.00 242.98,288.00 C241.49,288.00 241.81,292.13 243.44,293.93 C244.23,294.80 245.09,296.71 245.35,298.17 C245.62,299.63 246.57,301.94 247.47,303.31 C248.63,305.09 248.76,305.91 247.92,306.19 C246.06,306.81 247.86,310.98 250.51,312.19 C251.79,312.77 252.62,313.83 252.35,314.53 C251.72,316.18 254.81,322.24 255.93,321.54 C256.98,320.89 259.52,323.82 258.65,324.68 C257.64,325.70 260.01,327.93 261.49,327.36 C263.62,326.55 267.44,328.96 266.12,330.28 C264.71,331.69 267.53,335.00 270.15,335.00 C271.17,335.00 272.00,335.39 272.00,335.87 C272.00,336.78 284.87,342.84 287.78,343.29 C288.73,343.44 290.06,343.91 290.75,344.34 C291.44,344.77 292.45,344.84 293.00,344.50 C293.55,344.16 295.37,344.69 297.04,345.68 C299.52,347.15 300.24,347.23 300.91,346.14 C301.53,345.14 304.33,344.86 312.12,345.04 C317.83,345.16 322.95,345.14 323.50,344.98 C324.05,344.82 324.95,344.61 325.50,344.50 C326.05,344.39 327.17,344.05 328.00,343.74 C332.74,341.94 339.40,340.06 339.75,340.42 C339.98,340.65 341.00,340.08 342.01,339.17 C345.61,335.91 346.93,335.00 348.02,335.00 C348.62,335.00 348.86,334.59 348.55,334.08 C347.80,332.86 353.02,328.79 354.58,329.39 C356.04,329.95 360.29,325.64 360.64,323.23 C360.78,322.28 361.82,320.75 362.95,319.84 C364.08,318.93 365.00,317.88 365.00,317.52 C365.00,317.15 365.56,316.26 366.25,315.54 C369.34,312.29 370.79,310.12 370.25,309.58 C369.93,309.26 370.14,309.00 370.73,309.00 C371.31,309.00 371.96,310.80 372.17,313.00 C372.44,315.78 372.16,317.00 371.28,317.00 C369.59,317.00 369.67,318.45 371.53,322.05 C372.36,323.67 372.78,325.00 372.45,325.00 C372.12,325.00 372.79,326.19 373.93,327.63 C375.07,329.08 376.01,331.00 376.03,331.88 C376.05,332.77 376.71,334.35 377.50,335.40 C378.29,336.44 378.72,337.65 378.45,338.08 C377.70,339.30 381.10,347.06 382.11,346.43 C382.60,346.13 383.00,347.01 383.00,348.38 C383.00,350.83 384.26,352.26 386.75,352.63 C389.15,353.00 394.50,358.31 394.50,360.32 C394.50,362.63 402.98,367.91 406.78,367.97 C408.04,367.99 409.31,368.65 409.62,369.45 C410.29,371.19 416.33,373.46 422.82,374.40 C424.10,374.59 425.65,375.25 426.27,375.87 C427.69,377.29 429.68,377.32 430.53,375.95 C430.92,375.32 435.03,374.95 440.84,375.02 C452.21,375.17 457.28,374.54 461.82,372.40 C463.65,371.54 465.78,371.09 466.57,371.39 C467.36,371.69 468.00,371.57 468.00,371.13 C468.00,370.68 469.58,369.47 471.50,368.43 C473.42,367.39 475.00,366.20 475.00,365.77 C475.00,365.35 475.75,365.00 476.67,365.00 C477.58,365.00 478.04,364.71 477.68,364.35 C476.86,363.53 480.02,361.07 481.96,361.03 C483.96,360.99 490.95,354.02 490.40,352.61 C490.16,351.98 491.55,349.98 493.48,348.15 C495.42,346.33 497.06,343.97 497.12,342.92 C497.19,341.86 497.36,340.55 497.50,340.00 C497.64,339.45 497.81,338.62 497.88,338.16 C497.94,337.69 499.12,336.00 500.50,334.41 C502.72,331.83 503.56,329.30 503.08,326.64 C503.00,326.17 503.45,325.16 504.09,324.39 C504.73,323.62 504.99,321.70 504.67,320.08 C504.29,318.22 504.58,316.77 505.46,316.04 C507.00,314.75 507.53,302.00 506.03,302.00 C504.73,302.00 503.76,298.30 503.45,292.18 C503.27,288.61 502.53,286.09 501.26,284.66 C500.21,283.47 499.30,281.50 499.24,280.28 C499.18,279.05 498.20,277.06 497.06,275.84 C495.93,274.62 495.00,272.78 495.00,271.75 C495.00,270.72 494.55,270.16 494.00,270.50 C493.45,270.84 493.00,270.29 493.00,269.28 C493.00,266.98 490.14,262.79 489.04,263.48 C487.80,264.24 483.94,260.77 483.62,258.60 C483.45,257.46 481.98,256.25 479.92,255.56 C478.04,254.92 476.61,253.86 476.75,253.20 C476.89,252.54 476.49,252.00 475.86,252.00 C475.24,252.00 473.71,250.90 472.47,249.56 C471.23,248.22 469.94,247.40 469.60,247.73 C469.27,248.06 469.00,247.78 469.00,247.11 C469.00,246.43 468.65,246.10 468.23,246.36 C467.81,246.62 465.05,245.98 462.09,244.94 C459.14,243.90 456.37,243.27 455.93,243.54 C455.50,243.81 454.91,243.66 454.63,243.21 C454.35,242.75 452.65,242.48 450.85,242.60 C449.06,242.73 446.69,242.19 445.57,241.41 C442.99,239.60 442.00,239.63 442.00,241.50 C442.00,242.55 440.94,243.00 438.50,243.00 C436.06,243.00 435.00,242.55 435.00,241.50 C435.00,239.31 431.98,239.67 429.31,242.17 C427.97,243.44 427.00,243.83 427.00,243.11 C427.00,242.38 426.27,242.09 425.25,242.41 C424.29,242.71 421.92,243.16 420.00,243.41 C416.80,243.81 409.25,246.98 411.45,246.99 C414.04,247.01 409.65,249.31 406.57,249.55 C404.16,249.74 401.86,250.91 399.47,253.17 C397.52,255.00 395.28,256.51 394.50,256.51 C392.40,256.53 385.07,264.03 385.66,265.56 C385.94,266.29 385.23,267.46 384.08,268.18 C382.94,268.90 382.00,270.30 382.00,271.30 C382.00,272.30 381.59,272.86 381.09,272.55 C380.58,272.24 380.01,272.47 379.82,273.05 C379.24,274.79 376.02,272.96 375.58,270.64 C373.60,260.24 372.61,256.75 370.47,252.73 C369.11,250.18 368.00,246.98 368.00,245.63 C368.00,244.19 366.75,241.99 365.00,240.34 C363.35,238.78 362.00,236.85 362.00,236.04 C362.00,233.95 353.93,226.00 351.80,226.00 C350.82,226.00 349.45,225.10 348.77,224.00 C348.08,222.90 346.70,222.00 345.70,222.00 C344.70,222.00 344.13,221.59 344.44,221.09 C345.25,219.78 336.59,215.84 332.22,215.52 C332.06,215.51 331.89,215.50 331.69,215.48 C348.09,192.35 367.75,169.85 387.65,151.25 C387.49,151.62 387.46,151.93 387.58,152.13 C388.31,153.32 388.62,153.24 390.44,151.42 C392.11,149.74 391.73,148.35 390.45,148.66 C392.50,146.78 394.55,144.95 396.59,143.17 C396.38,143.61 396.35,144.02 396.61,144.27 C397.49,145.16 399.77,144.04 400.39,142.42 C400.70,141.63 400.34,141.00 399.59,141.00 C399.40,141.00 399.19,141.04 398.98,141.10 C400.22,140.04 401.46,139.00 402.69,137.98 C402.39,138.49 402.31,138.98 402.61,139.27 C403.49,140.16 405.77,139.04 406.39,137.42 C406.70,136.63 406.34,136.00 405.59,136.00 C405.40,136.00 405.19,136.04 404.98,136.10 C409.64,132.33 415.33,127.96 420.79,123.92 C420.46,124.32 420.33,124.72 420.50,125.01 C421.25,126.21 423.71,125.21 424.39,123.42 C425.02,121.78 424.56,121.65 422.14,122.93 C429.30,117.67 435.88,113.11 438.93,111.41 C440.82,110.36 443.07,108.91 443.93,108.19 C447.12,105.52 453.12,102.01 455.54,101.40 C456.91,101.06 458.36,100.19 458.76,99.47 C459.06,98.94 460.33,98.03 462.20,96.92 C461.64,97.37 461.61,97.76 462.13,98.08 C463.66,99.03 465.70,98.24 466.39,96.42 C467.05,94.70 466.80,94.68 463.52,96.17 C463.49,96.19 463.46,96.20 463.43,96.21 C470.25,92.38 482.59,86.81 488.11,85.42 C496.60,83.29 506.56,83.07 512.84,84.87 C518.36,86.47 525.43,92.94 528.71,99.41 C531.97,105.85 533.20,109.89 533.67,134.93 C533.44,134.32 533.10,134.00 532.65,134.00 C531.48,134.00 531.12,136.79 531.84,140.25 C531.93,140.66 532.45,141.00 533.00,141.00 C533.30,141.00 533.56,140.54 533.75,139.82 C533.92,152.77 533.95,170.62 533.97,195.75 C533.99,253.33 534.29,272.00 535.17,272.00 C535.82,272.00 537.16,272.74 538.15,273.64 C539.14,274.53 540.98,275.38 542.23,275.52 C545.72,275.91 575.94,288.75 605.58,301.92 C604.79,301.91 604.98,302.83 606.58,304.44 C607.45,305.31 608.64,305.72 609.23,305.36 C609.91,304.93 609.63,304.21 608.46,303.35 C608.26,303.20 608.07,303.07 607.89,302.95 C618.81,307.81 629.54,312.67 638.73,316.93 C636.14,315.85 635.41,316.27 637.28,318.13 C638.03,318.88 639.97,319.57 641.57,319.66 C644.44,319.81 644.43,319.77 640.66,317.83 C640.55,317.78 640.45,317.73 640.35,317.68 C645.79,320.21 650.65,322.50 654.60,324.43 C653.00,323.94 652.80,324.66 654.48,326.34 C655.35,327.21 656.78,327.64 657.66,327.30 C658.59,326.94 658.72,326.63 657.87,326.04 C662.07,328.13 664.75,329.60 665.34,330.18 C666.07,330.91 669.55,332.77 673.08,334.33 C685.85,339.96 696.72,345.50 705.82,351.06 C703.53,349.80 701.69,348.98 701.50,349.17 C700.78,349.89 702.68,352.13 704.21,352.35 C705.04,352.48 706.47,353.33 707.39,354.25 C708.31,355.16 709.76,355.65 710.62,355.32 C711.25,355.08 711.21,354.66 710.41,353.96 C712.53,355.35 714.53,356.74 716.43,358.13 C715.38,357.78 714.89,358.01 715.50,359.00 C715.84,359.55 716.77,360.00 717.56,360.00 C718.35,360.00 719.00,360.42 719.00,360.93 C719.00,361.44 719.71,362.57 720.58,363.44 C721.45,364.31 722.64,364.72 723.23,364.36 C723.45,364.22 723.49,363.97 723.35,363.63 C734.83,373.55 741.19,383.82 743.17,395.06 C744.00,399.77 743.91,404.33 742.92,408.75 C743.11,407.48 742.83,406.00 742.08,406.00 C740.91,406.00 740.16,408.13 740.75,409.74 C741.00,410.43 741.61,410.74 742.10,410.44 C742.39,410.26 742.60,409.91 742.75,409.49 C741.25,415.49 738.07,421.23 733.18,426.69 C733.69,425.54 733.20,424.99 731.60,425.60 C730.40,426.06 728.00,430.15 728.00,431.73 C728.00,431.77 728.02,431.79 728.04,431.80 C726.34,433.32 724.49,434.82 722.50,436.30 C716.31,440.90 706.39,446.31 694.09,452.03 C694.34,451.91 694.60,451.77 694.87,451.62 C696.82,450.54 696.95,450.20 695.65,449.69 C694.30,449.18 691.00,451.22 691.00,452.57 C691.00,453.08 691.67,453.08 692.87,452.60 C680.58,458.26 666.03,464.20 650.53,469.93 C650.92,468.91 648.93,468.14 647.26,468.75 C646.57,469.00 646.26,469.61 646.56,470.10 C646.83,470.53 647.31,470.79 647.86,470.91 C645.09,471.92 642.30,472.92 639.48,473.92 C639.70,473.61 639.53,473.33 639.06,473.04 C637.38,472.00 635.16,472.77 632.50,475.31 C631.61,476.16 631.12,476.64 631.07,476.83 C629.88,477.24 628.69,477.64 627.49,478.04 C627.83,477.72 627.67,477.42 627.07,477.04 C625.32,475.96 620.33,477.69 619.59,479.64 C619.38,480.17 619.36,480.50 619.66,480.62 C616.74,481.57 613.81,482.50 610.89,483.41 C611.84,482.90 611.84,482.52 611.06,482.04 C609.36,480.98 607.33,481.69 606.61,483.58 C606.36,484.22 606.23,484.62 606.35,484.80 C604.47,485.37 602.59,485.94 600.72,486.49 C601.83,485.95 601.88,485.55 601.06,485.04 C599.36,483.98 597.33,484.69 596.61,486.58 C596.37,487.19 596.24,487.58 596.33,487.77 C584.70,491.13 573.36,494.07 562.82,496.41 C560.32,496.96 560.20,497.22 561.11,500.25 C562.50,504.89 565.94,518.58 569.23,532.20 C569.11,532.07 569.00,532.00 568.89,532.00 C567.52,532.00 567.84,536.77 569.25,537.34 C569.94,537.62 570.53,537.88 570.58,537.92 C570.58,537.93 570.59,537.89 570.58,537.81 C572.84,547.28 574.87,556.09 575.89,561.04 C576.30,563.00 576.70,564.99 577.10,567.01 C576.65,565.39 576.17,564.40 575.85,564.59 C574.82,565.23 575.84,572.07 577.22,573.75 C578.33,575.11 578.63,575.40 578.29,573.11 C581.82,591.57 585.13,611.95 587.59,630.50 C592.95,670.83 590.62,690.60 579.02,703.29 C573.10,709.76 566.23,713.63 557.28,715.53 C549.82,717.11 546.95,717.17 539.51,715.93 ZM 342.49 458.34 C343.30,459.16 344.88,459.58 346.00,459.29 C348.19,458.72 349.77,457.00 348.11,457.00 C347.56,457.00 345.90,455.89 344.43,454.53 C347.94,457.77 353.42,457.92 356.89,454.98 C355.82,456.01 355.00,457.16 355.00,457.95 C355.00,459.73 358.89,459.11 361.00,457.00 C362.32,455.68 362.95,454.73 362.91,454.00 C362.98,454.25 363.02,454.54 363.03,454.86 C363.05,455.82 363.12,456.12 363.44,455.74 C363.20,456.36 363.26,456.92 363.70,457.37 C364.55,458.22 365.06,458.18 371.19,456.87 C374.10,456.24 377.00,455.01 377.64,454.13 C378.43,453.06 379.99,452.64 382.41,452.84 C385.78,453.13 386.55,452.49 386.12,449.75 C386.05,449.34 386.56,448.97 387.25,448.92 C387.94,448.88 389.17,448.69 390.00,448.50 C390.83,448.31 392.49,447.98 393.71,447.77 C394.92,447.56 396.83,446.56 397.96,445.54 C399.08,444.52 400.00,444.01 400.00,444.40 C400.00,444.78 401.57,443.90 403.49,442.44 C405.41,440.98 406.73,439.38 406.43,438.89 C406.13,438.40 406.74,438.00 407.79,438.00 C409.64,438.00 419.40,429.09 421.58,425.41 C422.56,423.76 423.08,423.71 426.84,424.83 C429.14,425.52 432.51,425.81 434.32,425.47 C436.69,425.02 438.00,425.29 438.94,426.42 C441.11,429.04 448.51,428.48 452.56,425.39 C454.44,423.95 456.65,423.03 457.46,423.35 C459.59,424.16 462.00,421.33 462.00,418.01 C462.00,413.85 461.03,411.96 458.36,410.95 C457.05,410.45 456.04,409.70 456.11,409.27 C456.63,406.11 455.94,405.78 450.25,406.48 C447.09,406.87 443.79,407.82 442.92,408.59 C440.89,410.40 440.40,410.37 438.07,408.25 C437.01,407.29 435.55,406.05 434.82,405.50 C432.39,403.66 429.20,404.07 428.05,405.44 C428.09,405.39 428.13,405.35 428.17,405.30 C429.09,404.19 429.07,403.92 427.69,404.07 C428.44,403.80 429.06,403.29 429.34,402.56 C429.95,400.95 428.88,399.25 426.99,398.83 C426.17,398.65 425.01,397.15 424.41,395.50 C423.81,393.85 422.53,392.35 421.57,392.16 C421.26,392.10 421.01,392.07 420.80,392.10 C420.97,392.03 421.18,392.00 421.42,392.00 C423.30,392.00 423.44,389.18 421.94,386.95 C422.54,386.61 423.29,385.60 423.78,384.20 C424.90,381.00 423.38,378.00 420.64,378.00 C419.74,378.00 419.00,377.50 419.00,376.89 C419.00,376.17 417.85,376.00 415.75,376.41 C413.96,376.76 411.60,377.19 410.51,377.36 C408.03,377.74 403.86,385.11 405.75,385.74 C406.44,385.98 407.00,387.70 407.00,389.58 C407.00,391.95 407.46,393.00 408.50,393.00 C409.22,393.00 409.71,391.90 409.93,390.53 C409.78,391.90 409.41,393.00 408.81,393.00 C408.16,393.00 408.59,393.90 409.78,395.01 C409.87,395.09 409.95,395.18 410.04,395.26 C409.19,394.52 408.07,394.00 406.93,394.00 C404.63,394.00 404.37,396.65 406.45,398.94 C408.67,401.39 409.08,408.14 407.15,410.34 C406.26,411.35 405.52,412.93 405.51,413.84 C405.51,414.75 405.00,415.41 404.40,415.30 C403.26,415.09 397.32,420.72 396.80,422.50 C396.63,423.05 396.10,423.37 395.61,423.20 C395.11,423.04 393.50,424.06 392.02,425.48 C390.55,426.89 388.41,428.23 387.27,428.45 C384.73,428.94 378.70,431.96 377.95,433.13 C376.85,434.81 362.88,438.93 360.13,438.38 C358.31,438.01 356.94,438.36 356.07,439.41 C354.38,441.45 346.17,441.61 345.41,439.62 C345.10,438.83 342.67,437.96 339.69,437.58 C333.14,436.75 328.00,435.13 328.00,433.89 C328.00,433.33 327.11,433.41 325.88,434.06 C324.21,434.96 323.92,434.93 324.54,433.93 C325.10,433.02 324.84,432.85 323.61,433.32 C322.67,433.68 322.11,433.62 322.38,433.19 C322.65,432.76 322.56,431.94 322.18,431.37 C321.10,429.71 311.63,424.49 310.28,424.79 C309.61,424.95 308.42,423.54 307.63,421.67 C306.16,418.14 302.30,414.70 300.84,415.60 C300.38,415.89 300.00,415.19 300.00,414.05 C300.00,412.91 298.79,410.62 297.30,408.96 C295.82,407.29 294.49,405.17 294.36,404.23 C294.22,403.30 293.63,402.38 293.05,402.18 C292.46,401.99 292.24,401.42 292.55,400.91 C292.86,400.41 292.61,400.00 292.00,400.00 C291.39,400.00 291.16,399.55 291.50,399.00 C291.84,398.45 291.61,398.00 291.00,398.00 C290.39,398.00 290.14,397.59 290.45,397.08 C290.76,396.57 290.29,395.44 289.41,394.55 C288.53,393.67 287.61,391.27 287.37,389.22 C287.03,386.26 287.47,384.92 289.50,382.65 C290.91,381.09 293.27,379.49 294.74,379.09 C300.54,377.54 306.98,363.46 303.01,361.00 C301.05,359.80 300.16,360.59 300.51,363.17 C300.34,362.70 300.13,362.18 299.86,361.60 C299.07,359.85 297.88,358.73 296.75,358.44 C296.86,358.46 296.97,358.49 297.07,358.52 C299.17,359.19 299.31,358.97 298.39,356.58 C297.71,354.80 291.52,354.35 290.49,356.02 C290.14,356.58 289.50,356.81 289.06,356.54 C287.97,355.87 284.53,359.81 284.51,361.75 C284.51,362.68 283.54,363.40 282.16,363.50 C280.87,363.60 279.41,364.31 278.92,365.09 C278.43,365.87 278.02,366.14 278.02,365.71 C278.01,365.28 277.02,365.83 275.82,366.95 C274.63,368.06 272.15,369.26 270.31,369.60 C267.52,370.13 266.64,369.81 264.98,367.70 C262.10,364.04 250.48,358.73 252.50,362.00 C253.45,363.54 251.04,363.18 249.40,361.54 C247.28,359.42 244.72,360.73 245.43,363.57 C245.75,364.84 245.61,366.12 245.13,366.42 C243.34,367.52 242.95,373.28 244.51,375.65 C245.35,376.93 246.01,378.22 245.98,378.53 C245.81,380.28 254.18,384.94 258.31,385.38 C262.84,385.87 270.98,392.78 268.69,394.19 C267.89,394.69 268.20,396.41 269.75,400.09 C270.96,402.94 271.71,405.67 271.41,406.14 C271.12,406.61 271.39,407.00 272.00,407.00 C272.61,407.00 272.84,407.45 272.50,408.00 C272.16,408.55 272.39,409.00 273.00,409.00 C273.61,409.00 273.84,409.45 273.50,410.00 C273.16,410.55 273.39,411.00 274.00,411.00 C274.61,411.00 274.84,411.45 274.50,412.00 C274.16,412.55 274.39,413.00 275.00,413.00 C275.61,413.00 275.84,413.45 275.50,414.00 C275.16,414.55 275.35,415.00 275.92,415.00 C276.48,415.00 277.70,416.46 278.62,418.25 C279.54,420.04 281.37,422.91 282.67,424.62 C285.70,428.61 289.78,429.00 289.43,425.31 C289.43,425.34 289.44,425.38 289.44,425.41 C289.82,428.83 294.69,434.00 297.54,434.00 C297.73,434.00 297.95,434.03 298.18,434.08 C297.06,434.03 296.37,434.77 296.24,436.31 C296.11,437.95 297.34,439.70 300.47,442.31 C302.89,444.34 305.60,446.00 306.47,446.00 C307.35,446.00 308.32,446.66 308.62,447.46 C309.17,448.88 312.72,450.60 314.25,450.20 C314.66,450.09 315.00,450.48 315.00,451.06 C315.00,451.64 315.45,451.84 316.00,451.50 C316.55,451.16 317.00,451.32 317.00,451.86 C317.00,453.13 325.34,455.87 330.60,456.34 C332.86,456.54 335.22,457.02 335.86,457.41 C336.50,457.81 337.92,457.84 339.01,457.50 C340.19,457.12 341.61,457.47 342.49,458.34 ZM 562.54 285.39 C563.40,286.26 564.79,286.64 565.76,286.26 C567.02,285.78 566.10,285.00 562.16,283.21 C559.25,281.89 556.65,281.02 556.38,281.28 C555.59,282.08 559.09,285.06 560.09,284.45 C560.60,284.13 561.70,284.56 562.54,285.39 ZM 675.00 459.57 C675.00,460.32 676.43,459.97 678.87,458.62 C680.82,457.54 680.95,457.20 679.65,456.69 C678.30,456.18 675.00,458.22 675.00,459.57 ZM 693.48 346.34 C694.35,347.21 695.78,347.64 696.66,347.30 C697.93,346.81 697.71,346.40 695.54,345.27 C692.32,343.58 691.27,344.13 693.48,346.34 ZM 590.48 297.34 C591.35,298.21 592.78,298.64 593.66,298.30 C594.93,297.81 594.71,297.40 592.54,296.27 C589.32,294.58 588.27,295.13 590.48,297.34 ZM 586.53 635.71 C587.27,637.42 587.33,637.42 587.74,635.67 C588.21,633.70 587.39,632.27 586.38,633.29 C586.03,633.63 586.10,634.72 586.53,635.71 ZM 316.72 213.16 C319.44,213.42 322.01,213.83 324.40,214.40 C324.64,214.46 324.89,214.51 325.12,214.57 C323.40,214.30 321.58,213.99 319.87,213.67 C318.84,213.48 317.77,213.31 316.72,213.16 ZM 372.00 450.49 C368.62,451.24 365.57,452.99 364.14,454.64 C365.15,453.00 368.34,451.30 372.00,450.49 ZM 293.72 214.23 C294.18,214.15 294.68,214.08 295.22,213.99 C297.77,213.59 300.31,213.29 302.81,213.10 C299.21,213.53 296.21,213.90 293.72,214.23 ZM 354.88 444.12 C357.08,443.81 358.82,443.28 359.22,442.57 C359.89,441.37 360.22,441.20 361.11,441.98 C360.22,441.20 359.89,441.37 359.21,442.59 C358.70,443.51 357.60,443.95 354.88,444.12 ZM 417.03 382.71 C417.18,382.81 417.34,382.90 417.51,383.00 C419.04,383.95 420.36,385.03 420.82,385.68 C419.84,384.76 418.29,383.55 417.03,382.71 ZM 295.79 358.40 C295.32,358.49 294.88,358.76 294.53,359.22 C293.88,360.05 293.06,360.87 292.17,361.59 C293.06,360.85 293.84,360.03 294.32,359.24 C294.61,358.77 295.16,358.48 295.79,358.40 ZM 427.93 405.60 C427.42,406.35 427.49,407.35 428.55,408.40 C427.36,407.21 427.19,406.61 427.93,405.60 ZM 300.76 365.75 C300.56,367.02 299.48,367.95 296.60,369.93 C296.57,369.95 296.53,369.98 296.50,370.00 C299.09,368.22 300.40,367.07 300.76,365.75 ZM 357.40 454.51 C358.32,453.59 359.27,453.01 360.12,452.76 C359.28,453.09 358.26,453.76 357.36,454.55 C357.37,454.54 357.39,454.52 357.40,454.51 ZM 343.34 443.20 C343.44,443.30 343.57,443.40 343.72,443.48 C343.36,443.34 343.11,443.18 343.00,443.00 C342.95,442.92 342.90,442.85 342.85,442.79 C343.01,442.90 343.18,443.04 343.34,443.20 ZM 362.38 453.11 C362.19,452.97 361.96,452.84 361.68,452.71 C361.95,452.79 362.18,452.92 362.38,453.11 ZM 336.64 442.50 C337.42,443.27 338.06,443.57 338.86,443.42 C338.05,443.58 337.43,443.29 336.64,442.50 ZM 411.91 400.94 C411.25,400.53 410.98,399.49 411.31,398.63 C411.33,398.58 411.35,398.52 411.37,398.47 C411.35,398.52 411.34,398.56 411.32,398.61 C410.98,399.48 411.25,400.53 411.91,400.94 ZM 288.07 364.08 C287.32,364.35 286.68,364.43 286.26,364.27 C286.68,364.43 287.32,364.34 288.07,364.08 ZM 420.31 395.48 C420.34,395.72 420.37,395.95 420.41,396.18 C420.38,396.00 420.35,395.82 420.33,395.64 C420.32,395.59 420.31,395.53 420.31,395.48 Z" fill="rgba(255,176,0,1)"/>
<path d="M 426.27 375.87 C425.65,375.25 424.10,374.59 422.82,374.40 C416.33,373.46 410.29,371.19 409.62,369.45 C409.31,368.65 408.04,367.99 406.78,367.97 C402.98,367.91 394.50,362.63 394.50,360.32 C394.50,358.31 389.15,353.00 386.75,352.63 C384.26,352.26 383.00,350.83 383.00,348.38 C383.00,347.01 382.60,346.13 382.11,346.43 C381.10,347.06 377.70,339.30 378.45,338.08 C378.72,337.65 378.29,336.44 377.50,335.40 C376.71,334.35 376.05,332.77 376.03,331.88 C376.01,331.00 375.07,329.08 373.93,327.63 C372.79,326.19 372.12,325.00 372.45,325.00 C372.78,325.00 372.36,323.67 371.53,322.05 C369.67,318.45 369.59,317.00 371.28,317.00 C372.16,317.00 372.44,315.78 372.17,313.00 C371.96,310.80 371.31,309.00 370.73,309.00 C370.14,309.00 369.93,309.26 370.25,309.58 C370.79,310.12 369.34,312.29 366.25,315.54 C365.56,316.26 365.00,317.15 365.00,317.52 C365.00,317.88 364.08,318.93 362.95,319.84 C361.82,320.75 360.78,322.28 360.64,323.23 C360.29,325.64 356.04,329.95 354.58,329.39 C353.02,328.79 347.80,332.86 348.55,334.08 C348.86,334.59 348.62,335.00 348.02,335.00 C346.93,335.00 345.61,335.91 342.01,339.17 C341.00,340.08 339.98,340.65 339.75,340.42 C339.40,340.06 332.74,341.94 328.00,343.74 C327.17,344.05 326.05,344.39 325.50,344.50 C324.95,344.61 324.05,344.82 323.50,344.98 C322.95,345.14 317.83,345.16 312.12,345.04 C304.33,344.86 301.53,345.14 300.91,346.14 C300.24,347.23 299.52,347.15 297.04,345.68 C295.37,344.69 293.55,344.16 293.00,344.50 C292.45,344.84 291.44,344.77 290.75,344.34 C290.06,343.91 288.73,343.44 287.78,343.29 C284.87,342.84 272.00,336.78 272.00,335.87 C272.00,335.39 271.17,335.00 270.15,335.00 C267.53,335.00 264.71,331.69 266.12,330.28 C266.51,329.89 266.45,329.40 266.12,328.93 C277.07,338.42 290.96,343.83 307.00,344.67 C319.56,345.33 326.29,343.89 339.00,337.80 C350.30,332.38 361.71,321.17 367.65,309.66 L 371.70 301.81 L 372.30 311.16 C373.07,323.02 375.32,331.59 379.69,339.36 C389.81,357.31 403.89,368.32 422.67,372.93 C432.32,375.30 445.20,375.51 453.36,373.43 C456.74,372.57 463.33,370.04 468.00,367.80 C474.80,364.53 478.11,362.10 484.59,355.61 C498.60,341.56 504.40,327.47 504.20,308.00 C504.08,296.14 504.18,296.82 501.16,287.87 C493.78,266.02 473.92,248.20 452.21,243.96 C443.34,242.22 425.18,243.22 417.72,245.86 C399.77,252.23 384.99,265.46 377.86,281.58 C376.79,284.01 375.74,286.00 375.54,286.00 C375.33,286.00 375.13,281.36 375.08,275.68 C375.05,271.14 374.84,267.48 374.28,264.15 C374.67,265.98 375.10,268.10 375.58,270.64 C376.02,272.96 379.24,274.79 379.82,273.05 C380.01,272.47 380.58,272.24 381.09,272.55 C381.59,272.86 382.00,272.30 382.00,271.30 C382.00,270.30 382.94,268.90 384.08,268.18 C385.23,267.46 385.94,266.29 385.66,265.56 C385.07,264.03 392.40,256.53 394.50,256.51 C395.28,256.51 397.52,255.00 399.47,253.17 C401.86,250.91 404.16,249.74 406.57,249.55 C409.65,249.31 414.04,247.01 411.45,246.99 C409.25,246.98 416.80,243.81 420.00,243.41 C421.92,243.16 424.29,242.71 425.25,242.41 C426.27,242.09 427.00,242.38 427.00,243.11 C427.00,243.83 427.97,243.44 429.31,242.17 C431.98,239.67 435.00,239.31 435.00,241.50 C435.00,242.55 436.06,243.00 438.50,243.00 C440.94,243.00 442.00,242.55 442.00,241.50 C442.00,239.63 442.99,239.60 445.57,241.41 C446.69,242.19 449.06,242.73 450.85,242.60 C452.65,242.48 454.35,242.75 454.63,243.21 C454.91,243.66 455.50,243.81 455.93,243.54 C456.37,243.27 459.14,243.90 462.09,244.94 C465.05,245.98 467.81,246.62 468.23,246.36 C468.65,246.10 469.00,246.43 469.00,247.11 C469.00,247.78 469.27,248.06 469.60,247.73 C469.94,247.40 471.23,248.22 472.47,249.56 C473.71,250.90 475.24,252.00 475.86,252.00 C476.49,252.00 476.89,252.54 476.75,253.20 C476.61,253.86 478.04,254.92 479.92,255.56 C481.98,256.25 483.45,257.46 483.62,258.60 C483.94,260.77 487.80,264.24 489.04,263.48 C490.14,262.79 493.00,266.98 493.00,269.28 C493.00,270.29 493.45,270.84 494.00,270.50 C494.55,270.16 495.00,270.72 495.00,271.75 C495.00,272.78 495.93,274.62 497.06,275.84 C498.20,277.06 499.18,279.05 499.24,280.28 C499.30,281.50 500.21,283.47 501.26,284.66 C502.53,286.09 503.27,288.61 503.45,292.18 C503.76,298.30 504.73,302.00 506.03,302.00 C507.53,302.00 507.00,314.75 505.46,316.04 C504.58,316.77 504.29,318.22 504.67,320.08 C504.99,321.70 504.73,323.62 504.09,324.39 C503.45,325.16 503.00,326.17 503.08,326.64 C503.56,329.30 502.72,331.83 500.50,334.41 C499.12,336.00 497.94,337.69 497.88,338.16 C497.81,338.62 497.64,339.45 497.50,340.00 C497.36,340.55 497.19,341.86 497.12,342.92 C497.06,343.97 495.42,346.33 493.48,348.15 C491.55,349.98 490.16,351.98 490.40,352.61 C490.95,354.02 483.96,360.99 481.96,361.03 C480.02,361.07 476.86,363.53 477.68,364.35 C478.04,364.71 477.58,365.00 476.67,365.00 C475.75,365.00 475.00,365.35 475.00,365.77 C475.00,366.20 473.42,367.39 471.50,368.43 C469.58,369.47 468.00,370.68 468.00,371.13 C468.00,371.57 467.36,371.69 466.57,371.39 C465.78,371.09 463.65,371.54 461.82,372.40 C457.28,374.54 452.21,375.17 440.84,375.02 C435.03,374.95 430.92,375.32 430.53,375.95 C429.68,377.32 427.69,377.29 426.27,375.87 ZM 324.24 214.43 C327.63,214.98 330.78,215.42 332.22,215.52 C336.59,215.84 345.25,219.78 344.44,221.09 C344.13,221.59 344.70,222.00 345.70,222.00 C346.70,222.00 348.08,222.90 348.77,224.00 C349.45,225.10 350.82,226.00 351.80,226.00 C353.93,226.00 362.00,233.95 362.00,236.04 C362.00,236.85 363.35,238.78 365.00,240.34 C366.75,241.99 368.00,244.19 368.00,245.63 C368.00,246.98 369.11,250.18 370.47,252.73 C371.35,254.39 372.04,255.96 372.68,257.96 C370.92,252.95 367.92,247.88 362.92,240.50 C356.14,230.48 344.40,221.16 333.35,217.03 C330.49,215.96 327.42,215.09 324.24,214.43 ZM 248.76 251.22 C250.01,248.72 250.72,246.43 250.43,245.68 C250.10,244.81 250.54,243.07 251.41,241.82 C252.28,240.58 253.02,239.99 253.04,240.53 C253.05,241.06 253.69,240.38 254.45,239.01 C255.20,237.64 255.66,236.25 255.45,235.92 C254.97,235.15 260.52,229.77 261.66,229.90 C262.12,229.96 262.51,229.66 262.52,229.25 C262.55,227.63 264.20,226.00 265.81,226.00 C266.74,226.00 268.78,224.65 270.34,223.00 C271.90,221.35 274.14,219.95 275.33,219.88 C278.39,219.72 279.19,219.57 281.88,218.62 C281.89,218.62 281.89,218.62 281.90,218.61 C268.53,225.04 256.75,236.10 249.96,248.93 C249.55,249.71 249.15,250.48 248.76,251.22 ZM 265.07 328.00 C264.02,327.35 262.55,326.96 261.49,327.36 C260.01,327.93 257.64,325.70 258.65,324.68 C259.52,323.82 256.98,320.89 255.93,321.54 C254.81,322.24 251.72,316.18 252.35,314.53 C252.62,313.83 251.79,312.77 250.51,312.19 C247.86,310.98 246.06,306.81 247.92,306.19 C248.46,306.01 248.60,305.60 248.32,304.86 C248.98,306.13 249.72,307.55 250.50,309.02 C254.44,316.45 259.34,322.81 265.07,328.00 ZM 245.25 297.70 C244.91,296.32 244.14,294.71 243.44,293.93 C241.81,292.13 241.49,288.00 242.98,288.00 C243.57,288.00 243.51,287.02 242.82,285.50 C242.19,284.12 241.30,283.00 240.84,283.00 C239.44,283.00 239.90,275.33 241.37,274.11 C242.20,273.42 243.02,271.01 243.63,267.70 C243.19,274.87 243.26,284.76 244.08,290.00 C244.57,293.18 245.01,296.07 245.25,297.70 ZM 139.00 488.44 C139.00,484.38 141.38,473.12 142.14,473.59 C143.36,474.34 143.21,478.00 141.96,478.00 C141.25,478.00 141.25,478.60 141.96,479.93 C142.73,481.36 142.63,482.23 141.59,483.27 C140.75,484.11 140.51,485.21 141.00,486.00 C141.93,487.50 141.24,490.00 139.89,490.00 C139.40,490.00 139.00,489.30 139.00,488.44 ZM 165.20 663.46 C161.53,656.01 161.49,655.87 163.46,656.62 C164.88,657.17 166.60,660.72 166.20,662.25 C166.09,662.66 166.48,663.00 167.06,663.00 C167.64,663.00 167.84,663.45 167.50,664.00 C167.16,664.55 167.31,665.00 167.83,665.00 C169.15,665.00 169.97,667.44 169.11,668.82 C168.70,669.48 167.07,667.24 165.20,663.46 ZM 132.07 408.45 C128.61,403.63 128.23,400.18 131.56,403.76 C134.57,407.01 137.13,411.80 136.16,412.40 C135.68,412.69 133.84,410.92 132.07,408.45 ZM 153.57 635.97 C149.73,625.45 149.49,623.63 152.29,626.43 C153.14,627.28 153.59,628.86 153.29,629.98 C153.00,631.09 153.22,632.00 153.78,632.00 C155.24,632.00 155.96,634.45 154.96,636.06 C154.24,637.22 154.02,637.21 153.57,635.97 ZM 117.71 386.34 C116.17,383.81 115.05,381.37 115.21,380.90 C115.64,379.66 118.10,381.46 118.35,383.21 C118.48,384.04 119.33,385.47 120.25,386.39 C121.16,387.31 121.66,388.72 121.35,389.53 C121.04,390.34 120.72,390.99 120.64,390.97 C120.56,390.95 119.24,388.87 117.71,386.34 ZM 109.65 372.93 C108.09,370.14 106.98,367.69 107.18,367.48 C107.89,366.78 110.13,368.70 110.35,370.21 C110.48,371.04 111.33,372.47 112.25,373.39 C113.16,374.31 113.66,375.72 113.35,376.53 C113.04,377.34 112.72,378.00 112.64,378.00 C112.56,378.00 111.22,375.72 109.65,372.93 ZM 361.55 562.47 C358.91,559.02 358.27,555.10 360.82,558.08 C364.96,562.91 365.90,564.35 365.42,565.13 C364.63,566.42 364.48,566.31 361.55,562.47 ZM 707.39 354.25 C706.47,353.33 705.04,352.48 704.21,352.35 C702.68,352.13 700.78,349.89 701.50,349.17 C701.72,348.95 704.21,350.11 707.04,351.74 C710.73,353.87 711.74,354.89 710.62,355.32 C709.76,355.65 708.31,355.16 707.39,354.25 ZM 562.54 285.39 C561.70,284.56 560.60,284.13 560.09,284.45 C559.09,285.06 555.59,282.08 556.38,281.28 C556.65,281.02 559.25,281.89 562.16,283.21 C566.10,285.00 567.02,285.78 565.76,286.26 C564.79,286.64 563.40,286.26 562.54,285.39 ZM 225.69 198.36 C225.25,197.92 223.05,197.34 220.86,197.08 C220.50,197.03 219.98,196.38 219.69,195.63 C219.26,194.50 219.91,194.44 223.33,195.26 C228.21,196.45 229.72,197.51 227.66,198.30 C226.86,198.61 225.97,198.63 225.69,198.36 ZM 619.59 479.64 C620.33,477.69 625.32,475.96 627.07,477.04 C628.10,477.68 627.84,478.11 625.97,478.81 C619.96,481.06 618.99,481.18 619.59,479.64 ZM 632.50 475.31 C635.16,472.77 637.38,472.00 639.06,473.04 C640.47,473.91 639.20,474.63 633.00,476.48 C630.51,477.22 630.51,477.22 632.50,475.31 ZM 577.22 573.75 C575.84,572.07 574.82,565.23 575.85,564.59 C576.31,564.31 577.13,566.54 577.67,569.54 C578.75,575.48 578.73,575.59 577.22,573.75 ZM 720.58 363.44 C719.71,362.57 719.00,361.44 719.00,360.93 C719.00,360.42 718.35,360.00 717.56,360.00 C716.77,360.00 715.84,359.55 715.50,359.00 C714.25,356.97 717.60,358.14 720.90,360.87 C722.93,362.56 723.87,363.96 723.23,364.36 C722.64,364.72 721.45,364.31 720.58,363.44 ZM 531.84 140.25 C531.12,136.79 531.48,134.00 532.65,134.00 C533.53,134.00 534.00,135.23 534.00,137.50 C534.00,139.43 533.55,141.00 533.00,141.00 C532.45,141.00 531.93,140.66 531.84,140.25 ZM 728.00 431.73 C728.00,430.15 730.40,426.06 731.60,425.60 C734.23,424.59 733.88,426.74 730.96,429.53 C729.33,431.10 728.00,432.09 728.00,431.73 ZM 398.07 607.57 C396.81,606.24 395.95,604.65 396.15,604.04 C396.73,602.32 399.95,605.10 400.45,607.75 C400.99,610.56 400.87,610.55 398.07,607.57 ZM 459.50 667.00 C457.93,665.27 457.90,665.00 459.27,665.00 C460.70,665.00 464.00,667.50 464.00,668.57 C464.00,669.77 461.09,668.75 459.50,667.00 ZM 637.28 318.13 C635.01,315.87 636.57,315.73 640.66,317.83 C644.43,319.77 644.44,319.81 641.57,319.66 C639.97,319.57 638.03,318.88 637.28,318.13 ZM 283.26 217.98 C283.68,217.65 283.55,217.34 282.93,216.96 C281.54,216.10 283.18,215.56 295.32,214.02 C293.23,214.43 291.23,214.95 289.36,215.58 C287.30,216.27 285.26,217.07 283.26,217.98 ZM 596.61 486.58 C597.33,484.69 599.36,483.98 601.06,485.04 C602.10,485.68 601.75,486.14 599.65,486.94 C596.09,488.30 595.96,488.28 596.61,486.58 ZM 606.61 483.58 C607.33,481.69 609.36,480.98 611.06,482.04 C612.10,482.68 611.75,483.14 609.65,483.94 C606.09,485.30 605.96,485.28 606.61,483.58 ZM 142.79 466.00 C143.26,462.78 144.43,462.08 145.35,464.47 C145.66,465.28 145.23,466.63 144.39,467.47 C142.34,469.52 142.28,469.46 142.79,466.00 ZM 407.53 618.03 C405.26,615.52 407.22,614.59 409.89,616.91 C411.59,618.38 411.74,618.89 410.61,619.32 C409.83,619.62 408.44,619.04 407.53,618.03 ZM 126.22 399.97 C124.59,397.37 124.68,395.94 126.42,396.61 C128.21,397.29 129.03,399.33 128.12,400.80 C127.67,401.54 127.02,401.26 126.22,399.97 ZM 242.48 202.34 C240.39,200.25 241.12,199.71 244.36,200.95 C247.38,202.09 247.60,202.56 245.53,203.35 C244.72,203.66 243.35,203.21 242.48,202.34 ZM 136.00 539.44 C136.00,537.32 136.40,536.13 137.00,536.50 C137.55,536.84 138.00,538.44 138.00,540.06 C138.00,541.68 137.55,543.00 137.00,543.00 C136.45,543.00 136.00,541.40 136.00,539.44 ZM 280.55 654.08 C279.79,652.85 282.90,649.82 284.15,650.59 C284.73,650.95 284.43,651.97 283.41,653.10 C281.44,655.28 281.32,655.32 280.55,654.08 ZM 387.58 152.13 C387.29,151.66 387.89,150.50 388.92,149.57 C391.26,147.46 392.67,149.19 390.44,151.42 C388.62,153.24 388.31,153.32 387.58,152.13 ZM 146.55 612.72 C146.25,611.77 145.80,610.35 145.55,609.55 C145.27,608.64 145.61,608.30 146.47,608.63 C148.32,609.34 149.00,611.37 147.96,613.06 C147.27,614.18 147.00,614.12 146.55,612.72 ZM 62.55 271.72 C62.25,270.77 61.80,269.35 61.55,268.55 C61.27,267.64 61.61,267.30 62.47,267.63 C64.32,268.34 65.00,270.37 63.96,272.06 C63.27,273.18 63.00,273.12 62.55,271.72 ZM 569.25 537.34 C567.84,536.77 567.52,532.00 568.89,532.00 C569.37,532.00 569.97,533.35 570.21,535.00 C570.46,536.65 570.62,537.96 570.58,537.92 C570.53,537.88 569.94,537.62 569.25,537.34 ZM 462.13 98.08 C461.34,97.59 461.81,96.95 463.52,96.17 C466.80,94.68 467.05,94.70 466.39,96.42 C465.70,98.24 463.66,99.03 462.13,98.08 ZM 691.00 452.57 C691.00,451.22 694.30,449.18 695.65,449.69 C696.95,450.20 696.82,450.54 694.87,451.62 C692.43,452.97 691.00,453.32 691.00,452.57 ZM 675.00 459.57 C675.00,458.22 678.30,456.18 679.65,456.69 C680.95,457.20 680.82,457.54 678.87,458.62 C676.43,459.97 675.00,460.32 675.00,459.57 ZM 369.16 572.76 C367.53,571.13 367.71,568.95 369.42,569.61 C371.13,570.27 372.23,572.74 371.12,573.43 C370.68,573.70 369.80,573.40 369.16,572.76 ZM 391.16 599.76 C389.53,598.13 389.71,595.95 391.42,596.61 C393.13,597.27 394.23,599.74 393.12,600.43 C392.68,600.70 391.80,600.40 391.16,599.76 ZM 402.61 139.27 C401.77,138.43 403.99,136.00 405.59,136.00 C406.34,136.00 406.70,136.63 406.39,137.42 C405.77,139.04 403.49,140.16 402.61,139.27 ZM 396.61 144.27 C395.77,143.43 397.99,141.00 399.59,141.00 C400.34,141.00 400.70,141.63 400.39,142.42 C399.77,144.04 397.49,145.16 396.61,144.27 ZM 443.06 652.56 C441.23,650.61 441.02,650.00 442.20,650.00 C444.08,650.00 446.33,652.51 445.82,654.03 C445.62,654.63 444.38,653.97 443.06,652.56 ZM 189.73 694.91 C187.72,693.74 188.33,691.81 190.45,692.62 C191.94,693.19 193.43,696.02 192.22,695.97 C191.82,695.95 190.70,695.48 189.73,694.91 ZM 654.48 326.34 C652.27,324.13 653.32,323.58 656.54,325.27 C658.71,326.40 658.93,326.81 657.66,327.30 C656.78,327.64 655.35,327.21 654.48,326.34 ZM 693.48 346.34 C691.27,344.13 692.32,343.58 695.54,345.27 C697.71,346.40 697.93,346.81 696.66,347.30 C695.78,347.64 694.35,347.21 693.48,346.34 ZM 590.48 297.34 C588.27,295.13 589.32,294.58 592.54,296.27 C594.71,297.40 594.93,297.81 593.66,298.30 C592.78,298.64 591.35,298.21 590.48,297.34 ZM 740.75 409.74 C740.16,408.13 740.91,406.00 742.08,406.00 C743.26,406.00 743.28,409.71 742.10,410.44 C741.61,410.74 741.00,410.43 740.75,409.74 ZM 420.50 125.01 C420.20,124.51 420.83,123.63 421.91,123.05 C424.53,121.65 425.04,121.73 424.39,123.42 C423.71,125.21 421.25,126.21 420.50,125.01 ZM 385.57 593.08 C384.63,592.04 384.29,590.94 384.80,590.62 C385.31,590.31 386.50,590.89 387.43,591.92 C388.37,592.96 388.71,594.06 388.20,594.38 C387.69,594.69 386.50,594.11 385.57,593.08 ZM 313.61 616.18 C313.26,615.62 313.75,614.39 314.70,613.45 C315.92,612.22 316.53,612.08 316.82,612.96 C317.05,613.64 316.56,614.87 315.73,615.69 C314.80,616.63 314.00,616.81 313.61,616.18 ZM 303.61 628.18 C303.26,627.62 303.75,626.39 304.70,625.45 C305.92,624.22 306.53,624.08 306.82,624.96 C307.05,625.64 306.56,626.87 305.73,627.69 C304.80,628.63 304.00,628.81 303.61,628.18 ZM 344.61 575.18 C344.26,574.62 344.75,573.39 345.70,572.45 C346.92,571.22 347.53,571.08 347.82,571.96 C348.05,572.64 347.56,573.87 346.73,574.69 C345.80,575.63 345.00,575.81 344.61,575.18 ZM 321.61 606.18 C321.26,605.62 321.75,604.39 322.70,603.45 C323.92,602.22 324.53,602.08 324.82,602.96 C325.05,603.64 324.56,604.87 323.73,605.69 C322.80,606.63 322.00,606.81 321.61,606.18 ZM 317.61 611.18 C317.26,610.62 317.75,609.39 318.70,608.45 C319.92,607.22 320.53,607.08 320.82,607.96 C321.05,608.64 320.56,609.87 319.73,610.69 C318.80,611.63 318.00,611.81 317.61,611.18 ZM 308.61 622.18 C308.26,621.62 308.75,620.39 309.70,619.45 C310.92,618.22 311.53,618.08 311.82,618.96 C312.05,619.64 311.56,620.87 310.73,621.69 C309.80,622.63 309.00,622.81 308.61,622.18 ZM 297.61 635.18 C297.26,634.62 297.75,633.39 298.70,632.45 C299.92,631.22 300.53,631.08 300.82,631.96 C301.05,632.64 300.56,633.87 299.73,634.69 C298.80,635.63 298.00,635.81 297.61,635.18 ZM 290.61 643.18 C290.26,642.62 290.75,641.39 291.70,640.45 C292.92,639.22 293.53,639.08 293.82,639.96 C294.05,640.64 293.56,641.87 292.73,642.69 C291.80,643.63 291.00,643.81 290.61,643.18 ZM 142.80 598.09 C142.49,596.01 142.74,595.35 143.69,595.71 C145.17,596.28 145.47,599.59 144.11,600.43 C143.62,600.73 143.03,599.68 142.80,598.09 ZM 606.58 304.44 C603.88,301.73 605.20,300.96 608.46,303.35 C609.63,304.21 609.91,304.93 609.23,305.36 C608.64,305.72 607.45,305.31 606.58,304.44 ZM 646.56 470.10 C646.26,469.61 646.57,469.00 647.26,468.75 C649.01,468.11 651.12,468.99 650.45,470.09 C649.72,471.26 647.28,471.27 646.56,470.10 ZM 470.13 675.66 C469.52,674.92 469.31,674.02 469.67,673.67 C470.42,672.92 473.00,674.82 473.00,676.12 C473.00,677.44 471.39,677.18 470.13,675.66 ZM 137.00 558.56 C137.00,557.15 137.35,556.00 137.79,556.00 C138.92,556.00 139.05,559.85 137.94,560.54 C137.42,560.86 137.00,559.97 137.00,558.56 ZM 136.00 525.33 C136.00,522.40 137.21,522.89 137.69,526.03 C137.85,527.11 137.54,528.00 136.99,528.00 C136.45,528.00 136.00,526.80 136.00,525.33 ZM 427.09 637.61 C426.28,636.63 426.23,635.97 426.96,635.53 C427.54,635.17 428.29,635.60 428.63,636.48 C429.47,638.68 428.55,639.36 427.09,637.61 ZM 586.53 635.71 C586.10,634.72 586.03,633.63 586.38,633.29 C587.39,632.27 588.21,633.70 587.74,635.67 C587.33,637.42 587.27,637.42 586.53,635.71 ZM 304.18 212.93 C305.35,212.79 306.58,212.64 307.87,212.49 C309.65,212.28 314.71,212.76 319.31,213.57 C314.29,212.87 309.13,212.65 304.18,212.93 ZM 245.51 257.80 C245.63,257.16 246.63,255.08 248.01,252.63 C248.12,252.44 248.23,252.25 248.33,252.06 C246.95,254.73 245.88,256.91 245.51,257.80 ZM 247.74 303.75 C247.66,303.61 247.57,303.46 247.47,303.31 C246.91,302.46 246.34,301.25 245.91,300.11 C246.32,300.94 246.95,302.21 247.74,303.75 Z" fill="rgba(255,177,0,1)"/>
<path d="M 347.58 440.81 C336.26,440.11 330.95,438.60 321.00,433.40 C304.61,424.85 292.05,410.09 285.87,392.12 C283.23,384.45 283.43,383.53 288.31,380.67 C292.80,378.04 301.00,369.83 301.00,367.97 C301.00,366.82 295.17,370.64 292.83,372.97 C293.57,372.12 294.77,371.19 296.60,369.93 C300.67,367.13 301.14,366.43 300.63,363.92 C300.00,360.76 300.87,359.69 303.01,361.00 C306.98,363.46 300.54,377.54 294.74,379.09 C293.27,379.49 290.91,381.09 289.50,382.65 C287.47,384.92 287.03,386.26 287.37,389.22 C287.61,391.27 288.53,393.67 289.41,394.55 C290.29,395.44 290.76,396.57 290.45,397.08 C290.14,397.59 290.39,398.00 291.00,398.00 C291.61,398.00 291.84,398.45 291.50,399.00 C291.16,399.55 291.39,400.00 292.00,400.00 C292.61,400.00 292.86,400.41 292.55,400.91 C292.24,401.42 292.46,401.99 293.05,402.18 C293.63,402.38 294.22,403.30 294.36,404.23 C294.49,405.17 295.82,407.29 297.30,408.96 C298.79,410.62 300.00,412.91 300.00,414.05 C300.00,415.19 300.38,415.89 300.84,415.60 C302.30,414.70 306.16,418.14 307.63,421.67 C308.42,423.54 309.61,424.95 310.28,424.79 C311.63,424.49 321.10,429.71 322.18,431.37 C322.56,431.94 322.65,432.76 322.38,433.19 C322.11,433.62 322.67,433.68 323.61,433.32 C324.84,432.85 325.10,433.02 324.54,433.93 C323.92,434.93 324.21,434.96 325.88,434.06 C327.11,433.41 328.00,433.33 328.00,433.89 C328.00,435.13 333.14,436.75 339.69,437.58 C342.67,437.96 345.10,438.83 345.41,439.62 C345.63,440.19 346.46,440.59 347.58,440.81 ZM 442.22 423.38 C442.47,423.61 442.71,423.85 442.92,424.11 L 444.90 426.50 L 446.49 424.28 C446.28,424.88 447.06,425.00 449.41,425.00 C453.17,425.00 457.45,422.88 458.33,420.59 C458.56,419.97 458.32,419.63 457.56,419.55 C458.05,419.38 458.54,419.06 458.89,418.63 C459.63,417.74 459.73,417.30 459.04,416.91 C459.53,416.87 460.06,416.61 460.78,416.15 C461.41,415.76 461.69,415.28 461.70,414.75 C461.91,415.64 462.00,416.72 462.00,418.01 C462.00,421.33 459.59,424.16 457.46,423.35 C456.65,423.03 454.44,423.95 452.56,425.39 C448.51,428.48 441.11,429.04 438.94,426.42 C438.00,425.29 436.69,425.02 434.32,425.47 C432.51,425.81 429.14,425.52 426.84,424.83 C423.08,423.71 422.56,423.76 421.58,425.41 C419.40,429.09 409.64,438.00 407.79,438.00 C406.74,438.00 406.13,438.40 406.43,438.89 C406.73,439.38 405.41,440.98 403.49,442.44 C401.57,443.90 400.00,444.78 400.00,444.40 C400.00,444.01 399.08,444.52 397.96,445.54 C396.83,446.56 394.92,447.56 393.71,447.77 C392.49,447.98 390.83,448.31 390.00,448.50 C389.28,448.67 388.25,448.83 387.54,448.90 C394.02,446.21 404.87,438.22 413.32,429.79 C422.88,420.26 424.58,419.11 426.55,420.83 C430.33,424.16 443.25,426.14 442.22,423.38 ZM 359.21 442.58 C359.37,441.78 357.41,441.41 350.94,441.01 C353.12,440.89 355.29,440.35 356.07,439.41 C356.94,438.36 358.31,438.01 360.13,438.38 C362.88,438.93 376.85,434.81 377.95,433.13 C378.70,431.96 384.73,428.94 387.27,428.45 C388.41,428.23 390.55,426.89 392.02,425.48 C393.50,424.06 395.11,423.04 395.61,423.20 C396.10,423.37 396.63,423.05 396.80,422.50 C397.32,420.72 403.26,415.09 404.40,415.30 C405.00,415.41 405.51,414.75 405.51,413.84 C405.52,412.93 406.26,411.35 407.15,410.34 C409.08,408.14 408.67,401.39 406.45,398.94 C404.37,396.65 404.63,394.00 406.93,394.00 C407.55,394.00 408.16,394.15 408.73,394.41 C407.99,394.34 407.99,395.11 408.45,397.59 C408.82,399.58 409.84,402.69 410.71,404.52 C412.27,407.80 412.25,407.89 408.60,412.87 C404.12,418.97 396.23,426.19 390.17,429.74 C386.43,431.94 386.00,432.46 387.54,433.03 C384.96,432.83 379.91,435.05 380.57,436.12 C380.58,436.13 380.58,436.14 380.59,436.15 C380.25,435.71 376.99,436.37 373.29,437.63 C369.56,438.91 365.51,439.96 364.31,439.97 C362.34,440.00 361.00,441.11 361.24,442.10 C360.26,441.18 359.93,441.31 359.22,442.57 C359.22,442.57 359.22,442.58 359.21,442.58 ZM 282.67 424.62 C281.37,422.91 279.54,420.04 278.62,418.25 C277.70,416.46 276.48,415.00 275.92,415.00 C275.35,415.00 275.16,414.55 275.50,414.00 C275.84,413.45 275.61,413.00 275.00,413.00 C274.39,413.00 274.16,412.55 274.50,412.00 C274.84,411.45 274.61,411.00 274.00,411.00 C273.39,411.00 273.16,410.55 273.50,410.00 C273.84,409.45 273.61,409.00 273.00,409.00 C272.39,409.00 272.16,408.55 272.50,408.00 C272.84,407.45 272.61,407.00 272.00,407.00 C271.39,407.00 271.12,406.61 271.41,406.14 C271.71,405.67 270.96,402.94 269.75,400.09 C268.20,396.41 267.89,394.69 268.69,394.19 C270.98,392.78 262.84,385.87 258.31,385.38 C254.18,384.94 245.81,380.28 245.98,378.53 C246.01,378.22 245.35,376.93 244.51,375.65 C244.51,375.65 244.51,375.65 244.50,375.65 C246.99,378.24 255.98,382.71 262.79,384.60 C268.59,386.21 268.81,386.40 269.40,390.12 C269.74,392.24 270.95,396.46 272.08,399.49 C273.22,402.52 274.51,405.00 274.96,405.00 C275.26,405.00 275.51,404.92 275.71,404.78 C275.36,406.47 276.14,409.27 277.01,409.77 C277.42,411.60 281.18,417.97 285.24,423.50 C286.59,425.32 287.90,426.91 288.62,427.60 C287.32,428.40 284.75,427.36 282.67,424.62 ZM 342.49 458.34 C341.61,457.47 340.19,457.12 339.01,457.50 C337.92,457.84 336.50,457.81 335.86,457.41 C335.22,457.02 332.86,456.54 330.60,456.34 C325.34,455.87 317.00,453.13 317.00,451.86 C317.00,451.32 316.55,451.16 316.00,451.50 C315.45,451.84 315.00,451.64 315.00,451.06 C315.00,450.48 314.66,450.09 314.25,450.20 C312.72,450.60 309.17,448.88 308.62,447.46 C308.32,446.66 307.35,446.00 306.47,446.00 C305.60,446.00 302.89,444.34 300.47,442.31 C297.34,439.70 296.11,437.95 296.24,436.31 C296.30,435.69 296.44,435.19 296.67,434.83 C297.01,435.36 297.92,436.23 299.50,437.63 C301.70,439.58 305.98,442.68 309.00,444.51 C312.02,446.34 314.62,447.88 314.77,447.92 C314.90,447.96 314.33,446.92 313.45,445.45 C315.33,447.75 319.81,450.52 320.68,449.65 C320.93,449.40 322.97,449.74 325.36,450.41 C322.91,449.73 321.00,449.53 321.00,449.97 C321.00,450.97 328.62,453.65 335.08,454.91 C340.05,455.89 345.00,456.22 345.00,455.57 C345.00,455.37 344.50,454.71 343.83,453.99 C344.02,454.15 344.22,454.33 344.43,454.53 C345.90,455.89 347.56,457.00 348.11,457.00 C349.77,457.00 348.19,458.72 346.00,459.29 C344.88,459.58 343.30,459.16 342.49,458.34 ZM 286.40 363.84 C286.55,364.08 286.73,364.24 286.96,364.34 C286.69,364.36 286.45,364.34 286.26,364.27 C285.07,363.81 284.82,364.08 285.28,365.30 C285.35,365.46 285.39,365.62 285.41,365.78 C284.82,365.16 283.07,365.62 280.93,367.20 C278.45,369.03 276.89,369.44 270.92,369.46 C272.66,369.00 274.76,367.94 275.82,366.95 C277.02,365.83 278.01,365.28 278.02,365.71 C278.02,366.14 278.43,365.87 278.92,365.09 C279.41,364.31 280.87,363.60 282.16,363.50 C283.54,363.40 284.51,362.68 284.51,361.75 C284.53,359.81 287.97,355.87 289.06,356.54 C289.50,356.81 290.14,356.58 290.49,356.02 C291.52,354.35 297.71,354.80 298.39,356.58 C299.31,358.97 299.17,359.19 297.07,358.52 C296.25,358.26 295.39,358.36 294.82,358.74 C295.07,358.14 294.47,358.00 293.06,358.00 C290.45,358.00 285.48,362.35 286.40,363.84 ZM 407.00 389.58 C407.00,387.70 406.44,385.98 405.75,385.74 C403.86,385.11 408.03,377.74 410.51,377.36 C411.60,377.19 413.96,376.76 415.75,376.41 C417.85,376.00 419.00,376.17 419.00,376.89 C419.00,377.50 419.74,378.00 420.64,378.00 C423.38,378.00 424.90,381.00 423.78,384.20 C423.55,384.85 423.27,385.42 422.97,385.87 C422.94,384.86 422.23,383.29 420.93,381.63 C417.90,377.79 410.26,378.27 408.68,382.40 C408.47,382.95 408.69,383.28 409.13,383.43 C408.91,383.52 408.70,383.68 408.55,383.91 C408.23,384.44 408.42,385.14 408.98,385.49 C410.00,386.12 410.25,388.77 409.89,390.75 C409.89,390.32 409.86,389.83 409.81,389.25 C409.64,387.19 409.05,385.50 408.50,385.50 C407.95,385.50 407.36,387.19 407.19,389.25 C407.12,390.15 407.09,390.84 407.13,391.38 C407.04,390.90 407.00,390.30 407.00,389.58 ZM 363.70 457.37 C362.91,456.58 363.34,455.41 364.51,454.24 C364.39,454.39 364.31,454.53 364.27,454.66 C363.84,455.99 375.40,453.77 380.50,451.53 C382.15,450.81 384.59,449.89 385.92,449.49 C386.01,449.46 386.11,449.43 386.20,449.40 C386.13,449.51 386.10,449.63 386.12,449.75 C386.55,452.49 385.78,453.13 382.41,452.84 C379.99,452.64 378.43,453.06 377.64,454.13 C377.00,455.01 374.10,456.24 371.19,456.87 C365.06,458.18 364.55,458.22 363.70,457.37 ZM 451.11 410.43 C449.51,409.72 447.73,410.06 446.28,411.41 C446.37,410.69 445.03,410.28 441.54,409.89 C441.40,409.87 441.26,409.86 441.11,409.84 C441.62,409.69 442.16,409.27 442.92,408.59 C443.79,407.82 447.09,406.87 450.25,406.48 C455.94,405.78 456.63,406.11 456.11,409.27 C456.04,409.70 457.05,410.45 458.36,410.95 C459.78,411.49 460.72,412.27 461.29,413.52 C459.87,411.31 455.03,408.95 450.63,409.12 C448.59,409.19 448.18,409.40 449.43,409.72 C449.93,409.85 450.53,410.11 451.11,410.43 ZM 257.84 362.70 C260.63,364.08 263.69,366.06 264.98,367.70 C265.62,368.52 266.15,369.07 266.72,369.40 C264.62,369.32 262.79,369.14 261.61,368.92 C261.88,368.80 261.95,368.62 261.75,368.42 C261.54,368.20 260.93,368.24 260.22,368.46 C260.21,368.45 260.20,368.44 260.19,368.43 C259.81,367.88 258.20,366.43 256.62,365.22 C253.75,363.01 253.74,363.00 256.12,362.93 C257.35,362.89 257.91,362.86 257.84,362.70 ZM 427.82 405.78 C428.69,404.15 432.20,403.52 434.82,405.50 C435.55,406.05 437.01,407.29 438.07,408.25 C438.78,408.90 439.32,409.35 439.79,409.61 C437.12,409.09 434.09,408.07 432.42,407.09 C430.21,405.78 428.41,405.27 427.82,405.78 ZM 355.00 457.95 C355.00,457.40 355.40,456.67 356.00,455.94 L 359.25 455.97 C360.65,455.98 361.65,455.85 362.26,455.58 C361.95,456.00 361.53,456.47 361.00,457.00 C358.89,459.11 355.00,459.73 355.00,457.95 ZM 427.67 401.33 C428.56,402.23 429.38,402.18 429.51,401.48 C429.53,401.84 429.48,402.20 429.34,402.56 C428.94,403.59 427.87,404.19 426.71,404.28 C427.66,403.89 427.74,403.39 426.99,402.49 C426.41,401.79 425.37,399.26 424.68,396.86 C424.14,395.03 423.47,393.65 422.74,392.87 C423.40,393.50 424.04,394.47 424.41,395.50 C425.01,397.15 426.17,398.65 426.99,398.83 C427.22,398.88 427.43,398.95 427.63,399.03 C426.83,399.25 426.80,400.46 427.67,401.33 ZM 283.05 369.69 C281.39,370.94 279.03,371.97 276.39,372.43 C274.65,372.73 273.16,372.93 271.83,372.99 C272.56,372.88 273.39,372.77 274.26,372.67 C277.46,372.29 280.83,371.09 283.05,369.69 ZM 411.12 396.63 C411.45,397.30 411.55,398.00 411.31,398.63 C411.08,399.24 411.14,399.94 411.44,400.45 C411.13,400.00 410.97,399.41 411.04,398.89 C411.17,397.96 411.20,397.22 411.12,396.63 ZM 448.89 422.31 C449.33,422.11 449.76,422.00 450.13,422.00 C451.08,422.00 452.36,421.52 453.21,420.88 C453.20,420.90 453.19,420.92 453.19,420.94 C452.99,421.52 451.80,422.00 450.54,422.00 C450.02,422.00 449.44,422.12 448.89,422.31 ZM 343.34 443.20 C344.42,444.28 349.61,444.59 353.76,444.25 C349.64,444.67 344.53,444.39 343.34,443.20 ZM 456.56 415.42 C456.95,415.80 457.28,416.11 457.58,416.34 C456.64,415.95 456.09,415.38 455.89,414.54 C456.07,414.85 456.29,415.15 456.56,415.42 ZM 374.00 439.19 C368.33,441.89 365.43,443.08 363.67,443.17 C365.58,442.92 368.82,441.66 374.00,439.19 ZM 302.60 436.53 C301.20,435.30 299.28,434.29 298.05,434.08 C299.16,434.07 300.73,434.89 302.60,436.53 ZM 243.54 371.16 C243.58,369.06 244.14,367.03 245.13,366.42 C244.31,366.93 243.70,369.07 243.54,371.16 ZM 274.96 399.95 C274.97,399.97 274.98,399.98 274.99,399.99 C276.12,401.29 276.52,402.17 276.31,403.15 C276.28,402.17 275.83,400.96 274.96,399.95 ZM 278.01 409.57 C278.94,409.69 281.03,412.00 283.77,415.96 C281.29,412.38 279.45,410.33 278.01,409.57 ZM 453.97 420.22 C454.73,419.65 455.70,419.37 456.32,419.57 C456.27,419.57 456.23,419.58 456.18,419.58 C455.34,419.68 454.54,419.92 453.97,420.22 ZM 252.50 362.00 C251.78,360.83 252.79,360.76 254.52,361.31 C252.88,360.89 251.96,361.12 252.50,362.00 ZM 428.80 420.65 C433.34,420.86 436.41,421.17 438.58,421.70 C436.24,421.21 432.87,420.84 428.80,420.65 ZM 421.00 386.08 C421.00,386.54 421.38,386.93 421.86,386.99 C421.37,387.23 421.00,386.98 421.00,386.08 ZM 411.67 383.06 C411.02,383.50 410.37,383.69 410.02,383.51 C410.54,383.47 411.13,383.32 411.67,383.06 ZM 360.03 452.80 C360.60,452.57 361.10,452.48 361.44,452.62 C361.65,452.69 361.83,452.78 361.99,452.86 C361.47,452.62 360.78,452.60 360.03,452.80 ZM 438.81 412.98 C437.88,412.79 437.11,412.58 436.45,412.35 C436.65,412.42 436.84,412.47 437.02,412.50 C437.66,412.63 438.30,412.80 438.81,412.98 ZM 444.70 412.85 C444.12,413.21 443.46,413.44 442.80,413.51 C443.46,413.35 444.13,413.12 444.70,412.85 ZM 312.66 444.17 C312.32,443.61 311.95,443.03 311.57,442.44 C311.93,442.87 312.32,443.48 312.66,444.17 ZM 455.84 412.33 C455.71,412.20 455.44,412.23 455.11,412.43 C454.79,412.63 454.25,412.55 453.69,412.27 C454.27,412.54 454.86,412.59 455.24,412.35 C455.66,412.09 455.87,412.10 455.84,412.33 ZM 288.44 422.21 C288.86,422.68 289.28,423.96 289.42,425.23 C289.43,425.35 289.44,425.46 289.45,425.57 C289.29,424.23 288.90,422.73 288.44,422.21 ZM 257.13 369.40 C256.53,369.25 255.94,368.78 255.13,367.91 C255.80,368.62 256.54,369.16 257.13,369.40 ZM 436.11 412.23 C434.88,411.75 434.11,411.17 433.54,410.38 C434.06,411.09 435.10,411.82 436.11,412.23 ZM 394.26 429.31 C393.55,429.24 392.86,429.86 392.52,430.93 C392.26,431.75 391.97,432.30 391.52,432.65 C391.96,432.23 392.30,431.62 392.55,430.84 C392.87,429.83 393.55,429.24 394.26,429.31 ZM 293.51 360.32 C293.04,360.83 292.50,361.34 291.91,361.82 C292.18,361.57 292.46,361.32 292.75,361.04 C293.03,360.78 293.28,360.54 293.51,360.32 ZM 414.03 381.43 C413.71,381.45 413.43,381.58 413.13,381.80 C413.33,381.53 413.62,381.40 414.03,381.43 ZM 413.56 406.46 C413.59,408.84 413.17,411.37 412.25,412.83 C413.16,411.39 413.59,408.84 413.56,406.46 ZM 417.55 422.08 C417.32,421.70 417.46,421.13 417.81,420.56 C417.47,421.17 417.35,421.75 417.55,422.08 ZM 419.56 418.81 C420.13,418.46 420.70,418.32 421.08,418.55 C420.75,418.35 420.17,418.47 419.56,418.81 ZM 291.84 375.02 C291.84,375.53 291.86,376.05 291.92,376.37 C291.83,375.88 291.80,375.44 291.84,375.02 ZM 362.42 453.14 C362.69,453.36 362.85,453.60 362.89,453.88 C362.80,453.58 362.63,453.33 362.42,453.14 ZM 428.94 408.75 C428.80,408.65 428.67,408.53 428.55,408.40 C428.29,408.14 428.09,407.89 427.94,407.64 C428.19,408.04 428.55,408.43 428.94,408.75 ZM 264.46 371.63 C264.14,371.49 263.82,371.33 263.50,371.16 C263.47,371.15 263.44,371.13 263.41,371.11 C263.58,371.19 263.74,371.28 263.91,371.36 C264.10,371.45 264.28,371.54 264.46,371.63 ZM 423.71 403.14 C422.48,401.71 421.72,400.61 421.21,399.33 C421.73,400.62 422.49,401.72 423.75,403.18 C423.76,403.20 423.77,403.21 423.78,403.22 C423.76,403.20 423.73,403.17 423.71,403.14 ZM 311.06 441.97 C310.97,441.93 310.88,441.90 310.77,441.86 C310.79,441.87 310.82,441.87 310.84,441.88 C310.90,441.88 310.98,441.92 311.06,441.97 ZM 417.44 382.96 C417.37,382.92 417.30,382.88 417.24,382.84 C417.29,382.87 417.34,382.90 417.40,382.94 C417.41,382.94 417.42,382.95 417.44,382.96 Z" fill="rgba(253,174,0,1)"/>
<path d="M 343.34 443.20 C342.39,442.25 341.53,442.18 340.09,442.95 C338.62,443.74 337.77,443.63 336.64,442.50 C335.82,441.67 333.54,441.00 331.57,441.00 C329.61,441.00 328.00,440.51 328.00,439.92 C328.00,439.32 327.44,439.03 326.75,439.28 C325.24,439.82 319.90,437.24 318.47,435.29 C317.91,434.52 316.78,433.78 315.97,433.66 C314.77,433.46 312.72,432.34 308.17,429.39 C308.00,429.28 307.72,428.35 307.56,427.34 C307.39,426.31 306.52,425.57 305.57,425.65 C303.17,425.86 296.92,419.38 297.65,417.46 C297.98,416.61 297.85,415.99 297.37,416.08 C295.15,416.48 294.15,415.78 293.00,413.00 C292.32,411.35 291.34,410.00 290.82,410.00 C290.30,410.00 290.15,409.57 290.48,409.04 C290.80,408.51 290.19,407.19 289.11,406.11 C286.49,403.49 285.00,400.58 285.00,398.07 C285.00,396.93 284.52,396.00 283.92,396.00 C283.33,396.00 282.98,394.71 283.15,393.13 C283.32,391.54 282.96,389.63 282.36,388.88 C278.90,384.52 281.04,377.88 285.19,380.10 C286.46,380.78 287.00,380.81 286.61,380.18 C285.70,378.71 288.78,375.98 290.57,376.67 C291.40,376.98 292.01,376.85 291.92,376.37 C291.83,375.89 291.82,374.96 291.88,374.30 C292.03,372.76 301.00,366.54 301.00,367.97 C301.00,369.83 292.80,378.04 288.31,380.67 C283.43,383.53 283.23,384.45 285.87,392.12 C292.05,410.09 304.61,424.85 321.00,433.40 C331.28,438.77 336.60,440.20 348.72,440.88 C357.72,441.38 359.77,441.76 359.11,442.83 C357.97,444.67 345.11,444.97 343.34,443.20 ZM 272.08 399.49 C270.95,396.46 269.74,392.24 269.40,390.12 C268.81,386.40 268.59,386.21 262.79,384.60 C255.34,382.53 245.27,377.37 243.98,374.97 C242.94,373.02 243.71,367.30 245.13,366.42 C245.60,366.13 245.74,364.90 245.45,363.66 C246.13,364.19 247.49,363.98 249.00,362.98 C249.62,362.58 249.94,362.31 249.97,362.04 C251.54,363.24 253.35,363.37 252.50,362.00 C252.84,362.55 254.33,362.97 255.81,362.93 C258.21,362.87 258.29,362.77 256.50,362.00 C258.37,362.80 258.34,362.86 256.12,362.93 C253.74,363.00 253.75,363.01 256.62,365.22 C258.20,366.43 259.81,367.88 260.19,368.43 C260.57,368.98 264.69,369.44 269.35,369.46 C276.64,369.49 278.25,369.18 280.93,367.20 C284.06,364.90 286.33,364.96 285.42,367.33 C284.59,369.52 279.22,372.08 274.26,372.67 C271.64,372.98 269.35,373.37 269.17,373.53 C268.98,373.70 266.62,372.72 263.91,371.36 C261.20,370.00 258.57,369.15 258.05,369.47 C257.54,369.78 256.22,369.08 255.12,367.89 C253.97,366.66 252.46,365.99 251.58,366.33 C250.75,366.65 249.29,366.15 248.35,365.21 C246.74,363.60 246.67,363.63 247.23,365.77 C247.57,367.09 247.25,368.61 246.45,369.41 C245.35,370.51 245.32,371.28 246.29,373.38 C246.96,374.81 248.06,375.99 248.74,375.99 C249.42,376.00 253.57,377.71 257.96,379.80 C262.59,382.01 266.50,383.30 267.27,382.87 C269.45,381.65 271.09,383.45 271.54,387.59 C272.40,395.35 273.07,397.78 274.96,399.95 C276.76,402.04 276.77,405.00 274.96,405.00 C274.51,405.00 273.22,402.52 272.08,399.49 ZM 364.27 454.66 C364.67,453.43 368.83,451.13 371.76,450.52 C372.72,450.32 375.30,449.51 377.50,448.73 C379.70,447.94 382.06,447.49 382.75,447.73 C383.44,447.97 384.00,447.71 384.00,447.15 C384.00,446.16 386.60,444.95 388.39,445.10 C388.88,445.14 389.60,444.65 389.99,444.02 C390.38,443.39 391.38,442.77 392.21,442.65 C393.04,442.52 394.45,441.70 395.33,440.81 C396.22,439.92 398.65,438.18 400.72,436.93 C402.80,435.68 407.15,432.04 410.39,428.83 C413.63,425.62 416.70,423.00 417.20,423.00 C417.70,423.00 417.86,422.59 417.55,422.08 C417.24,421.57 417.70,420.45 418.57,419.57 C419.45,418.70 420.57,418.24 421.08,418.55 C421.59,418.86 422.00,418.64 422.00,418.06 C422.00,416.54 425.55,416.75 426.87,418.34 C427.48,419.08 427.78,419.88 427.54,420.13 C427.29,420.37 427.86,420.61 428.80,420.65 C436.24,421.00 441.35,421.95 442.08,423.12 C444.04,426.26 430.45,424.26 426.55,420.83 C424.58,419.11 422.88,420.26 413.32,429.79 C404.11,438.97 392.07,447.63 385.92,449.49 C384.59,449.89 382.15,450.81 380.50,451.53 C375.40,453.77 363.84,455.99 364.27,454.66 ZM 387.60 433.05 C385.99,432.47 386.39,431.96 390.17,429.74 C396.23,426.19 404.12,418.97 408.60,412.87 C412.25,407.89 412.27,407.80 410.71,404.52 C409.84,402.69 408.82,399.58 408.45,397.59 C407.88,394.52 408.02,394.07 409.39,394.59 C411.00,395.21 411.41,396.28 411.04,398.89 C410.93,399.66 411.35,400.60 411.98,400.98 C413.95,402.20 414.12,409.87 412.25,412.83 C410.16,416.11 408.89,417.05 407.63,416.27 C407.08,415.93 406.93,416.37 407.28,417.28 C408.10,419.43 402.87,425.00 400.04,425.00 C398.85,425.00 398.14,425.41 398.45,425.92 C399.28,427.26 396.19,430.01 394.56,429.39 C393.76,429.08 392.92,429.68 392.55,430.84 C391.79,433.22 390.15,433.96 387.60,433.05 ZM 364.74 243.22 C364.62,243.08 364.54,243.00 364.51,243.00 C364.29,243.00 365.22,245.41 366.57,248.36 C367.50,250.40 368.47,253.12 369.12,255.40 C368.53,253.70 367.66,252.39 366.51,251.46 C365.13,250.34 364.00,248.87 364.00,248.18 C364.00,247.50 363.42,246.71 362.71,246.44 C362.00,246.17 361.35,245.02 361.27,243.88 C361.08,241.42 358.09,236.58 357.26,237.40 C356.32,238.35 354.08,235.96 354.61,234.57 C355.22,232.98 350.90,230.05 347.52,229.77 C346.13,229.66 345.00,229.19 345.00,228.72 C345.00,228.26 344.55,228.16 344.00,228.50 C343.45,228.84 343.00,228.61 343.00,228.00 C343.00,227.39 342.60,227.13 342.10,227.44 C341.30,227.93 340.13,226.15 340.01,224.24 C340.00,224.05 339.86,223.86 339.60,223.68 C345.68,225.74 351.04,229.06 356.28,233.85 C359.32,236.63 360.73,237.77 360.60,237.34 C361.43,238.38 362.20,239.44 362.92,240.50 C363.56,241.44 364.17,242.35 364.74,243.22 ZM 280.06 250.22 C282.29,244.31 285.42,239.55 289.99,234.93 C298.27,226.54 310.81,220.99 321.43,221.01 C326.11,221.01 330.34,221.41 334.26,222.23 C332.20,221.91 329.59,221.63 326.50,221.39 C319.21,220.82 317.98,221.01 312.66,223.46 C309.44,224.94 306.59,225.92 306.32,225.65 C305.40,224.73 300.00,227.19 300.00,228.53 C300.00,229.26 299.00,230.00 297.78,230.18 C296.55,230.36 295.04,231.53 294.41,232.79 C292.89,235.85 288.88,240.05 288.00,239.50 C286.83,238.78 282.75,243.75 282.49,246.21 C282.10,249.99 282.04,250.14 281.08,249.55 C280.78,249.36 280.43,249.62 280.06,250.22 ZM 478.57 336.39 C481.03,334.51 482.84,332.65 482.63,331.81 C482.40,330.88 483.07,329.34 484.11,328.40 C485.15,327.46 486.00,327.05 486.00,327.50 C486.00,327.95 486.85,327.54 487.89,326.60 C489.55,325.09 491.50,319.79 491.13,317.75 C491.06,317.34 491.40,317.00 491.88,317.00 C492.36,317.00 493.33,315.54 494.04,313.75 C494.74,311.96 496.26,309.72 497.41,308.76 C497.69,308.52 497.93,308.31 498.12,308.12 C497.37,311.35 496.43,314.50 495.49,316.62 C492.29,323.85 487.28,329.99 480.45,335.03 C479.80,335.52 479.17,335.97 478.57,336.39 ZM 439.79 413.46 C439.51,413.17 438.26,412.74 437.02,412.50 C435.78,412.27 434.22,411.31 433.54,410.38 C432.86,409.45 431.82,408.99 431.23,409.36 C429.77,410.26 426.60,407.00 427.79,405.81 C428.35,405.25 430.17,405.76 432.42,407.09 C434.47,408.29 438.57,409.55 441.54,409.89 C445.59,410.35 446.74,410.82 446.14,411.79 C445.30,413.14 440.69,414.35 439.79,413.46 ZM 285.24 423.50 C280.36,416.85 275.91,408.99 277.20,409.26 C278.87,409.61 281.13,412.02 284.50,417.03 C286.15,419.49 287.87,421.77 288.32,422.10 C289.30,422.82 290.00,428.02 289.11,427.96 C288.78,427.94 287.04,425.93 285.24,423.50 ZM 335.08 454.91 C328.62,453.65 321.00,450.97 321.00,449.97 C321.00,449.50 323.22,449.77 325.94,450.57 C328.66,451.38 332.33,451.93 334.11,451.79 C335.97,451.65 337.52,452.07 337.76,452.77 C338.04,453.63 338.70,453.70 340.01,452.99 C341.37,452.27 342.28,452.42 343.43,453.57 C344.29,454.44 345.00,455.34 345.00,455.57 C345.00,456.22 340.05,455.89 335.08,454.91 ZM 309.00 444.51 C305.98,442.68 301.70,439.58 299.50,437.63 C296.08,434.60 295.81,434.08 297.60,434.04 C298.76,434.02 301.01,435.14 302.60,436.53 C307.65,440.93 308.35,441.43 309.78,441.64 C310.55,441.76 311.28,442.00 311.39,442.17 C313.27,445.07 314.99,447.98 314.77,447.92 C314.62,447.88 312.02,446.34 309.00,444.51 ZM 406.32 307.41 C407.46,312.13 409.16,316.95 409.82,316.86 C411.81,316.58 412.89,317.14 412.51,318.25 C411.99,319.80 415.27,326.69 416.20,326.00 C416.92,325.48 423.95,331.84 423.83,332.90 C423.60,334.91 424.15,336.03 425.08,335.45 C425.67,335.08 426.83,335.73 427.64,336.90 C428.46,338.06 430.50,339.73 432.19,340.60 C432.27,340.64 432.34,340.67 432.41,340.71 C431.72,340.40 431.06,340.08 430.42,339.74 C424.54,336.65 416.96,329.91 413.52,324.72 C409.89,319.24 407.49,313.47 406.32,307.41 ZM 333.93 313.13 C334.48,312.10 336.18,311.01 337.71,310.70 C339.25,310.39 341.43,309.27 342.57,308.20 C343.90,306.95 345.77,306.36 347.84,306.52 C350.29,306.71 350.81,306.48 350.04,305.54 C349.28,304.63 350.05,303.97 353.06,302.98 C354.76,302.42 355.98,301.89 356.83,301.30 C355.80,302.36 354.78,303.31 353.83,304.07 C350.90,306.40 345.58,309.70 342.00,311.40 C338.17,313.23 336.31,313.98 332.78,314.29 C333.33,314.02 333.66,313.64 333.93,313.13 ZM 421.00 386.08 C421.00,385.58 419.38,384.16 417.40,382.94 C414.82,381.34 413.59,381.04 413.07,381.88 C411.94,383.71 407.99,384.18 408.68,382.40 C410.26,378.27 417.90,377.79 420.93,381.63 C423.14,384.44 423.65,387.00 422.00,387.00 C421.45,387.00 421.00,386.59 421.00,386.08 ZM 423.75 403.18 C421.43,400.48 420.78,399.00 420.28,395.30 C419.88,392.35 420.09,391.87 421.61,392.16 C422.76,392.38 423.88,394.10 424.68,396.86 C425.37,399.26 426.41,401.79 426.99,402.49 C427.76,403.41 427.66,403.92 426.62,404.32 C425.83,404.62 424.54,404.11 423.75,403.18 ZM 361.95 442.97 C360.23,441.90 361.72,440.00 364.31,439.97 C365.51,439.96 369.56,438.91 373.29,437.63 C377.02,436.36 380.31,435.70 380.60,436.16 C380.88,436.62 380.53,437.01 379.81,437.02 C379.09,437.03 376.48,438.01 374.00,439.19 C366.70,442.67 363.23,443.76 361.95,442.97 ZM 456.56 415.42 C455.69,414.55 455.28,413.36 455.65,412.76 C456.02,412.16 455.84,411.98 455.24,412.35 C454.64,412.72 453.53,412.39 452.76,411.62 C451.99,410.85 450.49,409.99 449.43,409.72 C448.18,409.40 448.59,409.19 450.63,409.12 C453.55,409.01 456.66,410.01 458.84,411.34 C458.74,411.72 458.86,412.46 459.34,413.49 C459.90,414.69 460.63,415.71 461.08,415.94 C460.99,416.01 460.89,416.09 460.78,416.15 C458.96,417.31 458.35,417.21 456.56,415.42 ZM 447.00 423.50 C447.68,422.67 449.28,422.00 450.54,422.00 C451.80,422.00 452.99,421.52 453.19,420.94 C453.38,420.35 454.73,419.74 456.18,419.58 C458.01,419.38 458.67,419.69 458.33,420.59 C457.45,422.88 453.17,425.00 449.41,425.00 C446.27,425.00 445.93,424.79 447.00,423.50 ZM 367.86 284.01 C367.77,284.37 367.69,284.72 367.62,285.04 C366.88,288.45 362.57,295.00 358.16,299.89 C358.38,299.48 358.51,299.02 358.57,298.50 C358.64,297.95 358.76,296.97 358.85,296.32 C358.93,295.67 359.83,294.87 360.85,294.55 C362.10,294.15 362.67,293.07 362.60,291.23 C362.49,288.28 364.66,285.00 366.72,285.00 C367.21,285.00 367.64,284.60 367.86,284.01 ZM 286.40 363.84 C285.48,362.35 290.45,358.00 293.06,358.00 C295.55,358.00 295.50,358.45 292.75,361.04 C289.33,364.27 287.24,365.19 286.40,363.84 ZM 447.65 343.48 C448.37,341.59 455.02,341.78 456.50,343.73 C456.79,344.10 457.09,344.34 457.51,344.45 C454.19,344.84 450.62,344.84 447.05,344.48 C447.28,344.22 447.50,343.87 447.65,343.48 ZM 277.68 277.42 C277.60,277.08 277.52,276.73 277.45,276.38 C275.82,268.75 275.82,267.76 277.39,259.88 C277.50,259.31 277.62,258.76 277.74,258.21 C277.65,258.68 277.58,259.16 277.50,259.65 C277.11,262.20 277.27,264.05 277.93,264.46 C279.35,265.33 279.29,268.56 277.82,270.92 C276.98,272.25 276.93,273.81 277.68,277.42 ZM 485.91 264.48 C483.89,262.66 481.55,261.52 475.77,259.17 C474.05,258.47 473.24,257.54 473.58,256.65 C473.76,256.17 473.54,255.71 472.98,255.25 C477.79,257.50 482.17,260.65 485.91,264.48 ZM 288.90 299.35 C284.71,294.78 281.54,289.42 279.38,283.28 C279.53,283.56 279.65,283.68 279.74,283.59 C280.55,282.78 283.10,288.03 282.42,289.13 C282.11,289.64 282.22,289.99 282.68,289.91 C284.89,289.52 285.59,290.26 285.82,293.24 C285.95,294.97 287.27,297.36 288.90,299.35 ZM 316.13 314.37 C311.80,314.10 309.95,313.28 304.71,310.78 C303.68,310.29 302.69,309.78 301.72,309.25 C303.49,310.14 305.47,310.81 306.38,310.58 C308.40,310.08 316.00,312.97 316.00,314.24 C316.00,314.28 316.05,314.33 316.13,314.37 ZM 407.19 389.25 C407.36,387.19 407.95,385.50 408.50,385.50 C409.05,385.50 409.64,387.19 409.81,389.25 C410.05,392.17 409.76,393.00 408.50,393.00 C407.24,393.00 406.95,392.17 407.19,389.25 ZM 357.80 454.02 C360.24,451.98 363.00,452.29 363.00,454.61 C363.00,455.56 361.80,455.99 359.25,455.97 L 355.50 455.93 ZM 299.95 308.24 C296.71,306.31 293.80,304.13 291.22,301.69 C292.22,302.50 293.18,303.02 293.95,303.03 C295.89,303.07 299.17,305.49 298.37,306.29 C297.99,306.68 298.75,307.45 299.95,308.24 ZM 498.50 306.40 C498.42,306.32 498.31,306.24 498.19,306.16 C496.73,305.21 497.56,300.00 499.17,300.00 C499.69,300.00 499.78,298.45 499.45,295.46 C499.49,295.60 499.52,295.71 499.55,295.80 C500.03,297.25 499.49,301.73 498.50,306.40 ZM 434.54 341.59 C435.31,341.75 435.72,341.49 436.15,340.84 C436.88,339.74 437.26,339.79 438.27,341.09 C438.91,341.91 440.82,343.03 442.74,343.86 C439.89,343.33 437.12,342.56 434.54,341.59 ZM 309.85 212.83 L 309.81 212.83 C297.86,212.83 291.08,214.39 280.12,219.66 C278.21,220.58 276.34,221.61 274.51,222.74 C279.21,219.74 284.22,217.30 289.36,215.58 C295.28,213.59 302.48,212.69 309.85,212.83 ZM 344.58 222.83 C337.46,218.43 329.37,215.32 321.01,213.83 C325.35,214.53 329.54,215.60 333.35,217.03 C337.09,218.43 340.90,220.42 344.58,222.83 ZM 466.17 252.78 C460.38,251.53 452.34,250.83 446.17,251.32 C451.17,250.79 456.56,251.02 462.45,251.99 C463.71,252.19 464.95,252.46 466.17,252.78 ZM 439.65 252.50 C433.84,254.15 428.15,257.17 423.21,261.06 C428.27,256.89 433.68,254.06 439.65,252.50 ZM 409.77 277.81 C408.07,281.74 406.69,287.06 405.93,292.07 C406.04,291.20 406.17,290.33 406.33,289.44 C407.12,285.04 408.21,281.26 409.77,277.81 ZM 368.98 280.20 C368.90,280.48 368.81,280.75 368.72,281.00 C368.52,281.55 368.23,282.53 367.97,283.54 C367.99,283.42 368.00,283.29 368.00,283.17 C368.00,282.16 368.30,281.03 368.67,280.67 C368.78,280.56 368.88,280.40 368.98,280.20 ZM 375.08 275.68 C375.02,267.63 374.29,262.20 372.28,256.88 C374.43,262.42 375.02,267.69 375.08,275.68 ZM 462.91 343.39 C462.47,343.52 462.02,343.64 461.56,343.75 C461.70,343.70 461.85,343.66 462.00,343.61 C463.69,343.07 465.69,342.48 467.23,342.07 C465.94,342.50 464.52,342.93 462.91,343.39 ZM 370.06 260.20 C370.44,263.47 370.54,267.15 370.37,270.62 C370.49,267.18 370.40,263.41 370.06,260.20 ZM 246.08 360.86 C246.60,360.47 247.31,360.37 248.07,360.65 C247.36,360.48 246.64,360.57 246.08,360.86 ZM 461.22 413.41 C461.43,413.72 461.58,414.03 461.65,414.33 C461.53,414.06 461.39,413.76 461.22,413.41 Z" fill="rgba(1,0,0,1)"/>
<path d="M 422.67 372.93 C403.89,368.32 389.81,357.31 379.69,339.36 C375.32,331.59 373.07,323.02 372.30,311.16 L 371.70 301.81 L 367.65 309.66 C361.71,321.17 350.30,332.38 339.00,337.80 C326.29,343.89 319.56,345.33 307.00,344.67 C281.89,343.36 262.07,330.85 250.50,309.02 C247.75,303.83 245.48,299.34 245.45,299.04 C245.42,298.74 244.80,294.67 244.08,290.00 C242.76,281.51 243.38,260.84 245.00,259.25 C245.14,259.11 245.31,258.63 245.38,258.18 C245.44,257.73 247.51,253.57 249.96,248.93 C256.59,236.40 267.68,225.64 280.12,219.66 C291.08,214.39 297.86,212.83 309.81,212.83 C328.92,212.81 348.27,221.81 359.66,236.00 C361.61,238.43 360.58,237.77 356.28,233.85 C346.41,224.83 336.10,221.03 321.43,221.01 C310.81,220.99 298.27,226.54 289.99,234.93 C283.18,241.82 279.56,249.00 277.39,259.88 C275.82,267.76 275.82,268.75 277.45,276.38 C280.83,292.25 289.92,303.72 304.71,310.78 C312.30,314.41 312.79,314.50 324.00,314.50 C334.79,314.50 335.90,314.31 342.00,311.40 C345.58,309.70 350.90,306.40 353.83,304.07 C359.28,299.73 366.63,289.59 367.62,285.04 C367.92,283.65 368.41,281.83 368.72,281.00 C370.51,276.09 371.00,265.45 369.76,258.11 C369.35,255.70 367.92,251.31 366.57,248.36 C365.22,245.41 364.29,243.00 364.51,243.00 C364.73,243.00 366.48,245.69 368.41,248.97 C373.44,257.56 374.99,263.75 375.08,275.68 C375.13,281.36 375.33,286.00 375.54,286.00 C375.74,286.00 376.79,284.01 377.86,281.58 C384.99,265.46 399.77,252.23 417.72,245.86 C425.18,243.22 443.34,242.22 452.21,243.96 C473.92,248.20 493.78,266.02 501.16,287.87 C504.18,296.82 504.08,296.14 504.20,308.00 C504.40,327.47 498.60,341.56 484.59,355.61 C478.11,362.10 474.80,364.53 468.00,367.80 C463.33,370.04 456.74,372.57 453.36,373.43 C445.20,375.51 432.32,375.30 422.67,372.93 ZM 462.91 343.39 C471.14,341.03 474.52,339.42 480.45,335.03 C487.28,329.99 492.29,323.85 495.49,316.62 C497.95,311.05 500.41,298.43 499.55,295.80 C499.31,295.09 498.89,292.70 498.61,290.50 C496.12,271.17 480.96,255.02 462.45,251.99 C444.52,249.05 431.22,252.89 419.51,264.38 C411.90,271.85 408.22,278.85 406.33,289.44 C404.04,302.26 406.44,314.05 413.52,324.72 C416.96,329.91 424.54,336.65 430.42,339.74 C439.65,344.60 453.35,346.14 462.91,343.39 Z" fill="rgba(254,254,254,1)"/>
<path d="M 459.34 413.49 C457.99,410.58 459.44,410.08 460.96,412.93 C462.19,415.23 462.27,416.00 461.25,415.99 C460.84,415.99 459.98,414.86 459.34,413.49 ZM 427.67 401.33 C426.71,400.38 426.84,399.00 427.89,399.00 C428.38,399.00 429.05,399.67 429.36,400.50 C429.95,402.02 428.88,402.55 427.67,401.33 ZM 245.00 362.61 C245.00,360.79 247.30,359.94 249.09,361.09 C250.29,361.87 250.28,362.15 249.00,362.98 C246.85,364.40 245.00,364.22 245.00,362.61 ZM 252.50 362.00 C251.76,360.81 253.72,360.81 256.50,362.00 C258.29,362.77 258.21,362.87 255.81,362.93 C254.33,362.97 252.84,362.55 252.50,362.00 Z" fill="rgba(254,176,0,1)"/>
</g>
</svg>