<svg xmlns="http://www.w3.org/2000/svg" width="800" height="800" viewBox="0 0 800 800">
<g>
<path d="M 202.39 291.42 C201.87,292.78 199.20,293.00 182.86,293.00 C168.64,293.00 163.82,292.69 163.46,291.75 C163.20,291.06 163.10,249.77 163.24,200.00 L 163.50 109.50 L 182.43 109.23 C196.90,109.02 201.54,109.25 202.16,110.23 C202.61,110.93 202.98,125.58 202.98,142.80 L 203.00 174.10 L 215.50 173.50 L 216.50 109.50 L 254.50 109.50 L 254.50 292.50 L 216.50 292.50 L 215.98 211.00 L 203.00 211.00 L 203.00 250.42 C203.00,272.10 202.73,290.55 202.39,291.42 ZM 165.69 290.36 C166.07,290.74 174.06,290.92 183.44,290.77 L 200.50 290.50 L 200.73 265.00 C200.85,250.98 200.96,232.64 200.98,224.25 L 201.00 209.00 L 218.00 209.00 L 218.00 291.00 L 253.00 291.00 L 253.00 111.00 L 218.03 111.00 L 217.50 175.50 L 201.50 175.50 L 200.97 111.00 L 165.00 111.00 L 165.00 200.33 C165.00,249.47 165.31,289.98 165.69,290.36 ZM 303.79 292.10 C300.99,293.53 298.04,293.99 291.79,293.96 C273.62,293.86 265.37,286.86 261.49,268.25 C260.23,262.22 260.03,251.01 260.24,198.78 L 260.50 136.50 L 300.50 136.50 L 301.00 197.83 C301.48,257.08 301.57,259.21 303.44,260.58 C305.86,262.35 308.09,262.38 310.40,260.69 C313.37,258.52 313.91,247.83 313.96,190.25 L 314.00 136.00 L 354.01 136.00 L 353.76 214.25 L 353.50 292.50 L 314.50 292.50 L 314.19 288.75 C313.82,284.31 313.16,284.13 309.92,287.60 C308.59,289.03 305.83,291.05 303.79,292.10 ZM 583.24 292.81 C578.92,294.10 570.27,294.23 565.50,293.06 C551.64,289.67 545.15,279.02 543.03,256.19 C541.38,238.35 543.90,223.03 550.01,213.80 C555.36,205.72 561.31,202.27 583.27,194.51 L 595.50 190.20 L 595.50 180.20 C595.50,169.30 594.10,166.00 589.47,166.00 C585.91,166.00 584.54,168.74 584.00,176.90 L 583.50 184.50 L 545.50 184.50 L 545.19 177.00 C544.36,157.34 551.94,143.54 566.58,138.05 C580.63,132.79 602.73,133.06 614.50,138.63 C622.28,142.31 629.36,148.99 632.70,155.80 L 635.50 161.50 L 635.50 292.50 L 618.00 292.78 C608.38,292.94 599.49,292.82 598.25,292.52 C596.34,292.04 596.00,291.30 596.00,287.52 L 596.00 283.07 L 591.60 287.35 C589.18,289.70 585.42,292.16 583.24,292.81 ZM 419.20 292.88 C407.14,295.42 387.15,293.71 378.87,289.43 C373.50,286.65 366.92,279.78 363.89,273.79 C357.84,261.79 357.53,258.78 357.51,212.00 C357.50,170.66 357.56,169.31 359.75,162.50 C363.91,149.54 373.42,140.50 387.16,136.44 C396.12,133.79 416.13,133.82 424.42,136.48 C435.97,140.19 443.61,147.35 448.14,158.72 C450.30,164.15 450.46,166.11 450.79,191.40 C451.08,212.92 450.88,218.46 449.82,219.13 C449.10,219.59 437.14,219.98 423.25,219.98 L 398.00 220.00 L 398.00 237.35 C398.00,256.25 398.82,260.67 402.52,261.59 C409.54,263.36 410.97,260.26 410.99,243.25 L 411.00 230.00 L 451.00 230.00 L 451.00 240.91 C451.00,271.75 440.86,288.32 419.20,292.88 ZM 562.61 290.00 C565.54,291.14 570.08,291.93 573.93,291.95 C584.45,292.03 591.70,287.31 596.11,277.50 L 597.91 273.50 L 598.20 282.00 L 598.50 290.50 L 634.50 290.50 L 634.41 228.00 L 634.32 165.50 L 632.01 159.55 C627.82,148.74 616.63,139.71 604.20,137.11 C596.87,135.58 583.84,135.75 575.62,137.49 C556.21,141.60 548.39,151.33 547.26,172.75 L 546.71 183.00 L 582.00 183.00 L 582.00 177.47 C582.00,170.35 584.09,165.27 587.35,164.45 C591.10,163.51 593.07,164.21 595.39,167.32 C597.17,169.69 597.55,171.84 597.83,180.93 L 598.17 191.71 L 584.33 196.42 C566.47,202.51 558.68,206.38 554.49,211.28 C546.65,220.44 544.54,229.60 545.28,251.21 C545.81,266.70 546.80,271.78 550.82,279.62 C553.49,284.84 556.76,287.71 562.61,290.00 ZM 286.00 292.05 C292.33,293.19 299.80,292.24 304.27,289.73 C307.65,287.83 314.00,280.06 314.00,277.83 C314.00,277.37 314.45,277.00 315.00,277.00 C315.57,277.00 316.00,280.00 316.00,284.00 L 316.00 291.00 L 352.00 291.00 L 352.00 138.00 L 316.09 138.00 L 315.78 196.75 C315.45,258.49 315.29,260.71 310.96,263.02 C307.83,264.70 304.01,264.10 301.45,261.55 L 299.00 259.09 L 299.00 138.00 L 262.00 138.00 L 262.03 198.75 C262.07,264.32 262.44,270.02 267.27,279.55 C268.65,282.27 270.64,285.27 271.68,286.21 C274.21,288.50 280.48,291.05 286.00,292.05 ZM 387.50 290.60 C392.53,292.19 412.18,292.37 419.20,290.88 C438.96,286.68 449.00,270.40 449.00,242.55 L 449.00 232.00 L 413.00 232.00 L 413.00 243.85 C413.00,260.28 411.38,264.05 404.32,263.97 C397.18,263.89 396.00,259.95 396.00,236.26 L 396.00 218.00 L 449.00 218.00 L 448.99 193.75 C448.98,176.66 448.58,168.01 447.63,164.46 C443.06,147.28 432.93,139.05 413.78,136.96 C389.78,134.34 371.58,141.80 364.04,157.36 C359.41,166.92 358.70,175.89 359.25,217.90 C359.69,251.20 359.93,255.21 361.87,262.41 C366.07,277.99 373.50,286.16 387.50,290.60 ZM 540.76 200.23 L 540.50 292.50 L 521.50 292.75 C511.05,292.88 501.94,292.63 501.24,292.18 C500.25,291.54 500.04,272.42 500.24,199.94 L 500.50 108.50 L 520.76 108.23 L 541.01 107.96 ZM 494.76 200.23 L 494.50 292.50 L 475.39 292.77 C460.11,292.99 456.05,292.77 455.13,291.66 C454.29,290.64 454.06,266.53 454.24,199.39 L 454.50 108.50 L 474.76 108.23 L 495.01 107.96 ZM 456.75 290.42 C457.10,290.76 465.50,290.92 475.44,290.77 L 493.50 290.50 L 493.71 203.50 C493.82,155.65 493.69,115.04 493.41,113.25 L 492.91 110.00 L 455.96 110.00 L 456.05 199.90 C456.09,249.34 456.41,290.08 456.75,290.42 ZM 502.67 290.33 C503.03,290.70 511.36,291.00 521.17,291.00 L 539.00 291.00 L 539.00 110.00 L 502.00 110.00 L 502.00 199.83 C502.00,249.24 502.30,289.97 502.67,290.33 ZM 523.47 460.63 C519.58,464.51 514.17,463.21 511.91,457.84 C510.77,455.14 510.50,446.29 510.50,411.82 C510.50,370.03 510.54,369.09 512.60,366.32 C514.20,364.17 515.67,363.43 518.79,363.20 C522.32,362.93 523.13,363.27 524.69,365.65 C526.35,368.18 526.53,371.84 526.81,408.95 C526.99,431.25 526.84,451.47 526.48,453.88 C526.10,456.49 524.89,459.21 523.47,460.63 ZM 413.31 491.93 C409.56,492.97 399.40,493.20 395.50,492.32 C384.30,489.80 378.46,484.16 374.36,471.90 C372.71,466.96 372.53,460.93 372.23,400.91 L 371.91 335.31 L 383.20 334.66 C403.12,333.51 411.70,333.78 412.39,335.58 C412.73,336.45 413.00,364.09 413.00,397.01 C413.00,400.18 413.00,403.20 413.00,406.06 C412.99,450.29 412.98,458.35 416.03,459.75 C416.71,460.06 417.54,460.04 418.56,460.01 C418.86,460.01 419.17,460.00 419.49,460.00 C422.40,460.00 422.98,459.57 423.84,456.75 C424.42,454.86 425.11,428.84 425.50,394.50 C425.86,362.05 426.49,335.15 426.90,334.73 C427.31,334.30 436.16,334.08 446.57,334.23 L 465.50 334.50 L 465.76 411.31 C465.93,462.65 465.68,487.92 465.01,487.50 C464.35,487.10 464.00,461.13 464.00,411.94 L 464.00 337.00 L 428.00 337.00 L 427.96 390.25 C427.91,450.94 427.50,457.31 423.45,460.80 C420.15,463.64 416.60,463.15 413.25,459.41 L 411.00 456.89 L 411.00 337.00 L 373.91 337.00 L 374.25 401.75 C374.56,458.25 374.81,467.09 376.22,471.15 C381.08,485.09 387.40,489.80 402.54,490.75 C409.43,491.18 411.18,490.95 414.80,489.10 C418.86,487.03 424.27,480.88 425.53,476.90 C426.84,472.77 428.00,475.38 428.00,482.47 L 428.00 489.94 L 439.75 490.27 L 451.50 490.60 L 438.50 490.55 L 425.50 490.50 L 424.89 483.11 L 421.01 486.99 C418.88,489.12 415.41,491.35 413.31,491.93 ZM 318.01 475.98 C316.83,477.64 314.88,479.53 313.68,480.17 C311.66,481.25 311.69,481.09 314.11,477.92 C321.80,467.80 323.07,462.08 323.72,434.75 L 324.25 412.00 L 288.18 412.00 L 287.83 431.25 C287.57,445.77 287.12,451.23 285.99,453.48 C283.16,459.11 275.31,459.44 272.52,454.04 C270.29,449.72 270.24,349.38 272.46,345.07 C274.90,340.36 282.77,340.20 285.79,344.80 C287.14,346.86 287.53,350.61 287.85,364.17 L 288.23 381.00 L 323.17 381.00 L 322.46 337.50 L 319.34 330.86 C313.43,318.27 302.36,310.77 287.00,308.97 C260.16,305.82 243.93,316.03 237.22,340.28 C235.69,345.82 235.50,352.52 235.50,401.50 C235.50,441.75 235.82,457.37 236.70,459.75 C238.17,463.75 236.47,464.18 234.73,460.25 C233.81,458.19 233.50,443.64 233.50,402.00 C233.50,341.58 233.52,341.28 239.45,328.32 C246.78,312.30 264.70,304.24 286.73,307.03 C298.99,308.58 305.39,311.49 313.06,319.00 C323.46,329.18 324.29,332.09 324.79,360.25 L 325.19 383.00 L 305.70 383.00 C288.85,383.00 286.13,382.79 285.61,381.42 C285.27,380.55 285.00,372.29 285.00,363.07 C285.00,348.10 284.80,346.13 283.17,344.65 C280.70,342.42 277.43,342.57 274.97,345.03 C272.98,347.02 272.95,347.97 273.22,400.11 C273.49,451.30 273.57,453.21 275.44,454.58 C278.28,456.66 281.67,456.32 283.44,453.78 C284.72,451.95 285.00,448.08 285.00,431.98 C285.00,418.08 285.35,412.05 286.20,411.20 C287.05,410.35 292.92,410.00 306.26,410.00 L 325.12 410.00 L 324.80 435.75 C324.51,459.23 324.29,462.00 322.32,467.23 C321.14,470.38 319.20,474.32 318.01,475.98 ZM 516.28 459.98 C519.50,461.28 520.67,461.18 522.37,459.49 C524.86,456.99 525.14,451.27 524.81,409.50 C524.58,379.23 524.19,368.95 523.21,367.25 C521.55,364.33 516.98,364.26 514.40,367.10 C512.60,369.10 512.50,371.31 512.50,411.35 C512.50,434.53 512.85,454.76 513.28,456.29 C513.71,457.83 515.06,459.49 516.28,459.98 ZM 472.54 484.56 C472.16,487.55 471.44,490.00 470.92,490.00 C470.35,490.00 470.09,454.75 470.24,398.75 L 470.50 307.50 L 512.00 306.96 L 512.00 339.02 L 517.24 336.28 C521.00,334.31 524.36,333.43 529.13,333.16 C547.31,332.14 558.71,340.18 563.61,357.50 C565.05,362.56 565.38,369.88 565.75,404.36 C566.06,433.16 565.87,445.53 565.09,446.31 C564.30,447.10 564.00,437.35 564.00,410.92 C564.00,390.86 563.53,370.69 562.95,366.10 C560.33,345.22 549.84,334.98 531.07,335.01 C524.39,335.02 515.90,337.97 511.75,341.72 C510.09,343.23 510.00,342.44 510.00,326.15 L 510.00 309.00 L 472.31 309.00 L 472.76 394.06 C473.01,440.84 472.91,481.57 472.54,484.56 ZM 595.40 260.68 C593.08,263.80 588.53,264.80 585.91,262.75 C582.50,260.06 582.00,257.24 582.00,240.52 C582.00,223.31 582.53,220.59 586.87,215.64 C588.63,213.64 595.20,210.00 597.05,210.00 C597.87,210.00 598.09,216.58 597.84,233.93 C597.52,256.38 597.37,258.03 595.40,260.68 ZM 328.93 390.75 C328.89,435.71 328.47,473.40 328.00,474.50 C327.51,475.64 327.11,439.95 327.07,391.73 L 327.00 306.96 L 347.25 307.23 L 367.50 307.50 L 367.76 390.25 C367.93,445.24 367.67,473.00 367.01,473.00 C366.34,473.00 366.00,445.31 366.00,391.00 L 366.00 309.00 L 329.00 309.00 ZM 412.84 184.57 L 413.18 200.00 L 405.26 200.00 C400.90,200.00 397.03,199.70 396.67,199.33 C395.32,197.98 395.95,172.07 397.42,168.55 C400.01,162.34 406.60,161.21 410.40,166.32 C412.28,168.84 412.54,170.77 412.84,184.57 ZM 586.45 259.55 C589.62,262.71 591.53,262.65 593.73,259.29 C595.28,256.92 595.50,254.00 595.50,235.38 C595.50,223.71 595.16,213.82 594.73,213.40 C593.68,212.34 588.96,216.00 586.25,219.99 C584.14,223.10 584.00,224.32 584.00,240.19 C584.00,256.80 584.04,257.13 586.45,259.55 ZM 398.00 184.95 L 398.00 198.00 L 411.00 198.00 L 410.99 186.25 C410.99,169.38 409.07,164.01 403.53,165.40 C399.13,166.51 398.00,170.51 398.00,184.95 ZM 200.60 506.60 C196.69,510.51 193.91,510.85 189.23,508.00 C182.93,504.16 182.43,495.53 188.30,491.96 C194.02,488.47 199.76,489.69 202.49,494.98 C204.90,499.64 204.38,502.82 200.60,506.60 ZM 226.63 514.23 C221.40,518.47 212.52,514.24 211.37,506.94 C210.91,504.07 211.30,502.79 213.43,500.27 C218.13,494.68 226.45,495.11 229.55,501.09 C232.07,505.97 231.03,510.67 226.63,514.23 ZM 632.75 483.45 C627.06,489.92 617.00,485.71 617.00,476.86 C617.00,473.60 622.33,469.00 626.12,469.00 C633.54,469.00 637.63,477.90 632.75,483.45 ZM 607.28 484.17 C604.75,486.70 600.02,487.29 596.78,485.48 C591.21,482.38 590.40,476.45 594.92,471.92 C598.90,467.95 603.14,467.99 607.20,472.05 C609.82,474.67 610.16,475.60 609.66,478.74 C609.33,480.74 608.26,483.18 607.28,484.17 ZM 205.77 538.45 C202.16,539.96 200.55,540.19 198.50,539.51 C197.95,539.33 196.30,538.91 194.83,538.59 C190.98,537.74 185.99,533.20 183.97,528.69 C183.01,526.55 181.20,524.28 179.94,523.65 C175.86,521.60 176.33,519.87 180.78,520.58 C183.26,520.98 185.01,520.80 185.43,520.11 C186.34,518.64 189.00,518.69 189.00,520.17 C189.00,520.82 188.23,522.20 187.28,523.24 C185.65,525.04 185.66,525.33 187.53,528.73 C193.10,538.87 210.94,538.12 211.81,527.72 C212.16,523.59 214.65,522.50 215.18,526.25 C215.40,527.78 216.55,528.84 218.81,529.57 C223.06,530.94 222.54,532.50 217.83,532.50 C215.43,532.50 213.35,533.26 211.82,534.70 C210.53,535.91 207.81,537.60 205.77,538.45 ZM 486.30 556.65 C479.94,559.31 473.16,557.52 467.79,551.77 C466.12,549.98 463.41,548.07 461.78,547.51 C458.41,546.36 458.35,544.35 461.71,544.78 C463.16,544.97 464.48,544.20 465.57,542.53 C468.01,538.82 469.28,539.38 468.53,543.84 C467.94,547.34 468.19,547.96 471.36,550.75 C473.28,552.43 476.15,554.09 477.73,554.44 C484.55,555.94 493.50,549.67 491.06,545.10 C489.28,541.78 490.77,540.77 493.96,543.13 C495.53,544.29 497.30,544.93 497.90,544.56 C498.51,544.19 499.47,544.17 500.05,544.53 C501.39,545.36 499.34,548.00 497.35,548.00 C496.57,548.00 494.50,549.64 492.74,551.65 C490.97,553.66 488.08,555.91 486.30,556.65 ZM 299.00 490.05 C294.78,491.73 290.83,492.33 282.00,492.62 C265.97,493.15 256.88,490.38 247.79,482.21 C242.92,477.83 238.00,470.45 238.01,467.55 C238.02,466.16 238.94,467.11 240.90,470.52 C244.23,476.32 251.09,482.99 256.68,485.84 C264.71,489.93 271.73,491.28 282.43,490.76 C291.71,490.31 294.23,489.74 305.50,485.47 C307.29,484.79 307.35,484.88 306.00,486.29 C305.17,487.16 302.02,488.85 299.00,490.05 ZM 364.46 508.38 C360.46,509.91 355.00,506.39 355.00,502.28 C355.00,494.68 364.07,492.36 367.54,499.07 C368.88,501.67 368.88,502.32 367.56,504.88 C366.74,506.46 365.35,508.04 364.46,508.38 ZM 347.93 507.37 C344.70,511.47 337.57,510.12 336.32,505.16 C334.61,498.32 343.51,494.02 347.89,499.58 C350.52,502.93 350.53,504.06 347.93,507.37 ZM 467.96 532.07 C466.68,534.47 463.57,534.53 459.00,532.25 C454.73,530.11 454.01,527.00 457.13,524.09 C460.11,521.32 463.54,521.45 466.55,524.45 C469.21,527.12 469.57,529.06 467.96,532.07 ZM 493.96 532.07 C492.68,534.47 489.57,534.53 485.00,532.25 C480.72,530.11 480.10,527.59 483.08,524.41 C485.98,521.33 489.43,521.34 492.55,524.45 C495.21,527.12 495.57,529.06 493.96,532.07 ZM 538.88 492.38 C530.34,494.08 522.60,492.16 516.54,486.82 L 512.00 482.83 L 512.00 486.92 C512.00,489.60 511.55,491.00 510.70,491.00 C509.73,491.00 509.49,489.30 509.76,484.25 C510.27,474.36 510.41,474.11 512.74,478.59 C517.46,487.62 525.18,491.67 535.64,490.60 C542.17,489.93 544.56,491.24 538.88,492.38 ZM 357.87 522.46 C355.69,524.29 353.69,525.00 350.67,525.00 C346.49,524.99 340.00,521.97 340.00,520.01 C340.00,519.46 339.13,519.00 338.06,519.00 C336.99,519.00 335.84,518.55 335.50,518.00 C335.15,517.43 336.00,517.00 337.47,517.00 C338.90,517.00 340.32,516.33 340.64,515.50 C341.59,513.01 343.27,513.80 342.61,516.43 C341.80,519.64 345.94,523.00 350.71,523.00 C355.70,523.00 360.42,518.17 359.50,514.00 C358.81,510.86 360.31,509.76 361.40,512.61 C361.85,513.77 362.73,514.03 364.61,513.56 C366.48,513.09 367.08,513.27 366.77,514.21 C366.54,514.92 365.39,515.64 364.22,515.81 C363.05,515.99 361.82,516.98 361.49,518.02 C361.16,519.06 359.53,521.06 357.87,522.46 Z" fill="rgb(5,5,9)"/>
<path d="M 328.93 390.75 L 329.00 309.00 L 329.00 472.35 L 331.25 470.24 C337.30,464.58 343.76,465.01 350.37,471.53 C352.87,473.99 355.47,476.00 356.17,476.00 C356.86,476.00 359.36,475.26 361.72,474.36 L 366.00 472.73 L 366.00 391.00 C366.00,445.31 366.34,473.00 367.01,473.00 C367.67,473.00 367.93,445.24 367.76,390.25 L 367.50 307.50 L 367.76 390.00 L 368.03 472.50 L 372.01 474.67 C374.21,475.86 376.00,476.76 375.99,476.67 C375.99,476.61 375.67,475.64 375.20,474.24 C378.51,482.96 382.99,487.95 390.25,490.76 C387.37,489.77 385.03,488.44 383.27,486.78 C382.02,485.61 380.88,484.85 380.73,485.08 C380.57,485.31 379.53,487.75 378.42,490.50 L 376.39 495.50 L 380.19 495.55 C384.88,495.61 388.90,498.42 391.35,503.36 C394.06,508.81 392.91,513.33 387.42,518.74 C384.99,521.13 383.00,523.55 383.00,524.11 C383.00,524.67 383.72,527.32 384.60,530.00 C386.63,536.21 385.37,540.59 380.28,545.06 C377.05,547.90 376.17,548.18 371.83,547.76 C369.13,547.50 366.10,546.49 364.99,545.49 C363.04,543.72 363.00,543.76 363.00,547.60 C362.99,552.69 359.82,557.76 355.51,559.56 C349.07,562.25 344.17,560.76 338.27,554.32 C336.07,551.91 334.45,550.95 333.26,551.34 C326.25,553.63 323.04,554.23 320.77,553.66 C316.71,552.64 312.15,548.23 310.92,544.13 C309.82,540.46 310.10,539.28 313.83,531.61 C314.06,531.12 313.72,531.05 313.06,531.46 C311.07,532.70 305.24,531.07 302.05,528.39 C295.59,522.95 296.36,513.01 303.68,507.43 C306.88,504.99 307.13,504.43 306.54,501.13 C306.19,499.13 305.65,495.36 305.35,492.75 C305.05,490.14 304.64,488.00 304.44,488.00 C304.28,488.00 302.57,488.62 300.39,489.47 C302.93,488.35 305.30,487.03 306.00,486.29 C307.35,484.88 307.29,484.79 305.50,485.47 C304.03,486.03 302.70,486.52 301.50,486.96 C311.09,482.76 317.60,475.26 321.17,464.35 C319.79,469.60 317.61,473.30 314.11,477.92 C311.69,481.09 311.66,481.25 313.68,480.17 C314.88,479.53 316.82,477.66 318.00,476.00 L 316.04 478.75 L 319.65 479.33 C321.63,479.65 324.09,480.68 325.12,481.61 C326.96,483.27 327.00,481.30 327.00,395.13 L 327.00 306.96 L 327.07 391.73 C327.11,439.95 327.51,475.64 328.00,474.50 C328.47,473.40 328.89,435.71 328.93,390.75 ZM 364.46 508.38 C365.35,508.04 366.74,506.46 367.56,504.88 C368.88,502.32 368.88,501.67 367.54,499.07 C366.05,496.20 363.54,494.98 361.16,495.12 C363.51,494.95 365.98,496.08 367.46,498.82 C369.40,502.39 369.42,499.72 367.49,495.98 C364.49,490.19 357.18,489.11 352.69,493.80 C351.21,495.35 350.00,497.19 350.00,497.91 C350.00,498.63 348.69,497.81 347.10,496.11 C344.82,493.66 343.37,493.00 340.32,493.00 C335.46,493.00 332.47,495.05 331.05,499.36 C329.68,503.51 330.82,506.93 334.56,509.87 C337.34,512.06 341.48,512.62 343.83,511.13 C344.70,510.57 344.37,510.18 342.67,509.79 C344.63,509.81 346.60,509.05 347.93,507.37 C349.71,505.10 350.27,503.85 349.59,502.22 C349.85,502.68 350.12,503.19 350.40,503.74 C352.51,507.90 356.12,510.25 359.69,509.76 C362.22,509.42 362.30,509.30 360.50,508.54 C360.33,508.47 360.16,508.39 359.99,508.31 C357.30,507.36 355.01,504.95 355.00,502.30 C355.01,504.66 356.83,506.85 359.99,508.31 C361.46,508.83 363.05,508.92 364.46,508.38 ZM 357.87 522.46 C359.53,521.06 361.16,519.06 361.49,518.02 C361.82,516.98 363.05,515.99 364.22,515.81 C365.39,515.64 366.54,514.92 366.77,514.21 C367.08,513.27 366.48,513.09 364.61,513.56 C362.73,514.03 361.85,513.77 361.40,512.61 C360.31,509.76 358.81,510.86 359.50,514.00 C360.42,518.17 355.70,523.00 350.71,523.00 C345.94,523.00 341.80,519.64 342.61,516.43 C343.27,513.80 341.59,513.01 340.64,515.50 C340.32,516.33 338.90,517.00 337.47,517.00 C336.00,517.00 335.15,517.43 335.50,518.00 C335.84,518.55 336.99,519.00 338.06,519.00 C339.13,519.00 340.00,519.46 340.00,520.01 C340.00,521.97 346.49,524.99 350.67,525.00 C353.69,525.00 355.69,524.29 357.87,522.46 ZM 289.08 492.23 C281.85,493.12 273.19,493.19 268.00,492.11 C267.09,491.92 266.19,491.70 265.30,491.46 C270.02,492.50 275.43,492.84 282.00,492.62 C284.79,492.53 287.10,492.41 289.08,492.23 ZM 272.77 490.62 C266.93,490.07 262.03,488.57 256.68,485.84 C255.05,485.01 253.31,483.85 251.58,482.48 C257.51,486.85 264.74,489.66 272.77,490.62 ZM 346.71 498.39 C342.10,494.75 334.75,498.89 336.32,505.16 C336.37,505.35 336.43,505.54 336.50,505.72 C335.67,503.83 335.95,501.51 337.56,499.22 C338.63,497.69 340.14,497.00 342.40,497.00 C344.15,497.00 345.49,497.38 346.71,498.39 ZM 246.21 480.69 C244.17,478.67 242.36,476.45 240.83,474.05 C240.45,473.46 240.09,472.83 239.76,472.21 C241.30,474.92 243.69,478.10 246.21,480.69 ZM 403.70 492.86 C406.39,492.83 409.14,492.65 411.22,492.35 C409.05,492.78 406.59,492.93 403.70,492.86 ZM 372.51 441.33 C372.40,431.63 372.32,418.60 372.23,400.91 L 371.91 335.31 L 372.23 400.91 C372.32,418.64 372.40,431.66 372.51,441.33 ZM 416.20 490.62 C417.88,489.65 419.69,488.31 421.00,487.00 C419.47,488.53 417.92,489.72 416.20,490.62 ZM 318.11 475.85 L 318.02 475.97 C319.21,474.30 321.14,470.37 322.32,467.23 C321.14,470.38 319.24,474.26 318.11,475.85 ZM 323.41 444.65 C323.53,441.70 323.63,438.40 323.72,434.75 C323.63,438.42 323.53,441.69 323.41,444.65 ZM 373.65 469.08 C373.53,468.39 373.42,467.60 373.32,466.64 C373.42,467.59 373.53,468.38 373.65,469.08 Z" fill="rgb(31,238,31)"/>
<path d="M 472.54 484.56 C472.91,481.57 473.01,440.84 472.76,394.06 L 472.31 309.00 L 510.00 309.00 L 510.00 326.15 C510.00,342.44 510.09,343.23 511.75,341.72 C515.90,337.97 524.39,335.02 531.07,335.01 C549.84,334.98 560.33,345.22 562.95,366.10 C563.53,370.69 564.00,390.86 564.00,410.92 C564.00,435.13 564.25,445.34 564.91,446.28 L 562.68 448.11 C558.50,451.56 555.00,458.34 555.00,463.00 C555.00,464.85 555.97,468.37 557.16,470.82 C559.72,476.12 559.10,477.64 553.62,479.52 C549.12,481.07 544.62,485.08 543.00,489.01 C542.70,489.73 542.32,490.33 541.85,490.82 C541.17,490.42 538.93,490.26 535.64,490.60 C525.18,491.67 517.46,487.62 512.74,478.59 C510.41,474.11 510.27,474.36 509.76,484.25 C509.50,489.11 509.72,490.87 510.60,490.99 C510.54,491.00 510.49,491.00 510.43,491.00 C509.32,491.00 509.05,490.42 509.50,489.00 C509.90,487.74 509.35,485.89 508.00,484.00 C504.84,479.56 501.62,480.00 496.28,485.56 C493.88,488.08 491.21,489.99 490.35,489.81 C489.49,489.64 487.96,487.31 486.95,484.64 C484.80,478.96 482.40,476.00 479.93,476.00 C477.31,476.00 473.08,481.63 472.37,486.08 C472.14,487.53 471.75,488.81 471.38,489.49 C471.81,488.62 472.26,486.73 472.54,484.56 ZM 165.69 290.36 C165.31,289.98 165.00,249.47 165.00,200.33 L 165.00 111.00 L 200.97 111.00 L 201.50 175.50 L 217.50 175.50 L 218.03 111.00 L 253.00 111.00 L 253.00 291.00 L 218.00 291.00 L 218.00 209.00 L 201.00 209.00 L 200.98 224.25 C200.96,232.64 200.85,250.98 200.73,265.00 L 200.50 290.50 L 183.44 290.77 C174.06,290.92 166.07,290.74 165.69,290.36 ZM 272.77 490.62 C264.74,489.66 257.51,486.85 251.58,482.48 C247.39,479.17 243.26,474.63 240.90,470.52 C239.02,467.24 238.09,466.24 238.01,467.40 C238.00,467.31 238.00,467.22 238.00,467.13 C238.00,465.77 237.32,463.91 236.50,463.00 C236.38,462.87 236.27,462.73 236.16,462.59 C237.19,463.63 237.74,462.59 236.70,459.75 C235.82,457.37 235.50,441.75 235.50,401.50 C235.50,352.52 235.69,345.82 237.22,340.28 C243.93,316.03 260.16,305.82 287.00,308.97 C302.36,310.77 313.43,318.27 319.34,330.86 L 322.46 337.50 L 323.17 381.00 L 288.23 381.00 L 287.85 364.17 C287.53,350.61 287.14,346.86 285.79,344.80 C282.77,340.20 274.90,340.36 272.46,345.07 C270.24,349.38 270.29,449.72 272.52,454.04 C275.31,459.44 283.16,459.11 285.99,453.48 C287.12,451.23 287.57,445.77 287.83,431.25 L 288.18 412.00 L 324.25 412.00 L 323.72 434.75 C323.63,438.42 323.53,441.69 323.41,444.65 C323.03,453.66 322.42,459.63 321.17,464.35 C317.60,475.26 311.09,482.76 301.50,486.96 C293.45,489.89 290.49,490.37 282.43,490.76 C278.86,490.93 275.70,490.90 272.77,490.62 ZM 562.61 290.00 C556.76,287.71 553.49,284.84 550.82,279.62 C546.80,271.78 545.81,266.70 545.28,251.21 C544.54,229.60 546.65,220.44 554.49,211.28 C558.68,206.38 566.47,202.51 584.33,196.42 L 598.17 191.71 L 597.83 180.93 C597.55,171.84 597.17,169.69 595.39,167.32 C593.07,164.21 591.10,163.51 587.35,164.45 C584.09,165.27 582.00,170.35 582.00,177.47 L 582.00 183.00 L 546.71 183.00 L 547.26 172.75 C548.39,151.33 556.21,141.60 575.62,137.49 C583.84,135.75 596.87,135.58 604.20,137.11 C616.63,139.71 627.82,148.74 632.01,159.55 L 634.32 165.50 L 634.41 228.00 L 634.50 290.50 L 598.50 290.50 L 598.20 282.00 L 597.91 273.50 L 596.11 277.50 C591.70,287.31 584.45,292.03 573.93,291.95 C570.08,291.93 565.54,291.14 562.61,290.00 ZM 286.00 292.05 C280.48,291.05 274.21,288.50 271.68,286.21 C270.64,285.27 268.65,282.27 267.27,279.55 C262.44,270.02 262.07,264.32 262.03,198.75 L 262.00 138.00 L 299.00 138.00 L 299.00 259.09 L 301.45 261.55 C304.01,264.10 307.83,264.70 310.96,263.02 C315.29,260.71 315.45,258.49 315.78,196.75 L 316.09 138.00 L 352.00 138.00 L 352.00 291.00 L 316.00 291.00 L 316.00 284.00 C316.00,280.00 315.57,277.00 315.00,277.00 C314.45,277.00 314.00,277.37 314.00,277.83 C314.00,280.06 307.65,287.83 304.27,289.73 C299.80,292.24 292.33,293.19 286.00,292.05 ZM 387.50 290.60 C373.50,286.16 366.07,277.99 361.87,262.41 C359.93,255.21 359.69,251.20 359.25,217.90 C358.70,175.89 359.41,166.92 364.04,157.36 C371.58,141.80 389.78,134.34 413.78,136.96 C432.93,139.05 443.06,147.28 447.63,164.46 C448.58,168.01 448.98,176.66 448.99,193.75 L 449.00 218.00 L 396.00 218.00 L 396.00 236.26 C396.00,259.95 397.18,263.89 404.32,263.97 C411.38,264.05 413.00,260.28 413.00,243.85 L 413.00 232.00 L 449.00 232.00 L 449.00 242.55 C449.00,270.40 438.96,286.68 419.20,290.88 C412.18,292.37 392.53,292.19 387.50,290.60 ZM 451.00 490.59 L 428.00 489.94 L 428.00 482.47 C428.00,475.38 426.84,472.77 425.53,476.90 C424.27,480.88 418.86,487.03 414.80,489.10 C411.18,490.95 409.43,491.18 402.54,490.75 C387.40,489.80 381.08,485.09 376.22,471.15 C374.81,467.09 374.56,458.25 374.25,401.75 L 373.91 337.00 L 411.00 337.00 L 411.00 456.89 L 413.25 459.41 C416.60,463.15 420.15,463.64 423.45,460.80 C427.50,457.31 427.91,450.94 427.96,390.25 L 428.00 337.00 L 464.00 337.00 L 464.00 411.94 C464.00,457.21 464.29,482.81 464.85,486.92 L 462.47 484.54 C460.38,482.45 457.95,481.00 456.52,481.00 C453.60,481.00 451.00,484.41 451.00,488.25 ZM 456.75 290.42 C456.41,290.08 456.09,249.34 456.05,199.90 L 455.96 110.00 L 492.91 110.00 L 493.41 113.25 C493.69,115.04 493.82,155.65 493.71,203.50 L 493.50 290.50 L 475.44 290.77 C465.50,290.92 457.10,290.76 456.75,290.42 ZM 502.67 290.33 C502.30,289.97 502.00,249.24 502.00,199.83 L 502.00 110.00 L 539.00 110.00 L 539.00 291.00 L 521.17 291.00 C511.36,291.00 503.03,290.70 502.67,290.33 ZM 329.00 472.35 L 329.00 309.00 L 366.00 309.00 L 366.00 472.73 L 361.72 474.36 C359.36,475.26 356.86,476.00 356.17,476.00 C355.47,476.00 352.87,473.99 350.37,471.53 C343.76,465.01 337.30,464.58 331.25,470.24 ZM 523.47 460.63 C524.89,459.21 526.10,456.49 526.48,453.88 C526.84,451.47 526.99,431.25 526.81,408.95 C526.53,371.84 526.35,368.18 524.69,365.65 C523.13,363.27 522.32,362.93 518.79,363.20 C515.67,363.43 514.20,364.17 512.60,366.32 C510.54,369.09 510.50,370.03 510.50,411.82 C510.50,446.29 510.77,455.14 511.91,457.84 C514.17,463.21 519.58,464.51 523.47,460.63 ZM 595.40 260.68 C597.37,258.03 597.52,256.38 597.84,233.93 C598.09,216.58 597.87,210.00 597.05,210.00 C595.20,210.00 588.63,213.64 586.87,215.64 C582.53,220.59 582.00,223.31 582.00,240.52 C582.00,257.24 582.50,260.06 585.91,262.75 C588.53,264.80 593.08,263.80 595.40,260.68 ZM 412.84 184.57 C412.54,170.77 412.28,168.84 410.40,166.32 C406.60,161.21 400.01,162.34 397.42,168.55 C395.95,172.07 395.32,197.98 396.67,199.33 C397.03,199.70 400.90,200.00 405.26,200.00 L 413.18 200.00 ZM 234.15 456.13 C233.12,448.48 233.00,432.75 233.24,397.72 C233.53,354.97 233.61,344.48 236.15,336.40 C233.51,344.82 233.50,355.94 233.50,402.00 C233.50,433.22 233.67,449.21 234.15,456.13 ZM 465.14 487.21 C465.71,484.23 465.92,459.03 465.76,411.31 L 466.01 488.08 ZM 565.24 446.00 C565.89,443.84 566.04,431.28 565.75,404.36 L 566.19 445.22 ZM 425.50 490.50 L 438.50 490.55 L 451.00 490.60 L 451.00 491.06 L 425.50 490.50 ZM 470.91 490.00 C470.90,490.00 470.88,490.00 470.87,490.00 C470.74,490.00 470.63,487.48 470.54,482.87 C470.64,487.41 470.76,489.87 470.91,490.00 ZM 511.39 490.58 C511.79,489.97 512.00,488.74 512.00,486.92 C512.00,488.89 511.83,490.03 511.39,490.58 ZM 538.80 492.39 C535.03,493.14 531.41,493.18 528.01,492.51 C531.40,493.17 535.02,493.14 538.80,492.39 Z" fill="rgb(84,89,225)"/>
<path d="M 325.11 411.10 C325.18,411.15 325.23,411.20 325.24,411.25 C325.24,411.26 325.24,411.26 325.24,411.26 C325.38,411.27 325.71,388.46 325.99,360.00 L 326.50 307.50 L 327.00 307.50 L 327.00 395.13 C327.00,469.97 326.97,481.30 325.76,481.90 C325.89,481.64 325.94,474.27 325.87,465.25 C325.76,452.01 325.58,449.86 324.97,455.00 C324.75,456.90 324.39,458.90 323.93,460.89 C324.47,456.72 324.62,450.11 324.80,435.75 ZM 294.29 410.16 C299.72,409.90 306.96,409.84 313.06,410.00 L 306.26 410.00 C301.27,410.00 297.32,410.05 294.29,410.16 ZM 322.25 480.05 C321.39,479.72 320.48,479.46 319.65,479.33 L 317.68 479.01 L 318.18 479.01 C319.24,479.02 320.93,479.46 322.25,480.05 ZM 325.75 481.90 C325.57,481.98 325.36,481.83 325.12,481.61 C325.09,481.58 325.06,481.55 325.02,481.52 C325.41,481.73 325.68,481.87 325.75,481.90 Z" fill="rgb(97,91,86)"/>
<path d="M 614.77 562.45 C602.66,567.51 589.04,558.32 589.01,545.08 L 589.00 542.65 L 586.74 544.78 C581.02,550.15 572.01,551.41 565.60,547.73 C554.05,541.13 551.58,527.79 560.16,518.39 L 562.09 516.27 L 557.27 515.63 C547.74,514.37 541.00,506.54 541.00,496.73 L 541.00 492.09 L 539.21 492.31 C541.76,491.76 542.50,491.19 541.85,490.82 C542.32,490.33 542.70,489.73 543.00,489.01 C544.62,485.08 549.12,481.07 553.62,479.52 C559.10,477.64 559.72,476.12 557.16,470.82 C555.97,468.37 555.00,464.85 555.00,463.00 C555.00,458.34 558.50,451.56 562.68,448.11 L 564.91 446.28 C564.96,446.36 565.03,446.37 565.09,446.31 C565.15,446.25 565.19,446.15 565.24,446.00 L 566.19 445.22 L 565.75 404.36 L 566.19 444.79 L 571.91 444.27 C577.99,443.72 582.23,445.16 586.75,449.29 L 589.00 451.35 L 589.02 447.92 C589.05,443.90 591.91,437.22 594.65,434.79 C595.71,433.85 598.23,432.38 600.25,431.54 C611.97,426.64 624.98,433.86 626.62,446.17 L 627.24 450.90 L 631.12 447.78 C640.12,440.55 653.39,444.08 659.10,455.21 C662.35,461.56 660.95,470.23 655.78,475.74 L 653.65 478.00 L 656.08 478.01 C667.53,478.03 676.41,488.71 674.58,500.25 C673.29,508.35 666.84,514.51 658.44,515.66 L 653.92 516.28 L 655.91 518.41 C660.73,523.53 662.15,531.31 659.45,537.77 C654.18,550.39 639.22,553.83 629.25,544.71 L 627.00 542.65 L 626.98 545.58 C626.95,549.37 623.91,555.91 620.87,558.70 C619.55,559.91 616.81,561.60 614.77,562.45 ZM 632.75 483.45 C637.63,477.90 633.54,469.00 626.12,469.00 C623.74,469.00 620.74,470.82 618.85,472.98 C620.17,471.14 622.25,469.67 625.02,469.02 L 628.50 468.20 L 624.50 468.11 C619.77,467.99 614.46,470.89 612.82,474.50 C612.19,475.87 611.35,477.00 610.95,477.00 C610.55,477.00 609.91,478.24 609.53,479.75 C609.22,480.97 608.75,482.06 608.14,482.98 C608.82,481.80 609.42,480.16 609.66,478.74 C610.16,475.60 609.82,474.67 607.20,472.05 C603.14,467.99 598.90,467.95 594.92,471.92 C593.52,473.32 592.63,474.86 592.24,476.41 C592.81,473.23 595.24,470.28 599.31,469.10 C602.48,468.19 602.48,468.18 598.13,468.09 C594.31,468.01 593.26,468.50 589.76,472.01 C585.90,475.86 585.77,476.22 586.24,481.20 C586.66,485.55 587.32,486.90 590.36,489.69 C593.31,492.40 594.78,493.00 598.41,493.00 C603.41,493.00 608.43,489.62 610.16,485.09 L 611.16 482.50 L 612.52 485.73 C613.27,487.51 615.37,489.87 617.19,490.98 C626.01,496.35 636.14,490.32 635.90,479.85 C635.80,475.56 635.78,475.54 635.02,478.79 C633.64,484.60 629.20,487.59 624.34,486.40 C627.20,486.99 630.36,486.16 632.75,483.45 ZM 599.96 514.54 C607.70,518.57 619.35,517.34 628.07,511.57 C637.00,505.67 637.78,494.00 629.25,494.00 C627.95,494.00 623.92,495.58 620.29,497.50 C611.52,502.16 607.23,502.16 599.95,497.53 C594.17,493.84 592.06,493.36 588.93,495.04 C587.59,495.75 587.00,497.13 587.00,499.56 C587.00,503.88 593.14,510.99 599.96,514.54 ZM 598.97 486.30 C601.54,486.88 604.45,486.34 606.48,484.85 C604.46,486.54 601.75,487.12 598.97,486.30 ZM 617.33 479.56 C617.87,481.62 619.00,483.32 620.46,484.52 C618.71,483.17 617.69,481.41 617.33,479.56 Z" fill="rgb(246,18,224)"/>
<path d="M 190.58 394.25 C191.00,394.66 190.70,394.96 189.92,394.92 C187.48,394.79 186.00,393.88 186.00,392.54 C186.00,391.61 184.22,391.26 179.75,391.29 C176.31,391.32 172.03,390.84 170.23,390.23 C168.43,389.63 167.22,389.55 167.54,390.06 C167.86,390.58 167.08,391.04 165.81,391.08 C164.54,391.13 161.84,391.34 159.81,391.55 C156.75,391.87 156.00,391.58 155.45,389.85 C155.09,388.69 155.20,387.47 155.72,387.13 C156.23,386.78 156.95,385.60 157.33,384.50 C157.99,382.53 157.98,382.53 156.50,384.44 C155.04,386.32 155.00,386.31 154.93,383.94 C154.86,381.68 154.80,381.65 154.00,383.50 C153.53,384.60 153.11,384.95 153.07,384.28 C153.03,383.61 152.37,383.30 151.60,383.60 C150.83,383.89 149.49,383.11 148.60,381.84 C147.72,380.59 146.99,379.99 146.97,380.53 C146.95,381.06 146.53,380.80 146.03,379.95 C145.12,378.40 145.18,376.86 146.26,374.00 C146.57,373.17 147.08,370.71 147.39,368.52 C147.74,366.04 148.80,363.89 150.22,362.80 C151.48,361.83 152.11,361.03 151.63,361.02 C151.16,361.01 151.51,359.88 152.41,358.50 C153.31,357.12 153.59,356.00 153.02,356.00 C150.98,356.00 152.03,351.12 154.50,349.18 C157.39,346.91 158.03,342.67 155.34,343.70 C154.28,344.11 153.92,343.95 154.34,343.26 C154.71,342.66 154.45,341.94 153.76,341.66 C153.07,341.39 153.49,341.12 154.69,341.08 C155.90,341.04 157.16,341.46 157.51,342.02 C157.86,342.58 158.56,342.77 159.07,342.46 C159.58,342.14 160.00,342.26 160.00,342.73 C160.00,343.19 160.87,343.57 161.93,343.57 C162.99,343.57 163.67,343.27 163.44,342.90 C163.21,342.53 163.97,341.98 165.13,341.68 C166.44,341.33 168.37,341.95 170.17,343.29 C172.68,345.14 173.24,345.24 174.04,343.98 C174.81,342.75 174.97,342.80 174.98,344.31 C174.99,345.42 175.45,345.84 176.15,345.40 C176.80,345.00 177.04,345.13 176.70,345.68 C176.36,346.23 176.48,347.98 176.96,349.59 C177.44,351.19 177.87,351.87 177.91,351.10 C177.97,350.14 178.62,350.41 179.94,351.93 C181.02,353.17 181.61,354.86 181.27,355.75 C180.87,356.79 181.06,357.08 181.83,356.61 C182.58,356.14 183.00,356.62 183.00,357.94 C183.00,359.07 182.48,360.00 181.83,360.00 C181.19,360.00 180.93,360.26 181.25,360.58 C181.57,360.90 182.74,360.68 183.84,360.08 C185.41,359.25 186.22,359.36 187.44,360.58 C188.31,361.45 188.71,362.66 188.34,363.26 C187.91,363.96 187.38,363.65 186.90,362.43 C186.42,361.23 186.11,361.04 186.07,361.95 C186.02,363.02 185.71,363.11 184.88,362.28 C183.14,360.54 180.84,361.84 181.96,363.93 C182.65,365.21 182.51,365.67 181.45,365.67 C180.65,365.67 179.97,365.18 179.93,364.58 C179.89,363.99 179.47,364.40 179.00,365.50 C178.53,366.60 178.11,366.88 178.07,366.13 C178.01,365.02 177.71,365.00 176.50,366.00 C174.69,367.50 174.49,365.94 176.25,364.08 C177.28,362.99 177.13,362.94 175.42,363.82 C173.78,364.66 173.30,364.58 173.17,363.45 C173.07,362.65 172.93,361.34 172.83,360.54 C172.54,358.00 169.97,357.94 167.49,360.42 C164.90,363.01 164.86,366.07 167.38,368.89 C168.63,370.29 168.61,370.69 167.22,371.97 C165.80,373.27 165.69,373.24 166.28,371.72 C167.18,369.37 166.53,369.56 163.59,372.50 C162.22,373.88 160.69,375.00 160.20,375.00 C158.85,375.00 156.00,378.47 156.00,380.12 C156.00,380.92 156.90,381.64 158.00,381.73 C159.10,381.81 160.00,381.45 160.00,380.94 C160.00,380.42 160.70,380.00 161.56,380.00 C162.42,380.00 162.89,379.63 162.61,379.17 C161.78,377.83 165.68,378.49 167.49,379.99 C168.40,380.74 168.92,382.18 168.66,383.18 C168.36,384.34 168.59,384.75 169.29,384.32 C170.35,383.66 172.21,383.31 178.29,382.63 C179.82,382.46 181.60,381.80 182.24,381.16 C184.10,379.30 184.99,379.80 185.08,382.75 C185.19,386.91 187.41,393.50 188.70,393.50 C189.32,393.50 190.17,393.84 190.58,394.25 ZM 630.75 355.07 C630.06,355.12 628.49,355.34 627.25,355.57 C625.73,355.85 625.00,355.50 625.00,354.49 C625.00,353.67 624.35,353.00 623.55,353.00 C619.98,353.00 617.00,350.67 617.00,347.88 C617.00,345.02 613.40,340.63 611.85,341.59 C610.19,342.62 611.03,338.70 612.75,337.39 C614.80,335.83 622.43,335.49 621.50,337.00 C621.16,337.55 621.61,338.00 622.50,338.00 C623.39,338.00 623.84,338.44 623.51,338.99 C623.16,339.54 623.54,339.73 624.36,339.42 C625.86,338.84 627.42,334.49 626.60,333.17 C625.82,331.91 620.88,332.58 619.93,334.08 C619.16,335.30 619.03,335.30 619.02,334.06 C619.01,333.27 618.05,331.62 616.90,330.39 C613.98,327.28 615.28,325.70 620.10,326.52 C622.25,326.88 624.00,326.80 624.00,326.34 C624.00,325.88 625.06,324.27 626.35,322.77 L 628.69 320.05 L 630.70 322.27 C631.80,323.50 632.98,325.28 633.32,326.24 C633.81,327.65 634.41,327.79 636.46,327.01 C638.50,326.24 639.00,326.35 639.00,327.58 C639.00,328.56 639.46,328.84 640.25,328.35 C640.99,327.89 640.85,328.58 639.90,330.04 C637.91,333.08 638.72,335.39 641.93,335.84 C644.51,336.21 649.00,338.78 649.00,339.90 C649.00,341.26 643.22,343.93 641.15,343.53 C639.53,343.22 639.00,343.61 639.00,345.12 C639.00,346.22 638.55,346.84 638.00,346.50 C637.45,346.16 637.00,346.89 637.00,348.13 C637.00,350.33 636.96,350.33 635.53,348.44 C634.13,346.58 634.06,346.62 634.03,349.31 C634.01,350.92 633.57,351.85 633.00,351.50 C632.45,351.16 632.00,351.81 632.00,352.94 C632.00,354.07 631.44,355.03 630.75,355.07 ZM 127.65 384.32 C127.23,383.90 126.47,384.22 125.96,385.03 C125.35,385.99 125.03,386.08 125.02,385.27 C125.01,384.59 123.76,383.76 122.25,383.43 C116.49,382.15 113.00,380.81 113.00,379.86 C113.00,379.32 113.48,379.18 114.07,379.55 C114.66,379.91 114.55,379.20 113.82,377.97 C112.78,376.21 112.76,375.64 113.75,375.29 C114.44,375.04 115.00,374.17 115.00,373.36 C115.00,372.55 115.42,372.14 115.94,372.46 C116.45,372.78 117.34,372.25 117.91,371.27 C118.48,370.30 118.95,370.06 118.97,370.75 C118.99,371.44 119.41,372.00 119.91,372.00 C120.40,372.00 120.58,371.11 120.29,370.01 C120.00,368.89 119.28,368.31 118.64,368.67 C118.01,369.03 118.56,368.16 119.85,366.74 C123.01,363.27 121.16,360.09 117.82,363.25 C116.33,364.66 112.00,365.38 112.00,364.21 C112.00,362.40 115.33,358.91 116.59,359.40 C117.35,359.69 117.93,359.61 117.87,359.21 C117.81,358.82 117.82,357.12 117.88,355.43 C117.99,352.72 118.34,352.36 121.00,352.36 C123.47,352.36 124.00,352.77 124.00,354.68 C124.00,355.96 123.44,357.03 122.75,357.07 C122.06,357.10 122.51,357.62 123.75,358.22 C124.99,358.82 126.00,359.88 126.00,360.57 C126.00,361.27 126.23,362.44 126.51,363.17 C126.78,363.90 125.93,365.75 124.61,367.28 C122.56,369.66 122.38,370.41 123.36,372.50 L 124.50 374.95 L 125.15 372.72 C125.51,371.50 125.85,371.04 125.90,371.69 C125.96,372.35 126.85,372.72 127.90,372.52 C129.27,372.26 129.93,372.85 130.27,374.65 C130.84,377.62 128.73,385.40 127.65,384.32 ZM 143.20 402.23 C143.90,402.47 142.76,402.72 140.67,402.80 C137.24,402.93 136.74,402.62 135.44,399.50 C133.76,395.48 133.59,393.63 135.00,394.50 C135.55,394.84 136.00,394.69 136.00,394.17 C136.00,393.64 135.30,392.95 134.45,392.62 C133.59,392.29 133.11,392.38 133.38,392.81 C133.65,393.24 133.50,394.18 133.06,394.90 C132.49,395.82 132.05,395.88 131.57,395.11 C131.19,394.50 131.26,394.00 131.73,394.00 C132.19,394.00 132.65,393.04 132.73,391.87 C132.82,390.70 133.86,388.85 135.04,387.75 C136.46,386.43 137.03,384.94 136.73,383.37 C136.43,381.82 136.74,381.00 137.64,381.00 C138.39,381.00 139.00,380.55 139.00,380.00 C139.00,379.45 140.29,379.00 141.88,379.00 C144.27,379.00 144.85,379.50 145.35,382.00 C145.68,383.65 145.68,386.35 145.35,388.00 C144.98,389.87 145.27,391.63 146.13,392.69 C146.88,393.62 146.98,394.07 146.34,393.69 C145.69,393.30 144.97,393.55 144.73,394.24 C144.41,395.17 143.77,395.04 142.32,393.75 C139.87,391.58 139.38,391.57 138.58,393.64 C138.08,394.95 138.23,395.05 139.34,394.13 C140.42,393.24 141.04,393.34 142.07,394.59 C143.81,396.68 144.14,399.12 142.90,400.62 C142.23,401.42 142.33,401.94 143.20,402.23 ZM 124.46 164.56 C125.79,167.74 125.75,168.06 123.95,169.03 C122.15,169.99 121.58,169.64 121.88,167.75 C121.95,167.34 121.55,167.00 121.00,167.00 C120.45,167.00 120.00,166.10 120.00,165.00 C120.00,163.90 119.52,163.00 118.94,163.00 C118.36,163.00 118.16,162.55 118.50,162.00 C118.84,161.45 118.64,161.00 118.06,161.00 C117.48,161.00 117.00,160.10 117.00,158.99 C117.00,157.25 117.58,157.02 121.25,157.24 C123.59,157.38 125.83,157.95 126.23,158.50 C126.65,159.06 126.98,158.71 126.98,157.69 C126.99,156.70 127.45,156.16 128.00,156.50 C128.55,156.84 129.00,156.57 129.00,155.90 C129.00,155.17 129.82,155.43 131.08,156.57 C133.12,158.42 133.19,158.42 134.31,156.48 C134.93,155.39 135.50,154.27 135.56,154.00 C135.62,153.73 136.02,152.72 136.44,151.77 C137.47,149.42 141.89,149.79 141.71,152.21 C141.64,153.20 141.19,154.00 140.73,154.00 C140.26,154.00 140.13,155.60 140.44,157.56 C140.80,159.82 140.64,160.90 140.00,160.50 C137.69,159.07 139.24,162.43 142.15,165.14 C144.47,167.31 145.01,168.39 144.20,169.20 C142.68,170.72 140.01,168.45 139.98,165.63 C139.97,163.84 139.79,163.74 138.89,165.00 C137.99,166.25 137.91,166.19 138.41,164.66 C138.83,163.36 138.42,162.66 137.00,162.29 C135.90,162.00 135.00,161.42 135.00,161.00 C135.00,160.58 134.10,160.00 133.00,159.71 C131.70,159.37 131.00,159.68 131.00,160.59 C131.00,162.27 128.33,162.49 127.79,160.87 C127.56,160.18 126.54,160.01 125.22,160.43 C123.13,161.09 123.10,161.29 124.46,164.56 ZM 136.00 372.17 C136.00,373.17 135.52,374.00 134.94,374.00 C134.36,374.00 134.18,373.52 134.54,372.94 C134.90,372.35 134.39,370.98 133.40,369.89 C131.40,367.68 130.68,365.00 132.09,365.00 C132.59,365.00 133.00,363.62 133.00,361.94 C133.00,360.26 133.40,359.13 133.90,359.44 C135.04,360.14 136.22,357.16 135.35,355.76 C134.96,355.13 135.17,354.98 135.85,355.40 C136.55,355.84 137.03,355.41 137.08,354.31 C137.12,353.31 137.38,353.04 137.64,353.69 C138.21,355.08 140.68,354.39 143.39,352.10 C145.17,350.60 145.22,350.62 144.19,352.50 C140.06,360.06 139.68,361.90 141.24,366.79 C142.07,369.38 142.56,371.99 142.33,372.58 C141.90,373.69 139.06,374.14 139.17,373.08 C139.37,371.23 138.83,370.33 137.50,370.33 C136.68,370.33 136.00,371.16 136.00,372.17 ZM 158.37 360.30 C157.58,361.08 160.26,360.59 161.71,359.69 C162.37,359.28 162.67,358.29 162.37,357.51 C161.58,355.47 166.34,354.57 170.75,355.92 C170.89,355.97 171.29,355.96 171.64,355.91 C171.99,355.87 172.56,356.29 172.91,356.86 C173.26,357.42 174.01,356.41 174.57,354.61 C175.59,351.37 175.56,351.34 172.38,351.42 C170.61,351.46 168.86,351.81 168.48,352.18 C167.13,353.54 165.29,351.84 165.55,349.46 C165.79,347.35 165.57,347.16 163.91,348.05 C162.86,348.61 162.00,349.31 162.00,349.59 C162.00,349.88 162.42,349.86 162.93,349.54 C163.44,349.23 164.12,349.38 164.43,349.88 C164.74,350.38 164.27,351.07 163.39,351.40 C162.51,351.74 161.99,352.58 162.22,353.26 C162.46,353.94 161.83,355.29 160.83,356.25 C159.82,357.21 159.00,357.65 159.00,357.21 C159.00,356.78 157.99,356.36 156.75,356.27 L 154.50 356.12 L 156.71 357.94 C157.92,358.93 158.67,360.00 158.37,360.30 ZM 172.97 335.19 C173.43,335.36 173.18,336.07 172.42,336.77 C171.26,337.84 171.09,337.59 171.36,335.24 C171.61,333.09 171.27,332.43 169.92,332.43 C168.94,332.43 168.34,332.74 168.57,333.12 C168.81,333.50 168.10,333.58 166.99,333.29 C163.99,332.50 163.80,331.52 166.09,328.62 C168.45,325.61 174.00,324.87 174.00,327.56 C174.00,328.52 174.46,328.83 175.21,328.37 C175.88,327.96 175.46,329.25 174.28,331.25 C173.10,333.25 172.51,335.02 172.97,335.19 ZM 138.88 347.57 C138.25,347.96 136.04,348.33 133.97,348.39 C130.75,348.48 130.26,348.22 130.59,346.55 C130.79,345.48 131.66,344.21 132.50,343.74 C133.35,343.26 133.78,342.45 133.46,341.94 C132.62,340.57 134.39,340.79 135.82,342.22 C136.79,343.19 137.57,342.84 139.52,340.57 L 142.00 337.69 L 141.98 340.59 C141.97,342.84 141.75,343.16 141.00,342.00 C140.47,341.17 140.02,340.97 140.02,341.55 C140.01,342.13 140.54,343.14 141.20,343.80 C142.13,344.73 142.01,345.00 140.64,345.00 C139.67,345.00 139.14,345.42 139.46,345.93 C139.77,346.44 139.52,347.18 138.88,347.57 ZM 187.57 347.07 C187.57,348.13 187.52,349.00 187.47,349.00 C186.88,349.00 183.21,343.98 183.76,343.94 C184.17,343.90 183.49,343.47 182.27,342.98 C180.68,342.34 180.22,341.56 180.68,340.29 C181.03,339.30 180.99,338.80 180.58,339.16 C180.18,339.52 179.76,340.42 179.65,341.16 C179.30,343.54 176.00,343.79 176.00,341.44 C176.00,340.58 175.64,340.10 175.20,340.38 C174.76,340.65 173.84,340.52 173.15,340.10 C172.21,339.51 172.32,338.98 173.64,337.91 C175.13,336.70 175.26,336.70 174.54,337.91 C173.88,338.99 174.18,339.19 175.85,338.75 C177.20,338.40 177.76,338.57 177.36,339.22 C177.00,339.81 177.33,340.05 178.11,339.78 C178.87,339.51 179.37,338.44 179.21,337.40 C179.04,336.33 179.26,335.94 179.71,336.50 C180.14,337.05 182.20,338.97 184.28,340.75 C186.37,342.54 187.60,344.00 187.03,344.00 C186.47,344.00 186.00,344.48 186.00,345.06 C186.00,345.64 186.35,345.90 186.79,345.63 C187.22,345.37 187.57,346.01 187.57,347.07 ZM 128.60 151.27 C128.92,151.59 128.71,152.67 128.12,153.68 C127.54,154.68 127.05,155.01 127.03,154.40 C127.01,153.80 126.11,152.90 125.03,152.40 C122.66,151.32 123.64,149.15 126.76,148.55 C127.92,148.32 129.84,147.62 131.02,146.99 C132.79,146.04 133.41,146.16 134.55,147.67 C135.31,148.68 135.94,149.95 135.95,150.50 C135.96,151.05 135.53,150.82 135.00,150.00 C134.47,149.18 134.02,148.85 134.02,149.29 C134.01,149.72 133.15,149.61 132.11,149.06 C130.73,148.32 129.91,148.41 129.11,149.36 C128.51,150.09 128.28,150.95 128.60,151.27 ZM 117.46 394.26 C112.97,399.10 111.44,397.25 115.08,391.37 C116.23,389.52 117.80,388.00 118.58,388.00 C120.82,388.00 120.24,391.26 117.46,394.26 ZM 109.96 366.54 C108.44,368.38 106.58,368.40 105.07,366.59 C103.75,365.00 105.08,363.70 108.27,363.46 C110.67,363.28 111.46,364.74 109.96,366.54 ZM 136.74 335.75 C136.20,336.44 135.42,337.00 135.00,337.00 C134.12,337.00 131.52,334.06 132.11,333.73 C134.90,332.12 137.04,331.00 137.32,331.00 C138.10,331.00 137.66,334.59 136.74,335.75 ZM 150.00 157.50 C152.28,159.18 152.83,160.00 151.69,160.00 C150.76,160.00 150.00,159.50 150.00,158.89 C150.00,158.20 149.04,158.03 147.45,158.42 C144.15,159.25 142.52,158.28 144.07,156.41 C145.64,154.52 146.07,154.60 150.00,157.50 ZM 126.64 388.50 C128.04,389.90 128.08,390.34 126.89,391.45 C125.06,393.18 123.00,392.33 123.00,389.86 C123.00,388.77 123.45,388.16 124.00,388.50 C124.55,388.84 125.00,388.61 125.00,387.99 C125.00,387.35 125.72,387.58 126.64,388.50 ZM 186.00 372.50 C184.92,373.80 183.17,374.51 182.92,373.75 C182.07,371.21 182.61,369.17 184.10,369.28 C185.07,369.36 185.64,369.77 185.37,370.21 C185.10,370.64 185.41,371.00 186.06,371.00 C186.94,371.00 186.93,371.38 186.00,372.50 ZM 123.51 379.04 C124.04,380.69 124.45,380.87 125.58,379.93 C126.36,379.28 126.99,378.25 126.98,377.63 C126.98,377.01 126.53,377.17 126.00,378.00 C125.17,379.28 125.03,379.25 125.02,377.75 C125.00,375.79 122.50,375.38 121.40,377.15 C120.98,377.84 121.13,378.04 121.77,377.64 C122.37,377.27 123.15,377.90 123.51,379.04 ZM 161.00 326.42 C161.00,328.03 158.75,328.03 157.25,326.42 C156.37,325.48 156.38,325.07 157.29,324.74 C159.05,324.09 161.00,324.97 161.00,326.42 ZM 126.89 331.63 C125.29,333.56 125.00,333.36 125.00,330.38 C125.00,328.15 125.23,327.94 126.51,329.01 C127.66,329.96 127.75,330.59 126.89,331.63 ZM 148.00 339.89 C148.00,340.38 147.42,341.01 146.70,341.28 C145.11,341.89 144.67,338.32 146.22,337.37 C146.87,336.96 147.02,337.15 146.60,337.85 C146.20,338.48 146.36,339.00 146.94,339.00 C147.52,339.00 148.00,339.40 148.00,339.89 Z" fill="rgb(247,62,26)"/>
<path d="M 190.58 394.25 C190.17,393.84 189.32,393.50 188.70,393.50 C187.41,393.50 185.19,386.91 185.08,382.75 C184.99,379.80 184.10,379.30 182.24,381.16 C181.60,381.80 179.82,382.46 178.29,382.63 C172.21,383.31 170.35,383.66 169.29,384.32 C168.59,384.75 168.36,384.34 168.66,383.18 C168.92,382.18 168.40,380.74 167.49,379.99 C165.68,378.49 161.78,377.83 162.61,379.17 C162.89,379.63 162.42,380.00 161.56,380.00 C160.70,380.00 160.00,380.42 160.00,380.94 C160.00,381.45 159.10,381.81 158.00,381.73 C156.90,381.64 156.00,380.92 156.00,380.12 C156.00,378.47 158.85,375.00 160.20,375.00 C160.69,375.00 162.22,373.88 163.59,372.50 C166.53,369.56 167.18,369.37 166.28,371.72 C165.69,373.24 165.80,373.27 167.22,371.97 C168.61,370.69 168.63,370.29 167.38,368.89 C164.86,366.07 164.90,363.01 167.49,360.42 C169.97,357.94 172.54,358.00 172.83,360.54 C172.93,361.34 173.07,362.65 173.17,363.45 C173.30,364.58 173.78,364.66 175.42,363.82 C177.13,362.94 177.28,362.99 176.25,364.08 C174.49,365.94 174.69,367.50 176.50,366.00 C177.71,365.00 178.01,365.02 178.07,366.13 C178.11,366.88 178.53,366.60 179.00,365.50 C179.47,364.40 179.89,363.99 179.93,364.58 C179.97,365.18 180.65,365.67 181.45,365.67 C182.51,365.67 182.65,365.21 181.96,363.93 C180.84,361.84 183.14,360.54 184.88,362.28 C185.71,363.11 186.02,363.02 186.07,361.95 C186.11,361.04 186.42,361.23 186.90,362.43 C187.38,363.65 187.91,363.96 188.34,363.26 C188.71,362.66 188.31,361.45 187.44,360.58 C186.22,359.36 185.41,359.25 183.84,360.08 C182.74,360.68 181.57,360.90 181.25,360.58 C180.93,360.26 181.19,360.00 181.83,360.00 C182.48,360.00 183.00,359.07 183.00,357.94 C183.00,356.62 182.58,356.14 181.83,356.61 C181.06,357.08 180.87,356.79 181.27,355.75 C181.61,354.86 181.02,353.17 179.94,351.93 C178.62,350.41 177.97,350.14 177.91,351.10 C177.87,351.87 177.44,351.19 176.96,349.59 C176.48,347.98 176.36,346.23 176.70,345.68 C177.04,345.13 176.80,345.00 176.15,345.40 C175.45,345.84 174.99,345.42 174.98,344.31 C174.97,342.80 174.81,342.75 174.04,343.98 C173.24,345.24 172.68,345.14 170.17,343.29 C168.37,341.95 166.44,341.33 165.13,341.68 C163.97,341.98 163.21,342.53 163.44,342.90 C163.67,343.27 162.99,343.57 161.93,343.57 C160.87,343.57 160.00,343.19 160.00,342.73 C160.00,342.26 159.58,342.14 159.07,342.46 C158.56,342.77 157.86,342.58 157.51,342.02 C157.16,341.46 155.90,341.04 154.69,341.08 C153.49,341.12 153.07,341.39 153.76,341.66 C154.45,341.94 154.71,342.66 154.34,343.26 C153.92,343.95 154.28,344.11 155.34,343.70 C158.03,342.67 157.39,346.91 154.50,349.18 C152.03,351.12 150.98,356.00 153.02,356.00 C153.59,356.00 153.31,357.12 152.41,358.50 C151.51,359.88 151.16,361.01 151.63,361.02 C152.11,361.03 151.48,361.83 150.22,362.80 C148.80,363.89 147.74,366.04 147.39,368.52 C147.08,370.71 146.57,373.17 146.26,374.00 C145.18,376.86 145.12,378.40 146.03,379.95 C146.53,380.80 146.95,381.06 146.97,380.53 C146.99,379.99 147.72,380.59 148.60,381.84 C149.49,383.11 150.83,383.89 151.60,383.60 C152.37,383.30 153.03,383.61 153.07,384.28 C153.11,384.95 153.53,384.60 154.00,383.50 C154.80,381.65 154.86,381.68 154.93,383.94 C155.00,386.31 155.04,386.32 156.50,384.44 C157.98,382.53 157.99,382.53 157.33,384.50 C156.95,385.60 156.23,386.78 155.72,387.13 C155.20,387.47 155.09,388.69 155.45,389.85 C156.00,391.58 156.75,391.87 159.81,391.55 C161.84,391.34 164.54,391.13 165.81,391.08 C167.08,391.04 167.86,390.58 167.54,390.06 C167.22,389.55 168.43,389.63 170.23,390.23 C172.03,390.84 176.31,391.32 179.75,391.29 C184.22,391.26 186.00,391.61 186.00,392.54 C186.00,393.88 187.48,394.79 189.92,394.92 C190.40,394.95 190.70,394.84 190.76,394.66 L 190.90 395.00 L 180.70 395.02 C163.40,395.05 151.82,398.67 145.67,405.98 C144.27,407.64 142.93,409.00 142.68,409.00 C142.44,409.00 141.04,407.44 139.58,405.52 C138.13,403.61 134.81,400.80 132.22,399.27 C128.25,396.94 126.36,396.50 120.34,396.50 L 114.97 396.50 C115.64,396.05 116.48,395.32 117.46,394.26 C120.24,391.26 120.82,388.00 118.58,388.00 C117.80,388.00 116.23,389.52 115.08,391.37 C113.97,393.17 113.34,394.59 113.13,395.56 L 112.70 388.00 C112.17,378.78 111.77,375.77 111.00,375.00 C110.72,374.73 109.09,372.43 107.37,369.89 L 105.31 366.85 C106.77,368.40 108.51,368.29 109.96,366.54 C111.46,364.74 110.67,363.28 108.27,363.46 C107.11,363.55 106.19,363.77 105.56,364.11 L 110.54 359.66 C118.16,352.84 122.36,345.06 124.14,334.43 C124.47,332.49 124.74,331.05 125.00,329.99 C125.00,330.11 125.00,330.24 125.00,330.38 C125.00,333.36 125.29,333.56 126.89,331.63 C127.75,330.59 127.66,329.96 126.51,329.01 C126.06,328.63 125.74,328.42 125.51,328.39 C125.91,327.49 126.35,327.34 126.95,327.59 C127.80,327.95 130.37,328.67 132.65,329.18 C138.62,330.53 152.18,327.10 163.18,321.46 C167.97,319.01 172.08,317.00 172.33,317.00 C172.58,317.00 173.05,318.46 173.39,320.25 C174.50,326.15 179.81,335.87 184.50,340.55 C187.03,343.08 191.56,346.28 194.57,347.66 L 200.02 350.16 L 198.14 352.83 C189.85,364.59 185.77,382.73 189.45,391.53 L 190.59 394.25 ZM 150.00 157.50 C146.07,154.60 145.64,154.52 144.07,156.41 C142.52,158.28 144.15,159.25 147.45,158.42 C149.04,158.03 150.00,158.20 150.00,158.89 C150.00,159.50 150.76,160.00 151.69,160.00 C151.78,160.00 151.86,160.00 151.93,159.99 C151.27,160.53 150.37,161.19 149.39,161.83 C145.91,164.08 145.82,164.30 146.47,168.68 L 147.15 173.21 L 142.08 172.51 C139.28,172.13 137.00,172.19 137.00,172.66 C136.99,173.12 135.93,174.83 134.63,176.45 L 132.28 179.39 L 129.89 175.71 C127.55,172.11 127.39,172.04 122.70,172.65 L 117.90 173.27 L 118.58 168.14 C118.95,165.31 118.86,163.00 118.38,163.00 C117.90,162.99 116.19,161.95 114.60,160.67 L 111.70 158.35 L 115.43 156.05 C119.10,153.77 119.14,153.68 118.48,148.87 L 118.46 148.73 C118.12,146.24 117.95,144.97 118.49,144.47 C119.05,143.94 120.39,144.26 123.14,144.89 L 123.30 144.93 C126.97,145.78 127.18,145.68 129.68,141.91 C131.10,139.76 132.37,138.00 132.50,138.00 C132.63,138.00 133.90,139.76 135.32,141.91 C137.82,145.68 138.03,145.78 141.70,144.93 L 141.86 144.89 C144.61,144.26 145.95,143.94 146.51,144.47 C147.05,144.97 146.88,146.24 146.54,148.73 L 146.52 148.87 C145.86,153.65 145.92,153.78 149.42,155.95 C151.39,157.17 152.99,158.46 152.99,158.83 C152.98,158.98 152.72,159.29 152.27,159.69 C152.23,159.31 151.48,158.59 150.00,157.50 ZM 127.65 384.32 C128.73,385.40 130.84,377.62 130.27,374.65 C129.93,372.85 129.27,372.26 127.90,372.52 C126.85,372.72 125.96,372.35 125.90,371.69 C125.85,371.04 125.51,371.50 125.15,372.72 L 124.50 374.95 L 123.36 372.50 C122.38,370.41 122.56,369.66 124.61,367.28 C125.93,365.75 126.78,363.90 126.51,363.17 C126.23,362.44 126.00,361.27 126.00,360.57 C126.00,359.88 124.99,358.82 123.75,358.22 C122.51,357.62 122.06,357.10 122.75,357.07 C123.44,357.03 124.00,355.96 124.00,354.68 C124.00,352.77 123.47,352.36 121.00,352.36 C118.34,352.36 117.99,352.72 117.88,355.43 C117.82,357.12 117.81,358.82 117.87,359.21 C117.93,359.61 117.35,359.69 116.59,359.40 C115.33,358.91 112.00,362.40 112.00,364.21 C112.00,365.38 116.33,364.66 117.82,363.25 C121.16,360.09 123.01,363.27 119.85,366.74 C118.56,368.16 118.01,369.03 118.64,368.67 C119.28,368.31 120.00,368.89 120.29,370.01 C120.58,371.11 120.40,372.00 119.91,372.00 C119.41,372.00 118.99,371.44 118.97,370.75 C118.95,370.06 118.48,370.30 117.91,371.27 C117.34,372.25 116.45,372.78 115.94,372.46 C115.42,372.14 115.00,372.55 115.00,373.36 C115.00,374.17 114.44,375.04 113.75,375.29 C112.76,375.64 112.78,376.21 113.82,377.97 C114.55,379.20 114.66,379.91 114.07,379.55 C113.48,379.18 113.00,379.32 113.00,379.86 C113.00,380.81 116.49,382.15 122.25,383.43 C123.76,383.76 125.01,384.59 125.02,385.27 C125.03,386.08 125.35,385.99 125.96,385.03 C126.47,384.22 127.23,383.90 127.65,384.32 ZM 143.20 402.23 C142.33,401.94 142.23,401.42 142.90,400.62 C144.14,399.12 143.81,396.68 142.07,394.59 C141.04,393.34 140.42,393.24 139.34,394.13 C138.23,395.05 138.08,394.95 138.58,393.64 C139.38,391.57 139.87,391.58 142.32,393.75 C143.77,395.04 144.41,395.17 144.73,394.24 C144.97,393.55 145.69,393.30 146.34,393.69 C146.98,394.07 146.88,393.62 146.13,392.69 C145.27,391.63 144.98,389.87 145.35,388.00 C145.68,386.35 145.68,383.65 145.35,382.00 C144.85,379.50 144.27,379.00 141.88,379.00 C140.29,379.00 139.00,379.45 139.00,380.00 C139.00,380.55 138.39,381.00 137.64,381.00 C136.74,381.00 136.43,381.82 136.73,383.37 C137.03,384.94 136.46,386.43 135.04,387.75 C133.86,388.85 132.82,390.70 132.73,391.87 C132.65,393.04 132.19,394.00 131.73,394.00 C131.26,394.00 131.19,394.50 131.57,395.11 C132.05,395.88 132.49,395.82 133.06,394.90 C133.50,394.18 133.65,393.24 133.38,392.81 C133.11,392.38 133.59,392.29 134.45,392.62 C135.30,392.95 136.00,393.64 136.00,394.17 C136.00,394.69 135.55,394.84 135.00,394.50 C133.59,393.63 133.76,395.48 135.44,399.50 C136.74,402.62 137.24,402.93 140.67,402.80 C142.76,402.72 143.90,402.47 143.20,402.23 ZM 124.46 164.56 C123.10,161.29 123.13,161.09 125.22,160.43 C126.54,160.01 127.56,160.18 127.79,160.87 C128.33,162.49 131.00,162.27 131.00,160.59 C131.00,159.68 131.70,159.37 133.00,159.71 C134.10,160.00 135.00,160.58 135.00,161.00 C135.00,161.42 135.90,162.00 137.00,162.29 C138.42,162.66 138.83,163.36 138.41,164.66 C137.91,166.19 137.99,166.25 138.89,165.00 C139.79,163.74 139.97,163.84 139.98,165.63 C140.01,168.45 142.68,170.72 144.20,169.20 C145.01,168.39 144.47,167.31 142.15,165.14 C139.24,162.43 137.69,159.07 140.00,160.50 C140.64,160.90 140.80,159.82 140.44,157.56 C140.13,155.60 140.26,154.00 140.73,154.00 C141.19,154.00 141.64,153.20 141.71,152.21 C141.89,149.79 137.47,149.42 136.44,151.77 C136.02,152.72 135.62,153.73 135.56,154.00 C135.50,154.27 134.93,155.39 134.31,156.48 C133.19,158.42 133.12,158.42 131.08,156.57 C129.82,155.43 129.00,155.17 129.00,155.90 C129.00,156.57 128.55,156.84 128.00,156.50 C127.45,156.16 126.99,156.70 126.98,157.69 C126.98,158.71 126.65,159.06 126.23,158.50 C125.83,157.95 123.59,157.38 121.25,157.24 C117.58,157.02 117.00,157.25 117.00,158.99 C117.00,160.10 117.48,161.00 118.06,161.00 C118.64,161.00 118.84,161.45 118.50,162.00 C118.16,162.55 118.36,163.00 118.94,163.00 C119.52,163.00 120.00,163.90 120.00,165.00 C120.00,166.10 120.45,167.00 121.00,167.00 C121.55,167.00 121.95,167.34 121.88,167.75 C121.58,169.64 122.15,169.99 123.95,169.03 C125.75,168.06 125.79,167.74 124.46,164.56 ZM 136.00 372.17 C136.00,371.16 136.68,370.33 137.50,370.33 C138.83,370.33 139.37,371.23 139.17,373.08 C139.06,374.14 141.90,373.69 142.33,372.58 C142.56,371.99 142.07,369.38 141.24,366.79 C139.68,361.90 140.06,360.06 144.19,352.50 C145.22,350.62 145.17,350.60 143.39,352.10 C140.68,354.39 138.21,355.08 137.64,353.69 C137.38,353.04 137.12,353.31 137.08,354.31 C137.03,355.41 136.55,355.84 135.85,355.40 C135.17,354.98 134.96,355.13 135.35,355.76 C136.22,357.16 135.04,360.14 133.90,359.44 C133.40,359.13 133.00,360.26 133.00,361.94 C133.00,363.62 132.59,365.00 132.09,365.00 C130.68,365.00 131.40,367.68 133.40,369.89 C134.39,370.98 134.90,372.35 134.54,372.94 C134.18,373.52 134.36,374.00 134.94,374.00 C135.52,374.00 136.00,373.17 136.00,372.17 ZM 624.63 353.50 C624.01,353.13 622.52,353.17 619.50,353.54 C613.45,354.30 613.26,354.08 614.91,348.32 C615.76,345.34 615.57,344.98 611.91,342.56 C609.76,341.14 608.00,339.79 608.00,339.57 C608.00,339.35 609.62,338.16 611.61,336.93 C615.16,334.74 615.21,334.63 614.56,329.72 C613.91,324.88 613.96,324.76 616.20,325.39 C618.67,326.10 620.56,326.54 621.85,326.72 C621.33,326.69 620.73,326.62 620.10,326.52 C615.28,325.70 613.98,327.28 616.90,330.39 C618.05,331.62 619.01,333.27 619.02,334.06 C619.03,335.30 619.16,335.30 619.93,334.08 C620.88,332.58 625.82,331.91 626.60,333.17 C627.42,334.49 625.86,338.84 624.36,339.42 C623.54,339.73 623.16,339.54 623.51,338.99 C623.84,338.44 623.39,338.00 622.50,338.00 C621.61,338.00 621.16,337.55 621.50,337.00 C622.43,335.49 614.80,335.83 612.75,337.39 C611.03,338.70 610.19,342.62 611.85,341.59 C613.40,340.63 617.00,345.02 617.00,347.88 C617.00,350.67 619.98,353.00 623.55,353.00 C623.98,353.00 624.37,353.19 624.63,353.50 ZM 630.75 355.07 C631.44,355.03 632.00,354.07 632.00,352.94 C632.00,351.81 632.45,351.16 633.00,351.50 C633.57,351.85 634.01,350.92 634.03,349.31 C634.06,346.62 634.13,346.58 635.53,348.44 C636.96,350.33 637.00,350.33 637.00,348.13 C637.00,346.89 637.45,346.16 638.00,346.50 C638.55,346.84 639.00,346.22 639.00,345.12 C639.00,343.61 639.53,343.22 641.15,343.53 C642.34,343.76 644.75,342.98 646.59,342.01 C646.23,342.27 645.84,342.53 645.43,342.79 C642.00,345.02 641.91,345.23 642.58,349.68 L 643.27 354.27 L 638.68 353.58 C634.23,352.91 634.02,353.00 631.79,356.43 C630.53,358.38 629.19,359.98 628.81,359.99 C627.97,360.00 625.96,357.18 625.25,355.29 C625.58,355.66 626.24,355.76 627.25,355.57 C628.49,355.34 630.06,355.12 630.75,355.07 ZM 158.37 360.30 C158.67,360.00 157.92,358.93 156.71,357.94 L 154.50 356.12 L 156.75 356.27 C157.99,356.36 159.00,356.78 159.00,357.21 C159.00,357.65 159.82,357.21 160.83,356.25 C161.83,355.29 162.46,353.94 162.22,353.26 C161.99,352.58 162.51,351.74 163.39,351.40 C164.27,351.07 164.74,350.38 164.43,349.88 C164.12,349.38 163.44,349.23 162.93,349.54 C162.42,349.86 162.00,349.88 162.00,349.59 C162.00,349.31 162.86,348.61 163.91,348.05 C165.57,347.16 165.79,347.35 165.55,349.46 C165.29,351.84 167.13,353.54 168.48,352.18 C168.86,351.81 170.61,351.46 172.38,351.42 C175.56,351.34 175.59,351.37 174.57,354.61 C174.01,356.41 173.26,357.42 172.91,356.86 C172.56,356.29 171.99,355.87 171.64,355.91 C171.29,355.96 170.89,355.97 170.75,355.92 C166.34,354.57 161.58,355.47 162.37,357.51 C162.67,358.29 162.37,359.28 161.71,359.69 C160.26,360.59 157.58,361.08 158.37,360.30 ZM 172.97 335.19 C172.51,335.02 173.10,333.25 174.28,331.25 C175.46,329.25 175.88,327.96 175.21,328.37 C174.46,328.83 174.00,328.52 174.00,327.56 C174.00,324.87 168.45,325.61 166.09,328.62 C163.80,331.52 163.99,332.50 166.99,333.29 C168.10,333.58 168.81,333.50 168.57,333.12 C168.34,332.74 168.94,332.43 169.92,332.43 C171.27,332.43 171.61,333.09 171.36,335.24 C171.09,337.59 171.26,337.84 172.42,336.77 C173.18,336.07 173.43,335.36 172.97,335.19 ZM 138.88 347.57 C139.52,347.18 139.77,346.44 139.46,345.93 C139.14,345.42 139.67,345.00 140.64,345.00 C142.01,345.00 142.13,344.73 141.20,343.80 C140.54,343.14 140.01,342.13 140.02,341.55 C140.02,340.97 140.47,341.17 141.00,342.00 C141.75,343.16 141.97,342.84 141.98,340.59 L 142.00 337.69 L 139.52 340.57 C137.57,342.84 136.79,343.19 135.82,342.22 C134.39,340.79 132.62,340.57 133.46,341.94 C133.78,342.45 133.35,343.26 132.50,343.74 C131.66,344.21 130.79,345.48 130.59,346.55 C130.26,348.22 130.75,348.48 133.97,348.39 C136.04,348.33 138.25,347.96 138.88,347.57 ZM 187.57 347.07 C187.57,346.01 187.22,345.37 186.79,345.63 C186.35,345.90 186.00,345.64 186.00,345.06 C186.00,344.48 186.47,344.00 187.03,344.00 C187.60,344.00 186.37,342.54 184.28,340.75 C182.20,338.97 180.14,337.05 179.71,336.50 C179.26,335.94 179.04,336.33 179.21,337.40 C179.37,338.44 178.87,339.51 178.11,339.78 C177.33,340.05 177.00,339.81 177.36,339.22 C177.76,338.57 177.20,338.40 175.85,338.75 C174.18,339.19 173.88,338.99 174.54,337.91 C175.26,336.70 175.13,336.70 173.64,337.91 C172.32,338.98 172.21,339.51 173.15,340.10 C173.84,340.52 174.76,340.65 175.20,340.38 C175.64,340.10 176.00,340.58 176.00,341.44 C176.00,343.79 179.30,343.54 179.65,341.16 C179.76,340.42 180.18,339.52 180.58,339.16 C180.99,338.80 181.03,339.30 180.68,340.29 C180.22,341.56 180.68,342.34 182.27,342.98 C183.49,343.47 184.17,343.90 183.76,343.94 C183.21,343.98 186.88,349.00 187.47,349.00 C187.52,349.00 187.57,348.13 187.57,347.07 ZM 128.60 151.27 C128.28,150.95 128.51,150.09 129.11,149.36 C129.91,148.41 130.73,148.32 132.11,149.06 C133.15,149.61 134.01,149.72 134.02,149.29 C134.02,148.85 134.47,149.18 135.00,150.00 C135.53,150.82 135.96,151.05 135.95,150.50 C135.94,149.95 135.31,148.68 134.55,147.67 C133.41,146.16 132.79,146.04 131.02,146.99 C129.84,147.62 127.92,148.32 126.76,148.55 C123.64,149.15 122.66,151.32 125.03,152.40 C126.11,152.90 127.01,153.80 127.03,154.40 C127.05,155.01 127.54,154.68 128.12,153.68 C128.71,152.67 128.92,151.59 128.60,151.27 ZM 646.29 337.51 C644.87,336.71 643.18,336.02 641.93,335.84 C638.72,335.39 637.91,333.08 639.90,330.04 C640.85,328.58 640.99,327.89 640.25,328.35 C639.46,328.84 639.00,328.56 639.00,327.58 C639.00,326.35 638.50,326.24 636.46,327.01 C636.09,327.15 635.77,327.27 635.49,327.34 C636.01,327.17 636.70,326.90 637.60,326.52 C642.99,324.27 643.26,324.45 642.52,329.87 C641.86,334.65 641.92,334.78 645.42,336.95 C645.72,337.14 646.01,337.32 646.29,337.51 ZM 136.74 335.75 C137.66,334.59 138.10,331.00 137.32,331.00 C137.04,331.00 134.90,332.12 132.11,333.73 C131.52,334.06 134.12,337.00 135.00,337.00 C135.42,337.00 136.20,336.44 136.74,335.75 ZM 126.64 388.50 C125.72,387.58 125.00,387.35 125.00,387.99 C125.00,388.61 124.55,388.84 124.00,388.50 C123.45,388.16 123.00,388.77 123.00,389.86 C123.00,392.33 125.06,393.18 126.89,391.45 C128.08,390.34 128.04,389.90 126.64,388.50 ZM 186.00 372.50 C186.93,371.38 186.94,371.00 186.06,371.00 C185.41,371.00 185.10,370.64 185.37,370.21 C185.64,369.77 185.07,369.36 184.10,369.28 C182.61,369.17 182.07,371.21 182.92,373.75 C183.17,374.51 184.92,373.80 186.00,372.50 ZM 123.51 379.04 C123.15,377.90 122.37,377.27 121.77,377.64 C121.13,378.04 120.98,377.84 121.40,377.15 C122.50,375.38 125.00,375.79 125.02,377.75 C125.03,379.25 125.17,379.28 126.00,378.00 C126.53,377.17 126.98,377.01 126.98,377.63 C126.99,378.25 126.36,379.28 125.58,379.93 C124.45,380.87 124.04,380.69 123.51,379.04 ZM 161.00 326.42 C161.00,324.97 159.05,324.09 157.29,324.74 C156.38,325.07 156.37,325.48 157.25,326.42 C158.75,328.03 161.00,328.03 161.00,326.42 ZM 148.00 339.89 C148.00,339.40 147.52,339.00 146.94,339.00 C146.36,339.00 146.20,338.48 146.60,337.85 C147.02,337.15 146.87,336.96 146.22,337.37 C144.67,338.32 145.11,341.89 146.70,341.28 C147.42,341.01 148.00,340.38 148.00,339.89 ZM 104.71 364.87 C104.54,365.18 104.52,365.52 104.65,365.89 L 104.24 365.29 ZM 633.33 326.27 C633.34,326.30 633.35,326.33 633.36,326.36 C633.34,326.32 633.33,326.28 633.32,326.24 C633.31,326.22 633.30,326.19 633.29,326.17 C633.30,326.21 633.32,326.24 633.33,326.27 Z" fill="rgb(248,63,28)"/>
<path d="M 451.00 490.59 L 451.00 488.25 C451.00,484.41 453.60,481.00 456.52,481.00 C457.95,481.00 460.38,482.45 462.47,484.54 L 464.85 486.92 C464.90,487.28 464.95,487.47 465.01,487.50 C465.05,487.53 465.10,487.43 465.14,487.21 L 466.01 488.08 L 465.76 411.31 L 466.01 487.82 L 468.26 491.77 L 470.50 495.72 L 470.50 481.18 C470.51,481.77 470.52,482.33 470.54,482.87 C470.63,487.48 470.74,490.00 470.87,490.00 C470.88,490.00 470.90,490.00 470.91,490.00 C470.92,490.00 470.92,490.00 470.92,490.00 C471.06,490.00 471.22,489.82 471.38,489.49 C471.75,488.81 472.14,487.53 472.37,486.08 C473.08,481.63 477.31,476.00 479.93,476.00 C482.40,476.00 484.80,478.96 486.95,484.64 C487.96,487.31 489.49,489.64 490.35,489.81 C491.21,489.99 493.88,488.08 496.28,485.56 C501.62,480.00 504.84,479.56 508.00,484.00 C509.35,485.89 509.90,487.74 509.50,489.00 C509.05,490.42 509.32,491.00 510.43,491.00 C510.49,491.00 510.54,491.00 510.60,490.99 C510.63,491.00 510.67,491.00 510.70,491.00 C510.97,491.00 511.20,490.86 511.39,490.58 C511.21,490.86 510.99,491.00 510.73,491.00 C510.02,491.00 508.78,493.61 507.91,496.94 L 506.36 502.87 L 509.32 500.39 C515.94,494.82 524.02,492.42 526.80,495.20 C529.67,498.07 527.58,506.07 522.32,512.38 C521.00,513.96 520.05,515.37 520.21,515.52 C520.37,515.67 523.33,515.20 526.80,514.48 C535.48,512.67 542.00,514.66 542.00,519.12 C542.00,521.60 536.01,528.14 531.55,530.54 C529.60,531.59 528.00,532.75 528.00,533.10 C528.00,533.46 530.14,533.95 532.75,534.20 C546.66,535.55 551.17,544.89 539.98,549.17 C537.52,550.12 533.84,550.92 531.81,550.95 C527.70,551.01 525.93,552.53 528.88,553.46 C535.26,555.49 542.76,564.04 541.53,567.90 C540.25,571.93 532.83,573.06 524.41,570.51 C521.71,569.69 519.30,569.02 519.06,569.01 C518.82,569.00 519.79,570.24 521.21,571.75 C527.29,578.21 529.91,586.69 526.80,589.80 C523.92,592.68 515.83,590.42 509.68,585.02 C507.65,583.25 506.00,581.95 506.01,582.15 C506.02,582.34 506.69,584.71 507.51,587.41 C509.61,594.34 509.41,599.21 506.87,602.44 C505.17,604.60 504.21,605.02 502.12,604.50 C498.59,603.63 495.35,600.47 492.01,594.67 L 489.24 589.85 L 488.15 596.03 C487.55,599.43 486.26,603.57 485.28,605.24 C482.52,609.95 479.44,610.59 476.01,607.17 C472.80,603.96 471.01,598.55 471.01,592.05 L 471.00 587.61 L 468.44 592.74 C465.61,598.42 459.01,605.00 456.15,605.00 C451.25,605.00 449.06,597.66 451.37,589.00 C452.18,585.98 452.70,583.37 452.54,583.21 C452.38,583.05 450.96,584.00 449.38,585.32 C442.83,590.78 434.69,592.74 431.99,589.49 C429.96,587.05 431.59,581.05 436.01,574.64 C438.76,570.66 439.49,568.99 438.28,569.48 C437.30,569.88 433.79,570.68 430.48,571.26 C422.71,572.64 418.65,571.04 418.20,566.44 C417.81,562.46 420.77,558.74 427.31,555.01 C432.77,551.89 432.59,551.56 424.82,550.52 C415.63,549.30 410.23,542.82 414.89,538.60 C417.56,536.18 423.68,534.10 428.25,534.04 C432.77,533.99 433.09,532.69 428.99,531.00 C427.34,530.31 424.16,527.98 421.93,525.82 C418.61,522.59 417.94,521.32 418.19,518.70 C418.65,513.95 422.61,512.35 430.48,513.74 C433.79,514.32 437.40,515.16 438.50,515.60 C440.13,516.25 439.96,515.76 437.60,512.95 C434.18,508.90 431.05,502.41 431.02,499.32 C430.99,496.44 433.55,494.00 436.61,494.00 C439.79,494.00 445.99,497.18 450.46,501.10 L 453.98 504.19 L 452.49 499.97 C451.67,497.65 451.00,494.69 451.00,493.40 C451.00,491.08 450.88,491.06 438.27,490.78 L 451.00 491.06 L 451.00 490.60 L 451.50 490.60 ZM 234.74 460.29 C235.25,461.41 235.74,462.17 236.16,462.59 C236.27,462.73 236.38,462.87 236.50,463.00 C237.32,463.91 238.00,465.77 238.00,467.13 C238.00,467.22 238.00,467.31 238.01,467.40 C238.01,467.45 238.01,467.50 238.01,467.55 C238.00,468.62 238.67,470.30 239.76,472.21 C240.09,472.83 240.45,473.46 240.83,474.05 C241.77,475.53 242.81,476.93 243.95,478.26 C242.45,476.62 241.06,474.87 239.78,473.00 C238.14,470.59 238.08,471.07 238.29,485.43 L 238.50 500.35 L 252.75 506.56 C275.90,516.65 282.33,521.31 282.33,527.95 C282.33,529.61 281.47,531.95 280.42,533.14 C277.84,536.06 264.54,542.20 253.50,545.57 C248.55,547.08 244.43,548.35 244.36,548.41 C244.28,548.46 245.30,553.22 246.62,559.00 C247.95,564.78 249.31,573.78 249.64,579.00 C250.19,587.69 250.06,588.73 248.11,591.17 C245.14,594.89 241.08,595.57 235.80,593.23 C229.32,590.35 216.65,579.68 208.64,570.33 C204.71,565.76 201.27,562.02 201.00,562.04 C200.73,562.05 198.48,564.85 196.00,568.27 C188.86,578.12 178.93,588.12 174.21,590.22 C170.01,592.09 169.84,592.09 166.71,590.26 C159.10,585.82 154.55,573.05 154.52,556.00 C154.51,549.35 155.06,542.58 155.82,539.95 L 157.15 535.41 L 152.52 528.45 C149.98,524.63 145.88,517.40 143.41,512.38 C135.27,495.81 135.37,485.84 143.71,482.34 C149.09,480.08 161.41,481.14 175.66,485.09 L 187.11 488.26 L 184.04 490.12 C174.79,495.75 174.82,509.32 184.10,514.05 C186.20,515.12 189.08,516.00 190.49,516.00 C194.40,516.00 199.41,513.56 201.83,510.49 C203.50,508.37 204.00,508.13 204.00,509.46 C204.00,512.71 207.33,518.23 210.42,520.11 C216.47,523.80 225.56,521.65 229.54,515.59 C230.44,514.21 231.38,511.15 231.63,508.79 L 232.08 504.50 L 230.65 508.29 C231.19,506.02 230.83,503.58 229.55,501.09 C227.07,496.31 221.27,495.08 216.63,497.62 C217.69,496.97 218.80,496.46 219.76,496.20 L 223.50 495.21 L 218.70 495.10 C213.29,494.99 208.61,496.99 206.92,500.15 C206.01,501.84 205.61,501.99 204.91,500.89 C204.22,499.80 204.03,499.90 204.02,501.35 C204.01,502.43 202.95,504.06 201.52,505.62 C204.45,502.25 204.69,499.23 202.49,494.98 C200.27,490.69 196.09,489.08 191.53,490.48 C192.42,490.18 193.24,490.00 193.81,490.00 C195.10,490.00 195.84,489.56 195.50,488.99 C195.15,488.44 199.29,483.59 204.69,478.22 C215.77,467.19 225.29,461.00 231.16,461.00 L 234.87 461.00 ZM 493.89 532.21 C492.84,534.17 492.97,534.26 495.99,533.65 C501.62,532.53 504.48,530.66 504.80,527.91 C504.97,526.49 504.47,524.80 503.69,524.16 C502.08,522.82 491.22,520.44 490.42,521.25 C490.12,521.55 491.03,522.94 492.44,524.35 C489.36,521.34 485.95,521.36 483.08,524.41 C480.10,527.59 480.72,530.11 485.00,532.25 C489.53,534.51 492.64,534.47 493.94,532.11 C493.92,532.15 493.90,532.18 493.89,532.21 ZM 467.91 532.16 C466.89,534.07 467.03,534.15 470.16,533.48 C482.84,530.75 481.97,523.47 468.74,521.48 C466.13,521.09 464.00,521.03 464.00,521.34 C464.00,521.65 465.12,523.03 466.50,524.41 C463.50,521.45 460.10,521.33 457.13,524.09 C454.01,527.00 454.73,530.11 459.00,532.25 C463.55,534.52 466.65,534.47 467.95,532.10 C467.94,532.12 467.92,532.14 467.91,532.16 ZM 205.77 538.45 C207.81,537.60 210.53,535.91 211.82,534.70 C213.35,533.26 215.43,532.50 217.83,532.50 C222.54,532.50 223.06,530.94 218.81,529.57 C216.55,528.84 215.40,527.78 215.18,526.25 C214.65,522.50 212.16,523.59 211.81,527.72 C210.94,538.12 193.10,538.87 187.53,528.73 C185.66,525.33 185.65,525.04 187.28,523.24 C188.23,522.20 189.00,520.82 189.00,520.17 C189.00,518.69 186.34,518.64 185.43,520.11 C185.01,520.80 183.26,520.98 180.78,520.58 C176.33,519.87 175.86,521.60 179.94,523.65 C181.20,524.28 183.01,526.55 183.97,528.69 C185.99,533.20 190.98,537.74 194.83,538.59 C196.30,538.91 197.95,539.33 198.50,539.51 C200.55,540.19 202.16,539.96 205.77,538.45 ZM 486.30 556.65 C488.08,555.91 490.97,553.66 492.74,551.65 C494.50,549.64 496.57,548.00 497.35,548.00 C499.34,548.00 501.39,545.36 500.05,544.53 C499.47,544.17 498.51,544.19 497.90,544.56 C497.30,544.93 495.53,544.29 493.96,543.13 C490.77,540.77 489.28,541.78 491.06,545.10 C493.50,549.67 484.55,555.94 477.73,554.44 C476.15,554.09 473.28,552.43 471.36,550.75 C468.19,547.96 467.94,547.34 468.53,543.84 C469.28,539.38 468.01,538.82 465.57,542.53 C464.48,544.20 463.16,544.97 461.71,544.78 C458.35,544.35 458.41,546.36 461.78,547.51 C463.41,548.07 466.12,549.98 467.79,551.77 C473.16,557.52 479.94,559.31 486.30,556.65 ZM 489.02 492.75 C489.03,494.89 489.24,495.17 490.00,494.00 C491.26,492.04 491.26,490.00 490.00,490.00 C489.45,490.00 489.01,491.24 489.02,492.75 ZM 322.90 333.87 C324.26,338.15 324.47,342.49 324.79,360.25 C324.55,346.99 324.24,339.33 322.90,333.87 ZM 246.32 318.35 C250.87,313.53 256.55,310.28 263.60,308.43 C256.76,310.38 250.88,313.74 246.32,318.35 ZM 233.67 359.71 C233.86,347.91 234.26,344.00 235.09,340.68 C234.31,344.86 233.91,350.40 233.67,359.71 ZM 299.93 310.07 C300.10,310.13 300.26,310.19 300.43,310.25 C305.71,312.23 311.60,316.83 316.06,322.04 C315.16,321.08 314.16,320.08 313.06,319.00 C308.71,314.74 304.77,311.96 299.93,310.07 ZM 333.27 551.34 C334.41,550.97 335.95,551.84 338.01,554.04 C335.82,552.08 334.19,551.14 333.27,551.34 ZM 224.05 515.59 C221.41,516.49 218.45,515.98 215.74,513.89 C218.22,515.67 221.33,516.40 224.05,515.59 ZM 660.71 464.96 C661.11,461.57 660.60,458.14 659.10,455.21 C658.81,454.65 658.51,454.12 658.19,453.60 C658.61,454.27 659.01,454.97 659.38,455.70 C660.73,458.38 661.14,461.67 660.71,464.96 ZM 184.25 500.45 C184.47,502.32 185.26,504.19 186.59,505.76 C185.82,504.94 185.22,504.09 184.91,503.26 C184.55,502.33 184.34,501.38 184.25,500.45 ZM 589.01 545.02 L 588.72 542.92 L 589.00 542.65 ZM 192.25 509.47 C193.87,510.02 195.30,510.01 196.73,509.43 C196.02,509.79 195.37,510.00 194.85,510.00 C194.06,510.00 193.16,509.80 192.25,509.47 ZM 212.84 510.83 C211.73,509.18 211.18,507.44 211.22,505.71 C211.24,506.09 211.30,506.50 211.37,506.94 C211.59,508.37 212.11,509.68 212.84,510.83 ZM 624.57 553.50 C625.98,550.77 626.96,547.73 626.98,545.58 C626.96,547.88 626.01,550.82 624.57,553.50 ZM 361.39 553.91 C362.40,551.98 362.99,549.79 363.00,547.60 C363.00,544.46 363.02,543.86 364.10,544.71 C363.02,543.87 363.00,544.48 363.00,547.70 C363.00,549.95 362.41,552.06 361.39,553.91 ZM 614.77 562.45 C616.03,561.93 617.56,561.08 618.85,560.22 C617.26,561.36 615.58,562.21 613.86,562.80 C614.16,562.70 614.47,562.58 614.77,562.45 ZM 577.48 549.47 C580.88,548.80 584.15,547.21 586.74,544.78 L 586.59 544.91 C584.08,547.27 580.85,548.82 577.48,549.47 ZM 234.15 456.13 C234.19,456.73 234.23,457.27 234.28,457.74 L 234.19 457.25 C234.14,456.99 234.09,456.33 234.05,455.34 C234.08,455.61 234.11,455.87 234.15,456.13 ZM 593.99 557.74 C595.73,559.62 597.83,561.14 600.16,562.20 C597.83,561.16 595.72,559.66 593.99,557.74 ZM 289.08 492.23 C289.16,492.22 289.25,492.21 289.33,492.21 C286.62,492.55 283.71,492.77 280.83,492.86 C283.61,492.77 286.44,492.55 289.08,492.23 ZM 465.76 411.31 L 465.50 334.50 L 465.76 411.16 L 465.76 411.31 ZM 265.18 491.43 C265.22,491.44 265.26,491.45 265.30,491.46 C266.19,491.70 267.09,491.92 268.00,492.11 C267.93,492.09 267.85,492.08 267.78,492.06 C266.91,491.88 266.04,491.67 265.18,491.43 ZM 326.01 553.42 C327.46,553.10 329.23,552.61 331.40,551.93 C329.25,552.61 327.48,553.10 326.01,553.42 Z" fill="rgb(254,171,3)"/>
<path d="M 0.00 400.00 L 0.00 0.00 L 400.00 0.00 L 800.00 0.00 L 800.00 400.00 L 800.00 800.00 L 400.00 800.00 L 0.00 800.00 L 0.00 400.00 ZM 485.28 605.24 C486.26,603.57 487.55,599.43 488.15,596.03 L 489.24 589.85 L 492.01 594.67 C495.35,600.47 498.59,603.63 502.12,604.50 C504.21,605.02 505.17,604.60 506.87,602.44 C509.41,599.21 509.61,594.34 507.51,587.41 C506.69,584.71 506.02,582.34 506.01,582.15 C506.00,581.95 507.65,583.25 509.68,585.02 C515.83,590.42 523.92,592.68 526.80,589.80 C529.91,586.69 527.29,578.21 521.21,571.75 C519.79,570.24 518.82,569.00 519.06,569.01 C519.30,569.02 521.71,569.69 524.41,570.51 C532.83,573.06 540.25,571.93 541.53,567.90 C542.76,564.04 535.26,555.49 528.88,553.46 C525.93,552.53 527.70,551.01 531.81,550.95 C533.84,550.92 537.52,550.12 539.98,549.17 C551.17,544.89 546.66,535.55 532.75,534.20 C530.14,533.95 528.00,533.46 528.00,533.10 C528.00,532.75 529.60,531.59 531.55,530.54 C536.01,528.14 542.00,521.60 542.00,519.12 C542.00,514.66 535.48,512.67 526.80,514.48 C523.33,515.20 520.37,515.67 520.21,515.52 C520.05,515.37 521.00,513.96 522.32,512.38 C527.58,506.07 529.67,498.07 526.80,495.20 C524.02,492.42 515.94,494.82 509.32,500.39 L 506.36 502.87 L 507.91 496.94 C508.78,493.61 510.02,491.00 510.73,491.00 C511.55,491.00 512.00,489.55 512.00,486.92 L 512.00 482.83 L 516.54 486.82 C521.84,491.49 528.73,493.55 536.11,492.67 L 541.00 492.09 L 541.00 496.73 C541.00,506.54 547.74,514.37 557.27,515.63 L 562.09 516.27 L 560.16 518.39 C551.58,527.79 554.05,541.13 565.60,547.73 C571.95,551.37 581.02,550.15 586.59,544.91 L 588.72 542.92 L 589.37 547.67 C591.39,562.46 608.63,568.91 620.17,559.21 C623.76,556.18 626.95,549.81 626.98,545.58 L 627.00 542.65 L 629.25 544.71 C639.22,553.83 654.18,550.39 659.45,537.77 C662.15,531.31 660.73,523.53 655.91,518.41 L 653.92 516.28 L 658.44 515.66 C666.84,514.51 673.29,508.35 674.58,500.25 C676.41,488.71 667.53,478.03 656.08,478.01 L 653.65 478.00 L 655.78 475.74 C660.76,470.43 662.35,461.58 659.38,455.70 C653.55,444.15 640.27,440.43 631.12,447.78 L 627.24 450.90 L 626.62 446.17 C624.98,433.86 611.97,426.64 600.25,431.54 C598.23,432.38 595.71,433.85 594.65,434.79 C591.91,437.22 589.05,443.90 589.02,447.92 L 589.00 451.35 L 586.75 449.29 C582.23,445.16 577.99,443.72 571.91,444.27 L 566.19 444.79 L 565.75 404.15 C565.38,369.86 565.05,362.56 563.61,357.50 C558.71,340.18 547.31,332.14 529.13,333.16 C524.36,333.43 521.00,334.31 517.24,336.28 L 512.00 339.02 L 512.00 322.99 L 512.00 306.96 L 491.25 307.23 L 470.50 307.50 L 470.50 401.61 L 470.50 495.72 L 468.26 491.77 L 466.01 487.82 L 465.76 411.16 L 465.50 334.50 L 446.57 334.23 C436.16,334.08 427.31,334.30 426.90,334.73 C426.49,335.15 425.86,362.05 425.50,394.50 C425.11,428.84 424.42,454.86 423.84,456.75 C422.98,459.57 422.40,460.00 419.49,460.00 C412.66,460.00 413.00,463.32 413.00,397.01 C413.00,364.09 412.73,336.45 412.39,335.58 C411.70,333.78 403.12,333.51 383.20,334.66 L 371.91 335.31 L 372.23 400.91 C372.52,459.67 372.73,467.02 374.27,471.50 C375.21,474.25 375.98,476.58 375.99,476.67 C376.00,476.76 374.21,475.86 372.01,474.67 L 368.03 472.50 L 367.76 390.00 L 367.50 307.50 L 347.00 307.50 L 326.50 307.50 L 325.99 360.00 C325.70,388.88 325.37,411.94 325.24,411.25 C324.91,409.50 287.95,409.45 286.20,411.20 C285.35,412.05 285.00,418.08 285.00,431.98 C285.00,448.08 284.72,451.95 283.44,453.78 C281.67,456.32 278.28,456.66 275.44,454.58 C273.57,453.21 273.49,451.30 273.22,400.11 C272.95,347.97 272.98,347.02 274.97,345.03 C277.43,342.57 280.70,342.42 283.17,344.65 C284.80,346.13 285.00,348.10 285.00,363.07 C285.00,372.29 285.27,380.55 285.61,381.42 C286.13,382.79 288.85,383.00 305.70,383.00 L 325.19 383.00 L 324.79 360.25 C324.41,339.32 324.19,337.02 322.04,331.50 C318.81,323.21 308.84,313.41 300.43,310.25 C291.81,307.02 280.75,305.84 270.76,307.08 C251.67,309.45 240.84,319.50 235.27,340.00 C233.68,345.84 233.50,351.97 233.50,400.00 C233.50,429.42 233.81,455.19 234.19,457.25 L 234.87 461.00 L 231.16 461.00 C225.29,461.00 215.77,467.19 204.69,478.22 C199.29,483.59 195.15,488.44 195.50,488.99 C195.84,489.56 195.10,490.00 193.81,490.00 C192.54,490.01 190.06,490.88 188.30,491.96 C184.64,494.19 183.24,498.87 184.91,503.26 C186.10,506.40 191.40,509.99 194.85,510.00 C197.65,510.00 203.99,504.01 204.02,501.35 C204.03,499.90 204.22,499.80 204.91,500.89 C205.61,501.99 206.01,501.84 206.92,500.15 C208.61,496.99 213.29,494.99 218.70,495.10 L 223.50 495.21 L 219.76 496.20 C217.66,496.76 214.87,498.56 213.41,500.29 C210.00,504.34 210.60,509.30 214.98,513.25 C220.64,518.35 227.67,516.19 230.59,508.46 L 232.08 504.50 L 231.63 508.79 C231.38,511.15 230.44,514.21 229.54,515.59 C225.56,521.65 216.47,523.80 210.42,520.11 C207.33,518.23 204.00,512.71 204.00,509.46 C204.00,508.13 203.50,508.37 201.83,510.49 C199.41,513.56 194.40,516.00 190.49,516.00 C189.08,516.00 186.20,515.12 184.10,514.05 C174.82,509.32 174.79,495.75 184.04,490.12 L 187.11 488.26 L 175.66 485.09 C161.41,481.14 149.09,480.08 143.71,482.34 C135.37,485.84 135.27,495.81 143.41,512.38 C145.88,517.40 149.98,524.63 152.52,528.45 L 157.15 535.41 L 155.82 539.95 C155.06,542.58 154.51,549.35 154.52,556.00 C154.55,573.05 159.10,585.82 166.71,590.26 C169.84,592.09 170.01,592.09 174.21,590.22 C178.93,588.12 188.86,578.12 196.00,568.27 C198.48,564.85 200.73,562.05 201.00,562.04 C201.27,562.02 204.71,565.76 208.64,570.33 C216.65,579.68 229.32,590.35 235.80,593.23 C241.08,595.57 245.14,594.89 248.11,591.17 C250.06,588.73 250.19,587.69 249.64,579.00 C249.31,573.78 247.95,564.78 246.62,559.00 C245.30,553.22 244.28,548.46 244.36,548.41 C244.43,548.35 248.55,547.08 253.50,545.57 C264.54,542.20 277.84,536.06 280.42,533.14 C281.47,531.95 282.33,529.61 282.33,527.95 C282.33,521.31 275.90,516.65 252.75,506.56 L 238.50 500.35 L 238.29 485.43 C238.08,471.07 238.14,470.59 239.78,473.00 C246.56,482.89 256.60,489.73 267.78,492.06 C275.99,493.77 292.13,492.75 298.79,490.10 C301.69,488.95 304.24,488.00 304.44,488.00 C304.64,488.00 305.05,490.14 305.35,492.75 C305.65,495.36 306.19,499.13 306.54,501.13 C307.13,504.43 306.88,504.99 303.68,507.43 C296.36,513.01 295.59,522.95 302.05,528.39 C305.24,531.07 311.07,532.70 313.06,531.46 C313.72,531.05 314.06,531.12 313.83,531.61 C310.10,539.28 309.82,540.46 310.92,544.13 C312.15,548.23 316.71,552.64 320.77,553.66 C323.03,554.22 326.42,553.60 333.15,551.37 C334.23,551.01 336.41,552.40 339.42,555.37 C342.41,558.31 345.27,560.15 347.56,560.58 C355.45,562.06 363.00,555.76 363.00,547.70 C363.00,543.76 363.03,543.72 364.99,545.49 C366.10,546.49 369.13,547.50 371.83,547.76 C376.17,548.18 377.05,547.90 380.28,545.06 C385.37,540.59 386.63,536.21 384.60,530.00 C383.72,527.32 383.00,524.67 383.00,524.11 C383.00,523.55 384.99,521.13 387.42,518.74 C392.91,513.33 394.06,508.81 391.35,503.36 C388.90,498.42 384.88,495.61 380.19,495.55 L 376.39 495.50 L 378.42 490.50 C379.53,487.75 380.57,485.31 380.73,485.08 C380.88,484.85 382.02,485.61 383.27,486.78 C386.87,490.16 392.88,492.18 400.98,492.73 C410.87,493.39 416.11,491.89 421.00,487.00 L 424.89 483.11 L 425.19 486.81 L 425.50 490.50 L 438.25 490.78 C450.88,491.06 451.00,491.08 451.00,493.40 C451.00,494.69 451.67,497.65 452.49,499.97 L 453.98 504.19 L 450.46 501.10 C445.99,497.18 439.79,494.00 436.61,494.00 C433.55,494.00 430.99,496.44 431.02,499.32 C431.05,502.41 434.18,508.90 437.60,512.95 C439.96,515.76 440.13,516.25 438.50,515.60 C437.40,515.16 433.79,514.32 430.48,513.74 C422.61,512.35 418.65,513.95 418.19,518.70 C417.94,521.32 418.61,522.59 421.93,525.82 C424.16,527.98 427.34,530.31 428.99,531.00 C433.09,532.69 432.77,533.99 428.25,534.04 C423.68,534.10 417.56,536.18 414.89,538.60 C410.23,542.82 415.63,549.30 424.82,550.52 C432.59,551.56 432.77,551.89 427.31,555.01 C420.77,558.74 417.81,562.46 418.20,566.44 C418.65,571.04 422.71,572.64 430.48,571.26 C433.79,570.68 437.30,569.88 438.28,569.48 C439.49,568.99 438.76,570.66 436.01,574.64 C431.59,581.05 429.96,587.05 431.99,589.49 C434.69,592.74 442.83,590.78 449.38,585.32 C450.96,584.00 452.38,583.05 452.54,583.21 C452.70,583.37 452.18,585.98 451.37,589.00 C449.06,597.66 451.25,605.00 456.15,605.00 C459.01,605.00 465.61,598.42 468.44,592.74 L 471.00 587.61 L 471.01 592.05 C471.01,598.55 472.80,603.96 476.01,607.17 C479.44,610.59 482.52,609.95 485.28,605.24 ZM 145.67 405.98 C151.82,398.67 163.40,395.05 180.70,395.02 L 190.90 395.00 L 189.45 391.53 C185.77,382.73 189.85,364.59 198.14,352.83 L 200.02 350.16 L 194.57 347.66 C191.56,346.28 187.03,343.08 184.50,340.55 C179.81,335.87 174.50,326.15 173.39,320.25 C173.05,318.46 172.58,317.00 172.33,317.00 C172.08,317.00 167.97,319.01 163.18,321.46 C152.18,327.10 138.62,330.53 132.65,329.18 C130.37,328.67 127.80,327.95 126.95,327.59 C125.69,327.06 125.17,328.32 124.14,334.43 C122.36,345.06 118.16,352.84 110.54,359.66 L 104.24 365.29 L 107.37 369.89 C109.09,372.43 110.72,374.73 111.00,375.00 C111.77,375.77 112.17,378.78 112.70,388.00 L 113.18 396.50 L 120.34 396.50 C126.36,396.50 128.25,396.94 132.22,399.27 C134.81,400.80 138.13,403.61 139.58,405.52 C141.04,407.44 142.44,409.00 142.68,409.00 C142.93,409.00 144.27,407.64 145.67,405.98 ZM 631.79 356.43 C634.02,353.00 634.23,352.91 638.68,353.58 L 643.27 354.27 L 642.58 349.68 C641.91,345.23 642.00,345.02 645.43,342.79 C647.38,341.53 648.98,340.20 648.99,339.83 C648.99,339.46 647.39,338.17 645.42,336.95 C641.92,334.78 641.86,334.65 642.52,329.87 C643.26,324.45 642.99,324.27 637.60,326.52 C634.22,327.93 633.91,327.92 633.33,326.27 C632.98,325.30 631.80,323.50 630.70,322.27 L 628.69 320.05 L 626.35 322.77 C625.06,324.27 624.00,325.89 624.00,326.38 C624.00,327.20 621.41,326.88 616.20,325.39 C613.96,324.76 613.91,324.88 614.56,329.72 C615.21,334.63 615.16,334.74 611.61,336.93 C609.62,338.16 608.00,339.35 608.00,339.57 C608.00,339.79 609.76,341.14 611.91,342.56 C615.57,344.98 615.76,345.34 614.91,348.32 C613.26,354.08 613.45,354.30 619.50,353.54 C623.79,353.01 625.00,353.15 625.00,354.21 C625.00,355.77 627.79,360.01 628.81,359.99 C629.19,359.98 630.53,358.38 631.79,356.43 ZM 303.79 292.10 C305.83,291.05 308.59,289.03 309.92,287.60 C313.16,284.13 313.82,284.31 314.19,288.75 L 314.50 292.50 L 334.00 292.50 L 353.50 292.50 L 353.76 214.25 L 354.01 136.00 L 334.01 136.00 L 314.00 136.00 L 313.96 190.25 C313.91,247.83 313.37,258.52 310.40,260.69 C308.09,262.38 305.86,262.35 303.44,260.58 C301.57,259.21 301.48,257.08 301.00,197.83 L 300.50 136.50 L 280.50 136.50 L 260.50 136.50 L 260.24 198.78 C260.03,251.01 260.23,262.22 261.49,268.25 C265.37,286.86 273.62,293.86 291.79,293.96 C298.04,293.99 300.99,293.53 303.79,292.10 ZM 419.20 292.88 C440.86,288.32 451.00,271.75 451.00,240.91 L 451.00 230.00 L 431.00 230.00 L 411.00 230.00 L 410.99 243.25 C410.97,260.26 409.54,263.36 402.52,261.59 C398.82,260.67 398.00,256.25 398.00,237.35 L 398.00 220.00 L 423.25 219.98 C437.14,219.98 449.10,219.59 449.82,219.13 C450.88,218.46 451.08,212.92 450.79,191.40 C450.46,166.11 450.30,164.15 448.14,158.72 C443.61,147.35 435.97,140.19 424.42,136.48 C416.13,133.82 396.12,133.79 387.16,136.44 C373.42,140.50 363.91,149.54 359.75,162.50 C357.56,169.31 357.50,170.66 357.51,212.00 C357.53,258.78 357.84,261.79 363.89,273.79 C366.92,279.78 373.50,286.65 378.87,289.43 C387.15,293.71 407.14,295.42 419.20,292.88 ZM 583.24 292.81 C585.42,292.16 589.18,289.70 591.60,287.35 L 596.00 283.07 L 596.00 287.52 C596.00,291.30 596.34,292.04 598.25,292.52 C599.49,292.82 608.38,292.94 618.00,292.78 L 635.50 292.50 L 635.50 227.00 L 635.50 161.50 L 632.70 155.80 C629.36,148.99 622.28,142.31 614.50,138.63 C602.73,133.06 580.63,132.79 566.58,138.05 C551.94,143.54 544.36,157.34 545.19,177.00 L 545.50 184.50 L 564.50 184.50 L 583.50 184.50 L 584.00 176.90 C584.54,168.74 585.91,166.00 589.47,166.00 C594.10,166.00 595.50,169.30 595.50,180.20 L 595.50 190.20 L 583.27 194.51 C561.31,202.27 555.36,205.72 550.01,213.80 C543.90,223.03 541.38,238.35 543.03,256.19 C545.15,279.02 551.64,289.67 565.50,293.06 C570.27,294.23 578.92,294.10 583.24,292.81 ZM 202.39 291.42 C202.73,290.55 203.00,272.10 203.00,250.42 L 203.00 211.00 L 209.49 211.00 L 215.98 211.00 L 216.24 251.75 L 216.50 292.50 L 235.50 292.50 L 254.50 292.50 L 254.50 201.00 L 254.50 109.50 L 235.50 109.50 L 216.50 109.50 L 216.00 141.50 L 215.50 173.50 L 209.25 173.80 L 203.00 174.10 L 202.98 142.80 C202.98,125.58 202.61,110.93 202.16,110.23 C201.54,109.25 196.90,109.02 182.43,109.23 L 163.50 109.50 L 163.24 200.00 C163.10,249.77 163.20,291.06 163.46,291.75 C163.82,292.69 168.64,293.00 182.86,293.00 C199.20,293.00 201.87,292.78 202.39,291.42 ZM 494.76 200.23 L 495.01 107.96 L 474.76 108.23 L 454.50 108.50 L 454.24 199.39 C454.06,266.53 454.29,290.64 455.13,291.66 C456.05,292.77 460.11,292.99 475.39,292.77 L 494.50 292.50 L 494.76 200.23 ZM 540.76 200.23 L 541.01 107.96 L 520.76 108.23 L 500.50 108.50 L 500.24 199.94 C500.04,272.42 500.25,291.54 501.24,292.18 C501.94,292.63 511.05,292.88 521.50,292.75 L 540.50 292.50 L 540.76 200.23 ZM 137.00 172.66 C137.00,172.19 139.28,172.13 142.08,172.51 L 147.15 173.21 L 146.47 168.68 C145.82,164.30 145.91,164.08 149.39,161.83 C151.36,160.55 152.98,159.20 152.99,158.83 C152.99,158.46 151.39,157.17 149.42,155.95 C145.92,153.78 145.86,153.65 146.52,148.87 C147.24,143.60 147.29,143.63 141.70,144.93 C138.03,145.78 137.82,145.68 135.32,141.91 C133.90,139.76 132.63,138.00 132.50,138.00 C132.37,138.00 131.10,139.76 129.68,141.91 C127.18,145.68 126.97,145.78 123.30,144.93 C117.71,143.63 117.76,143.60 118.48,148.87 C119.14,153.68 119.10,153.77 115.43,156.05 L 111.70 158.35 L 114.60 160.67 C116.19,161.95 117.90,162.99 118.38,163.00 C118.86,163.00 118.95,165.31 118.58,168.14 L 117.90 173.27 L 122.70 172.65 C127.39,172.04 127.55,172.11 129.89,175.71 L 132.28 179.39 L 134.63 176.45 C135.93,174.83 136.99,173.12 137.00,172.66 ZM 467.91 532.16 C469.58,529.05 469.23,527.14 466.50,524.41 C465.12,523.03 464.00,521.65 464.00,521.34 C464.00,521.03 466.13,521.09 468.74,521.48 C481.97,523.47 482.84,530.75 470.16,533.48 C467.03,534.15 466.89,534.07 467.91,532.16 ZM 493.89 532.21 C495.59,529.03 495.24,527.15 492.44,524.35 C491.03,522.94 490.12,521.55 490.42,521.25 C491.22,520.44 502.08,522.82 503.69,524.16 C504.47,524.80 504.97,526.49 504.80,527.91 C504.48,530.66 501.62,532.53 495.99,533.65 C492.97,534.26 492.84,534.17 493.89,532.21 ZM 599.96 514.54 C593.14,510.99 587.00,503.88 587.00,499.56 C587.00,497.13 587.59,495.75 588.93,495.04 C592.06,493.36 594.17,493.84 599.95,497.53 C607.23,502.16 611.52,502.16 620.29,497.50 C623.92,495.58 627.95,494.00 629.25,494.00 C637.78,494.00 637.00,505.67 628.07,511.57 C619.35,517.34 607.70,518.57 599.96,514.54 ZM 334.56 509.87 C330.82,506.93 329.68,503.51 331.05,499.36 C332.47,495.05 335.46,493.00 340.32,493.00 C343.37,493.00 344.82,493.66 347.10,496.11 C348.69,497.81 350.00,498.63 350.00,497.91 C350.00,497.19 351.21,495.35 352.69,493.80 C357.18,489.11 364.49,490.19 367.49,495.98 C369.42,499.72 369.40,502.39 367.46,498.82 C363.96,492.36 355.00,494.85 355.00,502.28 C355.00,504.77 357.02,507.07 360.50,508.54 C362.30,509.30 362.22,509.42 359.69,509.76 C356.12,510.25 352.51,507.90 350.40,503.74 C347.77,498.54 345.94,497.00 342.40,497.00 C340.14,497.00 338.63,497.69 337.56,499.22 C334.34,503.82 336.43,508.54 342.20,509.69 C344.31,510.11 344.78,510.53 343.83,511.13 C341.48,512.62 337.34,512.06 334.56,509.87 ZM 489.02 492.75 C489.01,491.24 489.45,490.00 490.00,490.00 C491.26,490.00 491.26,492.04 490.00,494.00 C489.24,495.17 489.03,494.89 489.02,492.75 ZM 590.36 489.69 C587.32,486.90 586.66,485.55 586.24,481.20 C585.77,476.22 585.90,475.86 589.76,472.01 C593.26,468.50 594.31,468.01 598.13,468.09 C602.48,468.18 602.48,468.19 599.31,469.10 C590.85,471.55 589.50,481.62 597.10,485.55 C602.48,488.33 608.04,485.74 609.53,479.75 C609.91,478.24 610.55,477.00 610.95,477.00 C611.35,477.00 612.19,475.87 612.82,474.50 C614.46,470.89 619.77,467.99 624.50,468.11 L 628.50 468.20 L 625.02 469.02 C616.20,471.10 614.31,481.52 622.03,485.52 C627.73,488.46 633.42,485.51 635.02,478.79 C635.78,475.54 635.80,475.56 635.90,479.85 C636.14,490.32 626.01,496.35 617.19,490.98 C615.37,489.87 613.27,487.51 612.52,485.73 L 611.16 482.50 L 610.16 485.09 C608.43,489.62 603.41,493.00 598.41,493.00 C594.78,493.00 593.31,492.40 590.36,489.69 ZM 323.00 480.42 C321.62,479.65 319.46,479.02 318.18,479.01 L 315.86 479.00 L 318.01 475.98 C321.06,471.71 324.07,462.61 324.97,455.00 C325.58,449.86 325.76,452.01 325.87,465.25 C325.94,474.46 325.89,481.96 325.75,481.90 C325.61,481.85 324.38,481.18 323.00,480.42 ZM 516.28 459.98 C515.06,459.49 513.71,457.83 513.28,456.29 C512.85,454.76 512.50,434.53 512.50,411.35 C512.50,371.31 512.60,369.10 514.40,367.10 C516.98,364.26 521.55,364.33 523.21,367.25 C524.19,368.95 524.58,379.23 524.81,409.50 C525.14,451.27 524.86,456.99 522.37,459.49 C520.67,461.18 519.50,461.28 516.28,459.98 ZM 398.00 184.95 C398.00,170.51 399.13,166.51 403.53,165.40 C409.07,164.01 410.99,169.38 410.99,186.25 L 411.00 198.00 L 404.50 198.00 L 398.00 198.00 L 398.00 184.95 ZM 586.45 259.55 C584.04,257.13 584.00,256.80 584.00,240.19 C584.00,224.32 584.14,223.10 586.25,219.99 C588.96,216.00 593.68,212.34 594.73,213.40 C595.16,213.82 595.50,223.71 595.50,235.38 C595.50,254.00 595.28,256.92 593.73,259.29 C591.53,262.65 589.62,262.71 586.45,259.55 Z" fill="rgb(254,254,254)"/>
</g>
</svg>