<svg xmlns="http://www.w3.org/2000/svg" width="800" height="800" viewBox="0 0 800 800">
<g>
<path d="M 202.02 211.00 L 201.50 292.50 L 183.39 292.77 C168.96,292.99 165.05,292.76 164.14,291.66 C163.29,290.64 163.06,266.82 163.24,200.39 L 163.50 110.50 L 182.74 110.23 L 201.97 109.96 L 202.24 141.73 L 202.50 173.50 L 209.25 173.80 L 216.00 174.09 L 216.00 110.00 L 255.01 110.00 L 254.50 292.50 L 237.50 292.79 C228.15,292.94 219.49,292.82 218.25,292.52 L 216.00 291.96 L 216.00 211.00 ZM 165.00 111.00 L 165.00 291.00 L 201.00 291.00 L 201.00 209.00 L 218.00 209.00 L 218.00 291.00 L 253.00 291.00 L 253.00 111.00 L 218.00 111.00 L 218.00 175.00 L 201.00 175.00 L 201.00 111.00 ZM 303.54 292.12 C300.73,293.40 297.23,293.94 292.00,293.91 C274.65,293.80 266.58,287.38 262.28,270.27 C260.76,264.25 260.57,256.43 260.54,200.00 L 260.50 136.50 L 279.93 136.23 C294.80,136.02 299.54,136.25 300.16,137.23 C300.61,137.93 300.98,165.54 300.98,198.60 C301.00,255.53 301.10,258.78 302.83,260.35 C305.34,262.62 309.31,262.42 311.60,259.90 C313.41,257.89 313.52,255.00 314.00,197.15 L 314.50 136.50 L 353.50 136.50 L 353.50 292.50 L 336.00 292.78 C314.10,293.14 314.00,293.12 314.00,287.98 C314.00,285.79 313.75,284.00 313.44,284.00 C313.12,284.00 311.68,285.41 310.23,287.14 C308.77,288.87 305.76,291.11 303.54,292.12 ZM 425.28 291.05 C417.62,293.99 396.38,294.80 388.08,292.47 C372.30,288.05 363.55,278.08 359.56,259.98 C358.13,253.47 357.94,246.55 358.20,208.98 C358.50,166.26 358.54,165.40 360.81,159.80 C362.07,156.66 365.16,151.81 367.67,149.02 C376.60,139.09 387.55,135.00 405.18,135.00 C411.08,135.00 418.29,135.51 421.20,136.12 C436.42,139.35 446.52,149.80 449.89,165.80 C451.46,173.28 451.39,217.21 449.80,218.80 C448.93,219.67 441.63,220.00 423.24,220.00 L 397.88 220.00 L 398.19 239.59 C398.49,258.80 398.55,259.22 400.86,261.09 C403.82,263.49 405.17,263.49 408.14,261.09 C410.37,259.29 410.53,258.41 411.00,244.84 L 411.50 230.50 L 431.39 230.23 L 451.28 229.96 L 450.74 244.23 C450.14,260.26 448.31,267.76 442.78,276.96 C438.89,283.44 433.21,288.01 425.28,291.05 ZM 284.00 291.67 C296.32,294.52 306.89,290.82 311.79,281.95 C313.28,279.24 314.84,277.02 315.25,277.01 C315.66,277.01 316.00,280.15 316.00,284.00 L 316.00 291.00 L 352.00 291.00 L 352.00 138.00 L 316.10 138.00 L 315.78 196.75 C315.43,258.44 315.27,260.72 310.96,263.02 C307.83,264.70 304.01,264.10 301.45,261.55 L 299.00 259.09 L 299.00 138.00 L 262.00 138.00 L 262.01 198.75 C262.01,236.14 262.42,262.00 263.06,266.00 C264.15,272.79 267.88,282.11 270.79,285.33 C273.28,288.07 277.76,290.22 284.00,291.67 ZM 386.49 290.20 C392.43,292.26 410.90,292.64 419.20,290.88 C439.02,286.67 449.00,270.49 449.00,242.55 L 449.00 232.00 L 413.00 232.00 L 413.00 243.93 C413.00,259.92 411.29,263.94 404.50,263.94 C397.18,263.94 396.00,260.11 396.00,236.26 L 396.00 218.00 L 449.00 218.00 L 448.99 193.75 C448.98,168.22 448.39,163.56 444.03,154.57 C437.52,141.12 419.19,134.22 396.95,136.85 C380.78,138.76 368.85,146.27 363.68,157.78 C359.33,167.48 358.78,174.72 359.26,216.83 C359.63,249.95 359.95,256.43 361.48,262.00 C365.86,277.96 372.40,285.33 386.49,290.20 ZM 539.42 292.39 C536.72,293.43 503.62,293.01 501.75,291.92 C500.10,290.96 500.00,285.51 500.00,199.95 L 500.00 109.00 L 541.00 109.00 L 541.00 200.39 C541.00,282.81 540.84,291.85 539.42,292.39 ZM 502.00 110.00 L 502.00 291.00 L 539.00 291.00 L 539.00 110.00 ZM 412.92 186.25 L 413.00 199.00 L 396.00 199.00 L 396.00 185.25 C396.00,174.16 396.34,170.83 397.75,168.01 C401.34,160.86 409.30,161.72 411.65,169.52 C412.31,171.71 412.88,179.24 412.92,186.25 ZM 367.76 382.75 C367.93,432.74 367.67,458.00 367.01,458.00 C366.34,458.00 366.00,432.81 366.00,383.50 L 366.00 309.00 L 329.00 309.00 L 329.00 378.44 C329.00,423.97 328.65,448.10 327.99,448.50 C327.32,448.92 327.07,425.65 327.24,378.31 L 327.50 307.50 L 367.50 307.50 ZM 397.33 196.43 C397.80,197.64 399.45,198.00 404.47,198.00 L 411.00 198.00 L 411.00 185.15 C411.00,170.68 409.98,166.28 406.40,165.39 C400.02,163.78 397.84,167.96 397.22,182.97 C396.95,189.51 397.00,195.56 397.33,196.43 ZM 200.60 506.60 C198.58,508.62 196.20,510.00 194.75,510.00 C191.03,510.00 185.69,505.92 184.65,502.27 C181.53,491.41 197.31,484.96 202.49,494.98 C204.90,499.64 204.38,502.82 200.60,506.60 ZM 226.63 514.23 C220.96,518.82 211.55,513.78 211.55,506.16 C211.55,496.22 225.06,492.41 229.55,501.09 C232.07,505.97 231.03,510.67 226.63,514.23 ZM 374.99 504.07 C371.31,506.68 368.86,507.06 365.38,505.55 C358.53,502.59 356.85,494.99 361.92,489.92 C366.84,485.00 374.54,486.40 377.56,492.77 C379.61,497.08 378.60,501.50 374.99,504.07 ZM 346.58 507.11 C342.70,509.48 341.28,509.47 337.31,507.05 C333.53,504.74 332.00,502.19 332.00,498.20 C332.00,493.86 335.29,490.30 340.04,489.49 C344.96,488.66 348.35,490.56 350.69,495.48 C352.07,498.37 352.11,499.31 350.98,502.05 C350.25,503.80 348.27,506.08 346.58,507.11 ZM 235.98 455.83 C237.30,463.39 236.68,465.01 234.82,458.85 C233.80,455.49 233.50,442.53 233.50,402.00 C233.50,343.90 233.78,340.76 240.10,328.12 C245.45,317.41 255.48,309.70 265.71,308.41 C268.52,308.06 267.47,308.69 261.66,310.85 C249.57,315.35 243.39,322.19 238.26,336.73 L 235.51 344.50 L 235.19 396.97 C234.97,432.45 235.23,451.50 235.98,455.83 ZM 632.75 483.45 C628.58,488.18 621.45,487.41 618.40,481.89 C616.28,478.07 616.77,475.08 620.05,471.80 C622.75,469.10 623.57,468.81 627.29,469.31 C629.89,469.66 632.15,470.70 633.24,472.05 C635.71,475.10 635.48,480.34 632.75,483.45 ZM 607.28 484.17 C604.75,486.70 600.02,487.29 596.78,485.48 C591.21,482.38 590.40,476.45 594.92,471.92 C598.90,467.95 603.14,467.99 607.20,472.05 C609.82,474.67 610.16,475.60 609.66,478.74 C609.33,480.74 608.26,483.18 607.28,484.17 ZM 205.77 538.45 C202.16,539.96 200.55,540.19 198.50,539.51 C197.95,539.33 196.27,538.90 194.77,538.57 C190.95,537.73 185.12,532.34 183.41,528.06 C182.61,526.08 180.99,524.02 179.80,523.48 C175.79,521.67 176.39,519.88 180.78,520.58 C183.26,520.98 185.01,520.80 185.43,520.11 C186.34,518.64 189.00,518.69 189.00,520.17 C189.00,520.82 188.23,522.20 187.28,523.24 C185.65,525.04 185.66,525.33 187.53,528.73 C190.27,533.72 195.24,536.23 201.32,535.70 C208.12,535.11 211.42,532.40 211.81,527.09 C212.15,522.51 214.04,521.91 215.01,526.07 C215.39,527.69 216.67,528.86 218.85,529.57 C223.07,530.95 222.53,532.50 217.83,532.50 C215.43,532.50 213.35,533.26 211.82,534.70 C210.53,535.91 207.81,537.60 205.77,538.45 ZM 365.75 524.38 C362.34,528.27 355.75,530.90 351.00,530.26 C346.56,529.66 341.28,526.87 339.15,523.98 C337.84,522.22 336.40,521.33 335.28,521.60 C333.00,522.15 330.54,520.56 331.43,519.11 C331.81,518.50 333.43,518.00 335.02,518.00 C336.91,518.00 338.31,517.30 339.00,516.00 C339.59,514.90 340.50,514.00 341.04,514.00 C342.39,514.00 342.24,517.36 340.82,518.78 C339.92,519.68 340.10,520.45 341.57,522.08 C348.23,529.44 358.97,528.37 365.38,519.72 C367.09,517.40 367.24,516.61 366.22,514.98 C364.76,512.64 364.62,510.00 365.96,510.00 C366.50,510.00 367.43,510.93 368.04,512.07 C368.91,513.70 369.93,514.07 372.82,513.82 C377.93,513.38 377.87,516.16 372.75,517.43 C370.69,517.94 369.00,518.87 369.00,519.51 C369.00,520.15 367.54,522.34 365.75,524.38 ZM 486.30 556.65 C484.52,557.39 481.81,558.00 480.28,558.00 C476.37,558.00 469.35,554.30 467.00,551.00 C465.75,549.24 463.72,547.98 461.45,547.56 C457.35,546.79 457.23,544.34 461.31,544.78 C463.18,544.98 464.38,544.35 465.57,542.53 C468.01,538.82 469.28,539.38 468.53,543.84 C467.94,547.34 468.19,547.96 471.36,550.75 C473.28,552.43 476.15,554.09 477.73,554.44 C484.55,555.94 493.50,549.67 491.06,545.10 C489.28,541.78 490.77,540.77 493.96,543.13 C495.53,544.29 497.30,544.93 497.90,544.56 C498.51,544.19 499.47,544.17 500.05,544.53 C501.39,545.36 499.34,548.00 497.35,548.00 C496.57,548.00 494.50,549.64 492.74,551.65 C490.97,553.66 488.08,555.91 486.30,556.65 ZM 467.96 532.07 C466.68,534.47 463.57,534.53 459.00,532.25 C454.72,530.11 454.10,527.59 457.08,524.41 C459.98,521.33 463.43,521.34 466.55,524.45 C469.21,527.12 469.57,529.06 467.96,532.07 ZM 493.96 532.07 C492.68,534.47 489.57,534.53 485.00,532.25 C480.72,530.11 480.10,527.59 483.08,524.41 C485.98,521.33 489.43,521.34 492.55,524.45 C495.21,527.12 495.57,529.06 493.96,532.07 Z" fill="rgb(4,4,9)"/>
<path d="M 367.76 382.75 L 367.50 307.50 L 367.76 382.36 L 368.01 457.23 L 370.26 456.54 C373.73,455.47 381.03,455.96 383.90,457.46 C386.89,459.02 391.24,463.50 392.88,466.68 C394.88,470.59 394.22,479.07 391.55,483.75 L 389.12 488.00 L 393.93 488.00 C396.58,488.00 400.79,488.90 403.29,490.01 C406.98,491.64 408.31,492.99 410.42,497.21 C415.13,506.67 413.58,512.95 404.41,521.60 C398.30,527.36 397.86,529.26 400.98,536.14 C403.45,541.59 403.49,546.34 401.11,551.50 C395.66,563.30 381.69,566.30 372.24,557.70 L 369.99 555.64 L 370.61 560.20 C371.72,568.25 368.04,575.41 360.95,579.03 C352.86,583.15 344.15,580.66 335.94,571.88 C330.83,566.41 328.91,565.98 323.00,569.00 C316.19,572.47 305.56,570.73 300.79,565.35 C294.67,558.46 294.62,546.81 300.69,540.50 C302.60,538.51 302.59,538.50 295.98,538.50 C290.45,538.50 288.68,538.05 285.27,535.79 C281.45,533.27 281.21,532.84 281.68,529.29 C282.06,526.36 281.62,524.68 279.72,521.90 C277.42,518.53 277.35,518.03 278.59,514.40 C279.41,512.02 282.07,508.54 285.47,505.41 C291.31,500.01 292.27,497.18 289.80,492.68 C288.12,489.64 287.84,488.22 287.78,482.45 C287.69,475.24 291.08,469.60 297.50,466.24 C302.00,463.89 310.96,464.19 315.23,466.83 C317.16,468.02 318.91,469.00 319.12,468.99 C319.33,468.99 319.53,466.58 319.57,463.65 C319.65,458.42 322.40,452.06 325.71,449.50 C326.68,448.75 327.01,435.69 327.22,386.59 C327.10,428.36 327.36,448.90 327.99,448.50 C328.65,448.10 329.00,424.00 329.00,378.54 C329.00,446.97 329.03,448.05 330.93,447.04 C334.09,445.34 341.75,445.83 346.00,448.00 C348.15,449.10 351.17,451.62 352.71,453.60 C354.24,455.59 356.85,457.82 358.50,458.57 C362.01,460.15 362.33,460.20 364.42,459.39 C365.84,458.85 366.00,451.26 366.00,383.89 C366.00,432.95 366.34,458.00 367.01,458.00 C367.67,458.00 367.93,432.74 367.76,382.75 ZM 374.99 504.07 C378.60,501.50 379.61,497.08 377.56,492.77 C376.19,489.89 373.87,488.02 371.28,487.30 C373.82,487.97 376.09,489.70 377.42,492.38 C378.90,495.38 378.96,495.41 378.97,493.00 C378.98,491.62 378.11,489.06 377.04,487.30 C371.47,478.16 357.50,479.19 353.08,489.06 L 351.28 493.08 L 349.59 490.49 C345.51,484.27 336.66,482.20 330.47,486.02 C326.89,488.23 324.00,493.33 324.00,497.44 C324.00,501.66 327.56,507.53 331.19,509.32 C335.86,511.63 342.23,511.47 345.14,508.98 L 347.50 506.97 L 344.80 508.12 C345.19,507.93 345.84,507.56 346.58,507.11 C348.27,506.08 350.25,503.80 350.98,502.05 C351.85,499.96 352.03,498.92 351.45,497.25 L 351.48 497.33 C354.36,503.79 357.80,507.05 362.70,507.94 C366.72,508.67 372.49,507.63 373.51,505.99 C373.88,505.38 373.26,505.35 371.73,505.91 C372.74,505.52 373.80,504.91 374.99,504.07 ZM 365.75 524.38 C367.54,522.34 369.00,520.15 369.00,519.51 C369.00,518.87 370.69,517.94 372.75,517.43 C377.87,516.16 377.93,513.38 372.82,513.82 C369.93,514.07 368.91,513.70 368.04,512.07 C367.43,510.93 366.50,510.00 365.96,510.00 C364.62,510.00 364.76,512.64 366.22,514.98 C367.24,516.61 367.09,517.40 365.38,519.72 C358.97,528.37 348.23,529.44 341.57,522.08 C340.10,520.45 339.92,519.68 340.82,518.78 C342.24,517.36 342.39,514.00 341.04,514.00 C340.50,514.00 339.59,514.90 339.00,516.00 C338.31,517.30 336.91,518.00 335.02,518.00 C333.43,518.00 331.81,518.50 331.43,519.11 C330.54,520.56 333.00,522.15 335.28,521.60 C336.40,521.33 337.84,522.22 339.15,523.98 C341.28,526.87 346.56,529.66 351.00,530.26 C355.75,530.90 362.34,528.27 365.75,524.38 ZM 334.96 505.32 C335.62,505.92 336.40,506.49 337.31,507.05 C337.91,507.41 338.45,507.73 338.95,507.98 C337.34,507.30 336.01,506.39 334.96,505.32 ZM 361.92 489.92 C359.05,492.80 358.34,496.49 359.52,499.69 C358.32,496.50 359.02,492.82 361.92,489.92 ZM 340.04 489.49 C337.70,489.89 335.72,490.95 334.31,492.45 C335.64,490.99 337.56,489.91 340.04,489.49 ZM 368.09 506.37 C369.25,506.53 370.35,506.41 371.51,506.00 C370.36,506.43 369.29,506.56 368.09,506.37 ZM 345.31 489.85 C343.79,489.27 342.04,489.16 340.04,489.49 C342.09,489.15 343.81,489.24 345.31,489.85 Z" fill="rgb(29,236,29)"/>
<path d="M 538.48 491.03 C529.59,493.09 522.89,491.27 516.57,485.07 C514.29,482.83 512.13,481.00 511.77,481.00 C511.41,481.00 510.96,483.14 510.78,485.75 C510.53,489.28 510.25,489.99 509.67,488.50 C507.49,482.91 506.32,481.49 503.61,481.17 C501.33,480.91 499.95,481.74 496.44,485.51 C493.90,488.23 491.41,490.03 490.44,489.83 C489.49,489.64 487.95,487.31 486.87,484.39 C485.82,481.58 484.04,478.44 482.91,477.42 C481.05,475.74 480.62,475.70 478.18,477.04 C476.71,477.86 474.83,479.97 474.00,481.74 C473.17,483.51 472.16,484.97 471.74,484.98 C471.33,484.99 471.10,445.29 471.24,396.75 L 471.50 308.50 L 491.25 308.23 L 511.00 307.96 L 511.00 323.98 C511.00,332.79 511.23,340.00 511.52,340.00 C511.80,340.00 514.39,338.76 517.27,337.25 C521.92,334.81 523.56,334.50 532.00,334.51 C549.69,334.53 557.60,340.78 562.63,358.73 C563.96,363.45 564.34,371.80 564.74,404.52 L 565.23 444.54 L 561.47 449.02 C554.59,457.22 553.43,463.12 557.16,470.82 C559.73,476.15 559.11,477.64 553.49,479.56 C549.79,480.82 543.81,486.07 542.87,488.89 C542.65,489.56 540.67,490.52 538.48,491.03 ZM 165.00 111.00 L 201.00 111.00 L 201.00 175.00 L 218.00 175.00 L 218.00 111.00 L 253.00 111.00 L 253.00 291.00 L 218.00 291.00 L 218.00 209.00 L 201.00 209.00 L 201.00 291.00 L 165.00 291.00 ZM 582.38 291.91 C578.06,293.11 570.09,293.18 565.50,292.06 C550.82,288.49 543.85,274.08 543.71,247.00 C543.62,228.80 546.29,219.50 554.18,210.53 C559.01,205.05 567.61,200.70 584.50,195.20 L 596.50 191.29 L 596.46 180.79 C596.43,172.78 596.03,169.69 594.77,167.78 C592.40,164.16 589.44,163.72 586.21,166.49 C583.84,168.53 583.44,169.74 583.00,176.16 L 582.50 183.50 L 546.50 183.50 L 546.60 173.00 C546.68,164.81 547.17,161.27 548.86,156.92 C552.89,146.50 560.90,139.86 573.00,136.90 C580.98,134.94 601.13,135.15 608.05,137.25 C616.26,139.75 625.47,146.10 629.05,151.74 C630.02,153.27 630.83,154.53 631.51,155.87 C635.00,162.70 635.00,171.31 635.00,226.76 L 635.00 290.96 L 632.75 291.52 C631.51,291.82 623.08,291.94 614.00,291.79 L 597.50 291.50 L 597.20 286.75 C597.03,284.14 596.62,282.00 596.30,282.00 C595.97,282.00 593.58,283.99 590.99,286.42 C588.37,288.86 584.53,291.31 582.38,291.91 ZM 235.98 455.83 C235.23,451.50 234.97,432.45 235.19,396.97 L 235.51 344.50 L 238.26 336.73 C243.39,322.19 249.57,315.35 261.66,310.85 C266.26,309.14 267.88,308.39 266.96,308.32 C269.98,307.89 273.30,307.68 277.00,307.64 C286.59,307.56 289.72,307.94 295.89,309.94 C308.87,314.15 316.56,321.11 321.09,332.72 C323.11,337.92 323.38,340.68 323.78,360.25 L 324.22 382.00 L 287.25 382.00 L 286.62 378.88 C286.28,377.16 286.00,369.06 286.00,360.88 C286.00,347.19 285.84,345.84 283.94,343.94 C281.04,341.04 276.31,341.68 273.60,345.33 C271.53,348.12 271.50,348.85 271.58,399.61 C271.65,449.68 271.71,451.14 273.68,453.78 C275.90,456.75 277.93,457.49 281.45,456.60 C285.45,455.60 286.23,451.49 286.37,430.75 L 286.50 411.50 L 324.00 410.96 L 324.00 430.56 C324.00,445.80 324.28,450.07 325.25,449.75 C326.23,449.42 326.61,433.90 327.00,378.42 L 327.50 307.50 L 327.24 378.31 C327.23,381.16 327.22,383.92 327.22,386.59 C327.01,435.69 326.68,448.75 325.71,449.50 C322.40,452.06 319.65,458.42 319.57,463.65 C319.53,466.58 319.33,468.99 319.12,468.99 C318.91,469.00 317.16,468.02 315.23,466.83 C310.96,464.19 302.00,463.89 297.50,466.24 C291.08,469.60 287.69,475.24 287.78,482.45 C287.84,488.22 288.12,489.64 289.80,492.68 C289.86,492.79 289.91,492.89 289.96,492.99 C288.82,491.80 286.44,491.66 281.62,491.86 C266.47,492.49 254.98,488.07 245.68,478.03 C242.56,474.66 239.73,470.69 239.38,469.20 C239.03,467.72 237.89,465.07 236.84,463.32 C236.72,463.12 236.59,462.89 236.47,462.63 C236.86,462.52 236.74,460.15 235.98,455.83 ZM 410.09 496.56 C408.17,492.84 406.79,491.56 403.29,490.01 C400.79,488.90 396.58,488.00 393.93,488.00 L 389.12 488.00 L 391.55 483.75 C394.22,479.07 394.88,470.59 392.88,466.68 C391.24,463.50 386.89,459.02 383.90,457.46 C381.27,456.09 374.94,455.56 371.22,456.30 C372.99,453.94 373.04,443.37 373.24,395.45 L 373.50 335.50 L 392.22 335.23 L 410.94 334.96 L 411.22 395.95 C411.50,456.30 411.52,456.97 413.59,459.04 C415.92,461.37 421.16,461.94 423.36,460.12 C424.15,459.46 425.05,457.48 425.36,455.71 C425.68,453.95 426.21,426.62 426.54,395.00 C426.88,363.38 427.33,336.93 427.55,336.23 C427.86,335.24 432.12,335.02 446.23,335.23 L 464.50 335.50 L 465.01 486.11 L 461.66 483.56 C459.82,482.15 457.37,481.00 456.21,481.00 C453.72,481.00 451.00,484.52 451.00,487.75 C451.00,490.05 450.96,490.06 438.75,489.78 L 426.50 489.50 L 426.19 485.75 C425.83,481.36 424.70,481.01 422.37,484.56 C420.72,487.07 414.31,490.99 411.79,491.02 C408.57,491.05 408.10,492.38 410.09,496.56 ZM 284.00 291.67 C277.76,290.22 273.28,288.07 270.79,285.33 C267.88,282.11 264.15,272.79 263.06,266.00 C262.42,262.00 262.01,236.14 262.01,198.75 L 262.00 138.00 L 299.00 138.00 L 299.00 259.09 L 301.45 261.55 C304.01,264.10 307.83,264.70 310.96,263.02 C315.27,260.72 315.43,258.44 315.78,196.75 L 316.10 138.00 L 352.00 138.00 L 352.00 291.00 L 316.00 291.00 L 316.00 284.00 C316.00,280.15 315.66,277.01 315.25,277.01 C314.84,277.02 313.28,279.24 311.79,281.95 C306.89,290.82 296.32,294.52 284.00,291.67 ZM 386.49 290.20 C372.40,285.33 365.86,277.96 361.48,262.00 C359.95,256.43 359.63,249.95 359.26,216.83 C358.78,174.72 359.33,167.48 363.68,157.78 C368.85,146.27 380.78,138.76 396.95,136.85 C419.19,134.22 437.52,141.12 444.03,154.57 C448.39,163.56 448.98,168.22 448.99,193.75 L 449.00 218.00 L 396.00 218.00 L 396.00 236.26 C396.00,260.11 397.18,263.94 404.50,263.94 C411.29,263.94 413.00,259.92 413.00,243.93 L 413.00 232.00 L 449.00 232.00 L 449.00 242.55 C449.00,270.49 439.02,286.67 419.20,290.88 C410.90,292.64 392.43,292.26 386.49,290.20 ZM 494.00 108.96 L 494.00 292.00 L 474.97 292.00 C460.66,292.00 455.82,291.69 455.46,290.75 C455.20,290.06 455.10,249.00 455.24,199.50 L 455.50 109.50 ZM 502.00 110.00 L 539.00 110.00 L 539.00 291.00 L 502.00 291.00 ZM 330.93 447.04 C329.03,448.05 329.00,446.97 329.00,378.54 L 329.00 309.00 L 366.00 309.00 L 366.00 383.89 C366.00,451.26 365.84,458.85 364.42,459.39 C362.33,460.20 362.01,460.15 358.50,458.57 C356.85,457.82 354.24,455.59 352.71,453.60 C351.17,451.62 348.15,449.10 346.00,448.00 C341.75,445.83 334.09,445.34 330.93,447.04 ZM 515.29 460.51 C517.81,462.29 521.86,461.72 523.69,459.33 C525.81,456.56 526.16,448.18 525.83,408.00 C525.54,373.49 525.52,366.04 522.45,364.44 C521.60,364.00 520.52,364.00 519.15,364.00 L 518.95 364.00 C515.53,364.00 514.69,364.46 512.99,367.25 C511.10,370.35 511.01,372.38 511.01,411.00 C511.01,435.80 511.41,452.94 512.04,455.22 C512.61,457.27 514.07,459.64 515.29,460.51 ZM 586.06 261.25 C590.80,265.09 594.59,262.67 596.02,254.90 C597.47,246.99 596.88,211.79 595.28,211.26 C594.62,211.04 591.85,212.93 589.14,215.46 C583.04,221.17 581.99,224.82 582.02,240.19 C582.05,253.44 583.09,258.84 586.06,261.25 ZM 412.92 186.25 C412.88,179.24 412.31,171.71 411.65,169.52 C409.30,161.72 401.34,160.86 397.75,168.01 C396.34,170.83 396.00,174.16 396.00,185.25 L 396.00 199.00 L 413.00 199.00 ZM 234.08 452.71 C234.04,452.42 234.01,452.12 233.97,451.82 C232.71,440.86 232.74,361.93 234.01,350.86 C234.16,349.52 234.34,348.21 234.53,346.93 C233.58,356.49 233.50,371.84 233.50,402.00 C233.50,430.32 233.65,445.19 234.08,452.71 ZM 369.13 456.89 L 368.01 457.23 L 367.76 382.36 C367.95,438.42 368.25,455.47 369.13,456.89 ZM 258.41 310.41 C252.51,312.92 247.07,317.41 243.04,323.17 C247.26,316.88 252.00,312.81 258.41,310.41 ZM 290.87 495.26 C291.10,496.17 291.14,497.03 290.96,497.91 C290.98,497.74 290.99,497.57 290.98,497.40 C290.98,496.58 290.95,495.87 290.87,495.26 Z" fill="rgb(84,89,225)"/>
<path d="M 376.00 3.00 C376.00,3.55 375.55,4.00 375.00,4.00 C374.45,4.00 374.00,3.55 374.00,3.00 C374.00,2.45 374.45,2.00 375.00,2.00 C375.55,2.00 376.00,2.45 376.00,3.00 Z" fill="rgb(126,119,108)"/>
<path d="M 0.00 0.00 L 800.00 0.00 L 800.00 800.00 L 0.00 800.00 ZM 200.60 506.60 C203.84,503.36 204.68,500.56 203.35,496.90 C203.60,497.41 203.80,497.89 203.95,498.33 C205.17,502.04 205.25,502.09 206.66,500.07 C210.42,494.70 218.38,493.77 224.27,496.63 C218.66,494.96 211.55,498.95 211.55,506.16 C211.55,513.78 220.96,518.82 226.63,514.23 C230.92,510.76 232.02,506.20 229.72,501.45 C229.94,501.79 230.13,502.15 230.31,502.52 C233.35,508.89 231.94,514.35 225.96,519.38 C222.09,522.64 215.10,522.97 210.42,520.11 C207.43,518.29 204.00,512.73 204.00,509.70 C204.00,508.73 202.82,509.38 200.68,511.52 C194.41,517.79 184.23,517.17 179.51,510.23 C175.13,503.78 176.58,495.82 183.06,490.75 L 186.17 488.32 L 176.54 485.59 C171.25,484.09 162.94,482.36 158.09,481.74 C150.31,480.76 148.71,480.84 144.62,482.40 C142.07,483.38 139.48,485.09 138.88,486.22 C138.28,487.35 137.96,491.23 138.16,494.91 C138.60,502.60 143.59,514.11 152.19,527.26 L 157.27 535.02 L 155.88 541.26 C154.06,549.47 154.33,563.90 156.45,571.93 C160.81,588.44 167.82,594.46 176.52,589.15 C179.96,587.05 190.62,575.32 196.87,566.74 L 201.07 560.99 L 205.87 566.74 C212.93,575.21 226.57,587.71 232.41,591.06 C240.38,595.63 246.57,594.87 249.00,589.01 C250.86,584.51 248.88,567.59 244.52,550.85 C243.85,548.25 244.01,548.15 253.94,545.07 C267.17,540.96 278.31,535.83 280.36,532.90 C280.88,532.15 281.28,531.37 281.54,530.56 C281.34,532.99 281.96,533.60 285.27,535.79 C288.68,538.05 290.45,538.50 295.98,538.50 C302.59,538.50 302.60,538.51 300.69,540.50 C294.62,546.81 294.67,558.46 300.79,565.35 C305.56,570.73 316.19,572.47 323.00,569.00 C328.91,565.98 330.83,566.41 335.94,571.88 C344.15,580.66 352.86,583.15 360.95,579.03 C368.04,575.41 371.72,568.25 370.61,560.20 L 369.99 555.64 L 372.24 557.70 C381.69,566.30 395.66,563.30 401.11,551.50 C403.49,546.34 403.45,541.59 400.98,536.14 C397.86,529.26 398.30,527.36 404.41,521.60 C413.58,512.95 415.13,506.67 410.42,497.21 C410.30,496.98 410.20,496.77 410.09,496.56 C408.10,492.38 408.57,491.05 411.79,491.02 C414.31,490.99 420.72,487.07 422.37,484.56 C424.70,481.01 425.83,481.36 426.19,485.75 L 426.50 489.50 L 438.75 489.78 C450.96,490.06 451.00,490.05 451.00,487.75 C451.00,486.11 451.70,484.39 452.72,483.09 C450.53,486.45 450.38,493.35 452.91,500.02 L 454.83 505.06 L 451.23 501.90 C447.55,498.67 438.64,494.03 436.08,494.01 C433.98,494.00 431.00,497.03 431.00,499.19 C431.00,502.15 433.40,507.10 437.30,512.19 L 440.89 516.87 L 436.82 515.44 C431.25,513.47 421.60,513.55 419.57,515.57 C418.71,516.44 418.00,518.00 418.00,519.04 C418.00,521.93 423.73,527.82 429.41,530.77 L 434.50 533.41 L 428.40 534.13 C416.39,535.54 410.82,540.02 414.36,545.42 C416.27,548.33 424.01,550.97 430.93,551.06 L 435.50 551.12 L 430.27 553.67 C421.22,558.07 415.63,566.23 419.20,569.80 C420.89,571.49 431.90,571.30 437.00,569.50 L 441.26 568.00 L 438.59 571.25 C435.44,575.08 431.02,583.79 431.01,586.18 C431.00,588.62 433.76,591.00 436.61,591.00 C439.80,591.00 446.00,587.82 450.47,583.89 L 450.55 583.82 C452.46,582.14 453.45,581.28 453.73,581.47 C454.03,581.67 453.54,583.05 452.54,585.89 L 452.50 586.00 C451.67,588.34 451.00,592.67 451.00,595.63 C451.00,608.94 460.90,606.64 468.82,591.50 L 470.91 587.50 L 470.96 591.59 C471.01,596.79 473.35,604.63 475.59,607.09 C480.66,612.70 486.84,606.16 487.96,594.00 L 488.55 587.50 L 490.88 592.00 C495.99,601.86 503.54,606.67 507.12,602.36 C508.92,600.18 508.66,590.71 506.64,585.21 L 505.06 580.91 L 509.28 584.33 C517.00,590.58 523.87,592.73 526.80,589.80 C529.73,586.87 527.03,578.52 520.90,571.54 L 517.81 568.02 L 521.95 569.48 C532.55,573.22 540.20,572.06 540.83,566.61 C541.24,563.00 536.60,557.92 529.50,554.20 L 524.50 551.58 L 531.14 550.88 C547.77,549.14 551.62,539.70 537.44,535.43 C534.82,534.64 530.84,533.99 528.59,533.98 L 524.50 533.96 L 529.94 530.97 C536.46,527.37 538.74,525.41 540.63,521.74 C542.21,518.69 541.29,515.71 538.45,514.62 C535.63,513.54 528.48,513.95 523.41,515.49 C520.71,516.31 518.34,516.98 518.15,516.99 C517.95,517.00 519.19,515.41 520.89,513.47 C527.73,505.68 530.01,497.15 525.85,494.92 C522.93,493.36 517.66,495.01 511.00,499.59 C506.17,502.92 505.87,503.00 506.56,500.83 C508.83,493.76 509.55,489.60 508.84,486.46 C509.10,487.07 509.38,487.75 509.67,488.50 C510.25,489.99 510.53,489.28 510.78,485.75 C510.96,483.14 511.41,481.00 511.77,481.00 C512.13,481.00 514.29,482.83 516.57,485.07 C522.89,491.27 529.59,493.09 538.48,491.03 C539.93,490.69 541.29,490.16 542.10,489.64 C540.98,491.57 540.90,497.93 541.98,501.94 C543.97,509.31 549.54,514.11 557.68,515.46 L 561.85 516.15 L 558.68 520.66 C556.00,524.45 555.50,526.07 555.50,530.90 C555.50,538.73 558.85,543.80 566.47,547.53 C573.18,550.81 577.07,550.50 584.14,546.10 L 588.90 543.15 L 589.57 547.60 C590.37,552.96 593.36,557.65 597.92,560.73 C600.48,562.45 602.72,563.00 607.18,563.00 C617.95,563.00 623.95,558.40 625.99,548.57 L 627.12 543.12 L 631.74 546.05 C634.28,547.66 637.87,549.26 639.72,549.61 C649.86,551.51 662.50,538.79 660.59,528.61 C660.25,526.82 658.65,523.27 657.03,520.71 L 654.09 516.07 L 657.80 515.46 C659.83,515.12 662.74,514.38 664.25,513.80 C667.79,512.46 672.81,506.75 673.55,503.23 C673.86,501.73 674.28,499.68 674.49,498.68 C675.15,495.34 672.30,486.92 669.51,484.01 C666.52,480.89 663.51,479.48 657.81,478.54 L 654.12 477.93 L 657.31 472.80 C661.61,465.88 661.70,459.06 657.56,453.09 C650.78,443.30 638.70,441.33 630.05,448.61 L 627.15 451.05 L 626.00 445.51 C624.64,438.95 621.18,434.44 615.54,431.88 C607.99,428.45 599.14,430.48 593.75,436.89 C591.19,439.93 589.02,445.58 589.01,449.23 C589.00,450.65 588.19,450.38 584.42,447.73 C580.62,445.05 578.96,444.51 574.67,444.58 C568.67,444.68 565.47,445.16 562.82,447.41 L 565.23 444.54 L 564.74 404.52 C564.34,371.80 563.96,363.45 562.63,358.73 C557.60,340.78 549.69,334.53 532.00,334.51 C523.56,334.50 521.92,334.81 517.27,337.25 C514.39,338.76 511.80,340.00 511.52,340.00 C511.23,340.00 511.00,332.79 511.00,323.98 L 511.00 307.96 L 491.25 308.23 L 471.50 308.50 L 471.24 396.75 C471.11,443.77 471.32,482.49 471.71,484.86 C471.31,485.23 470.98,488.06 470.95,491.33 L 470.90 497.50 L 467.97 491.81 C466.03,488.06 463.31,484.81 460.69,482.88 C461.03,483.09 461.35,483.32 461.66,483.56 L 465.01 486.11 L 464.50 335.50 L 446.23 335.23 C432.12,335.02 427.86,335.24 427.55,336.23 C427.33,336.93 426.88,363.38 426.54,395.00 C426.21,426.62 425.68,453.95 425.36,455.71 C425.05,457.48 424.15,459.46 423.36,460.12 C421.16,461.94 415.92,461.37 413.59,459.04 C411.52,456.97 411.50,456.30 411.22,395.95 L 410.94 334.96 L 392.22 335.23 L 373.50 335.50 L 373.24 395.45 C373.04,443.37 372.99,453.94 371.22,456.30 C370.88,456.37 370.55,456.45 370.26,456.54 L 369.13 456.89 C368.25,455.47 367.95,438.42 367.76,382.36 L 367.50 307.50 L 327.50 307.50 L 327.00 378.42 C326.61,433.90 326.23,449.42 325.25,449.75 C324.28,450.07 324.00,445.80 324.00,430.56 L 324.00 410.96 L 286.50 411.50 L 286.37 430.75 C286.23,451.49 285.45,455.60 281.45,456.60 C277.93,457.49 275.90,456.75 273.68,453.78 C271.71,451.14 271.65,449.68 271.58,399.61 C271.50,348.85 271.53,348.12 273.60,345.33 C276.31,341.68 281.04,341.04 283.94,343.94 C285.84,345.84 286.00,347.19 286.00,360.88 C286.00,369.06 286.28,377.16 286.62,378.88 L 287.25 382.00 L 324.22 382.00 L 323.78 360.25 C323.38,340.68 323.11,337.92 321.09,332.72 C316.56,321.11 308.87,314.15 295.89,309.94 C289.72,307.94 286.59,307.56 277.00,307.64 C273.30,307.68 269.98,307.89 266.96,308.32 C266.72,308.31 266.30,308.34 265.71,308.41 C263.25,308.72 260.79,309.40 258.41,310.41 C252.00,312.81 247.26,316.88 243.04,323.17 C241.95,324.74 240.96,326.39 240.10,328.12 C237.06,334.20 235.42,338.08 234.53,346.93 C234.34,348.21 234.16,349.52 234.01,350.86 C232.74,361.93 232.71,440.86 233.97,451.82 C234.01,452.12 234.04,452.42 234.08,452.71 C234.27,455.96 234.51,457.84 234.82,458.85 C235.62,461.49 236.19,462.71 236.47,462.63 C236.59,462.89 236.72,463.12 236.84,463.32 C236.93,463.48 237.02,463.63 237.11,463.79 C236.84,463.48 236.51,463.21 236.12,462.90 C234.83,461.85 232.59,461.01 231.14,461.01 C224.87,461.04 207.09,473.79 198.93,484.09 L 195.74 488.12 L 199.21 491.31 C199.23,491.33 199.25,491.34 199.27,491.36 C192.70,487.16 182.04,493.16 184.65,502.27 C185.69,505.92 191.03,510.00 194.75,510.00 C196.20,510.00 198.58,508.62 200.60,506.60 ZM 202.02 211.00 L 216.00 211.00 L 216.00 291.96 L 218.25 292.52 C219.49,292.82 228.15,292.94 237.50,292.79 L 254.50 292.50 L 255.01 110.00 L 216.00 110.00 L 216.00 174.09 L 209.25 173.80 L 202.50 173.50 L 202.24 141.73 L 201.97 109.96 L 182.74 110.23 L 163.50 110.50 L 163.24 200.39 C163.06,266.82 163.29,290.64 164.14,291.66 C165.05,292.76 168.96,292.99 183.39,292.77 L 201.50 292.50 ZM 303.54 292.12 C305.76,291.11 308.77,288.87 310.23,287.14 C311.68,285.41 313.12,284.00 313.44,284.00 C313.75,284.00 314.00,285.79 314.00,287.98 C314.00,293.12 314.10,293.14 336.00,292.78 L 353.50 292.50 L 353.50 136.50 L 314.50 136.50 L 314.00 197.15 C313.52,255.00 313.41,257.89 311.60,259.90 C309.31,262.42 305.34,262.62 302.83,260.35 C301.10,258.78 301.00,255.53 300.98,198.60 C300.98,165.54 300.61,137.93 300.16,137.23 C299.54,136.25 294.80,136.02 279.93,136.23 L 260.50 136.50 L 260.54 200.00 C260.57,256.43 260.76,264.25 262.28,270.27 C266.58,287.38 274.65,293.80 292.00,293.91 C297.23,293.94 300.73,293.40 303.54,292.12 ZM 425.28 291.05 C433.21,288.01 438.89,283.44 442.78,276.96 C448.31,267.76 450.14,260.26 450.74,244.23 L 451.28 229.96 L 431.39 230.23 L 411.50 230.50 L 411.00 244.84 C410.53,258.41 410.37,259.29 408.14,261.09 C405.17,263.49 403.82,263.49 400.86,261.09 C398.55,259.22 398.49,258.80 398.19,239.59 L 397.88 220.00 L 423.24 220.00 C441.63,220.00 448.93,219.67 449.80,218.80 C451.39,217.21 451.46,173.28 449.89,165.80 C446.52,149.80 436.42,139.35 421.20,136.12 C418.29,135.51 411.08,135.00 405.18,135.00 C387.55,135.00 376.60,139.09 367.67,149.02 C365.16,151.81 362.07,156.66 360.81,159.80 C358.54,165.40 358.50,166.26 358.20,208.98 C357.94,246.55 358.13,253.47 359.56,259.98 C363.55,278.08 372.30,288.05 388.08,292.47 C396.38,294.80 417.62,293.99 425.28,291.05 ZM 582.38 291.91 C584.53,291.31 588.37,288.86 590.99,286.42 C593.58,283.99 595.97,282.00 596.30,282.00 C596.62,282.00 597.03,284.14 597.20,286.75 L 597.50 291.50 L 614.00 291.79 C623.08,291.94 631.51,291.82 632.75,291.52 L 635.00 290.96 L 635.00 226.76 C635.00,171.31 635.00,162.70 631.51,155.87 C630.83,154.53 630.02,153.27 629.05,151.74 C625.47,146.10 616.26,139.75 608.05,137.25 C601.13,135.15 580.98,134.94 573.00,136.90 C560.90,139.86 552.89,146.50 548.86,156.92 C547.17,161.27 546.68,164.81 546.60,173.00 L 546.50 183.50 L 582.50 183.50 L 583.00 176.16 C583.44,169.74 583.84,168.53 586.21,166.49 C589.44,163.72 592.40,164.16 594.77,167.78 C596.03,169.69 596.43,172.78 596.46,180.79 L 596.50 191.29 L 584.50 195.20 C567.61,200.70 559.01,205.05 554.18,210.53 C546.29,219.50 543.62,228.80 543.71,247.00 C543.85,274.08 550.82,288.49 565.50,292.06 C570.09,293.18 578.06,293.11 582.38,291.91 ZM 539.42 292.39 C540.84,291.85 541.00,282.81 541.00,200.39 L 541.00 109.00 L 500.00 109.00 L 500.00 199.95 C500.00,285.51 500.10,290.96 501.75,291.92 C503.62,293.01 536.72,293.43 539.42,292.39 ZM 494.00 108.96 L 455.50 109.50 L 455.24 199.50 C455.10,249.00 455.20,290.06 455.46,290.75 C455.82,291.69 460.66,292.00 474.97,292.00 L 494.00 292.00 ZM 139.08 404.80 L 142.47 408.84 L 147.03 404.57 C154.25,397.82 160.96,395.71 176.79,395.22 C189.88,394.81 190.06,394.77 189.29,392.65 C188.85,391.47 188.54,386.23 188.59,381.00 C188.69,370.30 190.74,363.57 196.45,355.07 L 199.75 350.18 L 195.46 348.54 C185.28,344.65 176.79,333.49 172.42,318.25 C172.18,317.40 170.04,318.11 165.69,320.51 C151.79,328.15 137.15,331.47 129.38,328.76 L 125.25 327.32 L 124.62 333.38 C123.95,339.81 119.86,349.69 115.52,355.38 C113.41,358.16 110.61,360.43 104.13,364.67 C103.92,364.81 104.90,366.28 106.31,367.95 C107.71,369.62 109.15,371.89 109.50,372.99 C109.85,374.10 110.48,375.00 110.90,375.00 C111.88,375.00 111.98,375.64 112.64,386.75 L 113.20 396.00 L 119.35 396.01 C127.16,396.02 134.42,399.26 139.08,404.80 ZM 515.29 460.51 C514.07,459.64 512.61,457.27 512.04,455.22 C511.41,452.94 511.01,435.80 511.01,411.00 C511.01,372.38 511.10,370.35 512.99,367.25 C514.69,364.46 515.53,364.00 518.95,364.00 L 519.15 364.00 C520.52,364.00 521.60,364.00 522.45,364.44 C525.52,366.04 525.54,373.49 525.83,408.00 C526.16,448.18 525.81,456.56 523.69,459.33 C521.86,461.72 517.81,462.29 515.29,460.51 ZM 290.87 495.26 C290.95,495.87 290.98,496.58 290.98,497.40 C290.99,497.57 290.98,497.74 290.96,497.91 C290.53,500.10 288.79,502.34 285.47,505.41 C282.07,508.54 279.41,512.02 278.59,514.40 C277.36,517.99 277.42,518.52 279.63,521.77 C276.50,518.18 263.63,511.27 247.16,504.40 L 237.83 500.51 L 238.15 482.65 C238.35,471.38 238.41,467.22 237.84,465.19 C238.53,466.63 239.14,468.19 239.38,469.20 C239.73,470.69 242.56,474.66 245.68,478.03 C254.98,488.07 266.47,492.49 281.62,491.86 C286.44,491.66 288.82,491.80 289.96,492.99 C290.38,493.79 290.69,494.54 290.87,495.26 ZM 129.93 175.39 C131.16,177.38 132.31,179.00 132.50,179.00 C132.69,179.00 133.84,177.38 135.07,175.39 C137.25,171.85 137.40,171.79 142.15,172.43 C144.82,172.78 146.99,172.72 146.98,172.28 C146.96,171.85 146.56,169.79 146.07,167.70 C145.21,164.01 145.30,163.84 149.24,161.35 L 153.29 158.79 L 149.16 156.15 C146.63,154.52 145.19,152.92 145.44,152.00 C145.67,151.18 146.14,149.08 146.48,147.34 L 147.12 144.18 L 143.31 145.07 C137.66,146.38 137.56,146.34 135.08,141.92 L 132.79 137.85 L 130.24 141.67 C128.84,143.78 127.61,145.61 127.51,145.75 C127.41,145.89 125.21,145.60 122.61,145.12 L 117.89 144.24 L 118.52 147.37 C118.87,149.09 119.33,151.18 119.56,152.00 C119.81,152.92 118.37,154.52 115.84,156.15 L 111.71 158.79 L 115.76 161.35 C119.70,163.84 119.79,164.01 118.93,167.70 C118.44,169.79 118.04,171.85 118.02,172.28 C118.01,172.72 120.18,172.78 122.85,172.43 C127.60,171.79 127.75,171.85 129.93,175.39 ZM 626.03 356.54 L 628.35 360.30 L 630.67 357.40 C631.95,355.81 632.99,354.10 633.00,353.62 C633.00,353.14 635.25,353.04 638.00,353.41 C640.75,353.77 642.99,353.72 642.98,353.28 C642.96,352.85 642.57,350.84 642.09,348.80 C641.27,345.25 641.39,345.01 645.22,342.47 L 649.21 339.83 L 645.49 337.30 C641.86,334.83 641.79,334.66 642.41,329.99 L 643.04 325.20 L 639.64 325.97 C637.77,326.39 635.78,327.02 635.21,327.37 C634.65,327.72 632.96,325.90 631.45,323.33 L 628.72 318.66 L 626.20 322.92 C623.70,327.16 623.66,327.18 619.20,326.51 L 614.71 325.83 L 615.30 330.18 C615.88,334.39 615.77,334.60 611.90,337.10 L 607.90 339.67 L 611.96 342.36 C616.20,345.16 616.23,345.30 614.33,352.30 C613.89,353.91 614.34,354.02 618.77,353.44 C623.65,352.79 623.73,352.82 626.03,356.54 ZM 620.12 515.46 C614.01,517.61 605.44,517.35 600.31,514.87 C598.00,513.75 594.07,510.64 591.56,507.96 C587.94,504.09 587.00,502.36 587.00,499.58 C587.00,497.13 587.59,495.76 588.93,495.04 C592.06,493.36 594.17,493.84 599.95,497.53 C607.26,502.18 611.51,502.16 620.41,497.44 C628.54,493.12 632.80,493.06 634.79,497.24 C635.93,499.62 635.84,500.58 634.14,504.42 C631.99,509.27 627.36,512.91 620.12,515.46 ZM 586.06 261.25 C583.09,258.84 582.05,253.44 582.02,240.19 C581.99,224.82 583.04,221.17 589.14,215.46 C591.85,212.93 594.62,211.04 595.28,211.26 C596.88,211.79 597.47,246.99 596.02,254.90 C594.59,262.67 590.80,265.09 586.06,261.25 ZM 334.96 505.32 C336.01,506.39 337.34,507.30 338.95,507.98 C341.14,509.10 342.54,509.17 344.60,508.21 L 347.50 506.97 L 345.14 508.98 C342.23,511.47 335.86,511.63 331.19,509.32 C327.56,507.53 324.00,501.66 324.00,497.44 C324.00,493.33 326.89,488.23 330.47,486.02 C336.66,482.20 345.51,484.27 349.59,490.49 L 351.28 493.08 L 353.08 489.06 C357.50,479.19 371.47,478.16 377.04,487.30 C378.11,489.06 378.98,491.62 378.97,493.00 C378.96,495.41 378.90,495.38 377.42,492.38 C376.09,489.70 373.82,487.97 371.28,487.30 C368.14,486.43 364.62,487.23 361.92,489.92 C359.02,492.82 358.32,496.50 359.52,499.69 C360.42,502.13 362.42,504.27 365.38,505.55 C366.35,505.97 367.24,506.25 368.09,506.37 L 368.09 506.37 C369.30,506.56 370.36,506.43 371.51,506.00 C371.58,505.97 371.66,505.94 371.73,505.91 C373.26,505.35 373.88,505.38 373.51,505.99 C372.49,507.63 366.72,508.67 362.70,507.94 C357.80,507.05 354.36,503.79 351.48,497.33 L 351.45 497.25 C351.27,496.74 351.02,496.16 350.69,495.48 C349.30,492.56 347.54,490.70 345.31,489.85 L 345.31 489.85 C343.81,489.24 342.09,489.15 340.04,489.49 C337.56,489.91 335.64,490.99 334.31,492.45 C332.85,493.99 332.00,496.00 332.00,498.20 C332.00,501.23 332.88,503.43 334.96,505.32 ZM 632.75 483.45 C634.92,480.98 635.51,477.16 634.42,474.17 C635.43,476.04 635.99,478.26 635.96,480.70 C635.87,490.60 625.73,496.18 617.23,491.00 C615.43,489.90 613.47,487.92 612.87,486.60 L 611.77 484.20 L 607.56 488.60 C603.75,492.57 602.89,493.00 598.66,493.00 C594.75,493.00 593.37,492.45 590.36,489.69 C587.32,486.90 586.66,485.55 586.24,481.20 C585.77,476.22 585.90,475.86 589.76,472.01 C593.18,468.58 594.38,468.00 598.04,468.00 C602.66,468.00 608.16,471.31 609.43,474.81 C609.04,473.99 608.33,473.18 607.20,472.05 C603.14,467.99 598.90,467.95 594.92,471.92 C590.40,476.45 591.21,482.38 596.78,485.48 C600.02,487.29 604.75,486.70 607.28,484.17 C608.26,483.18 609.33,480.74 609.66,478.74 C609.87,477.42 609.93,476.50 609.74,475.67 C610.56,477.63 611.57,477.24 612.82,474.50 C614.30,471.25 619.67,468.01 623.60,468.00 C626.68,468.00 629.39,468.96 631.49,470.64 C630.34,470.00 628.88,469.53 627.29,469.31 C623.57,468.81 622.75,469.10 620.05,471.80 C616.77,475.08 616.28,478.07 618.40,481.89 C621.45,487.41 628.58,488.18 632.75,483.45 ZM 397.33 196.43 C397.00,195.56 396.95,189.51 397.22,182.97 C397.84,167.96 400.02,163.78 406.40,165.39 C409.98,166.28 411.00,170.68 411.00,185.15 L 411.00 198.00 L 404.47 198.00 C399.45,198.00 397.80,197.64 397.33,196.43 ZM 493.96 532.07 C495.57,529.06 495.21,527.12 492.55,524.45 C489.72,521.63 486.61,521.36 483.89,523.64 C485.90,521.87 487.36,521.60 492.99,521.65 C497.68,521.69 500.73,522.25 502.45,523.38 C505.79,525.56 505.82,529.41 502.54,531.57 C500.24,533.07 495.96,533.82 491.97,533.72 C492.85,533.45 493.52,532.90 493.96,532.07 ZM 467.96 532.07 C469.57,529.06 469.21,527.12 466.55,524.45 C463.77,521.68 460.73,521.37 458.05,523.51 C459.89,521.98 461.57,521.63 466.25,521.60 C474.48,521.55 478.50,523.48 478.50,527.50 C478.50,529.77 477.84,530.79 475.70,531.81 C473.03,533.09 469.41,533.74 466.03,533.71 C466.88,533.43 467.53,532.88 467.96,532.07 ZM 495.95 486.02 C494.05,488.19 492.00,491.03 491.09,492.79 C489.51,495.83 489.04,496.18 488.47,494.75 C488.10,493.79 488.05,492.31 488.37,491.48 C489.02,489.78 486.68,483.11 484.44,479.42 C485.31,480.83 486.23,482.67 486.87,484.39 C487.95,487.31 489.49,489.64 490.44,489.83 C491.35,490.02 493.59,488.46 495.95,486.02 ZM 376.00 3.00 C376.00,2.45 375.55,2.00 375.00,2.00 C374.45,2.00 374.00,2.45 374.00,3.00 C374.00,3.55 374.45,4.00 375.00,4.00 C375.55,4.00 376.00,3.55 376.00,3.00 ZM 543.25 488.06 C544.85,485.20 549.92,480.88 553.29,479.63 C550.33,480.72 546.29,484.15 543.25,488.06 ZM 559.04 452.16 C558.48,453.07 557.89,454.10 557.25,455.25 C554.42,460.36 554.40,465.12 557.16,470.82 C553.92,464.13 554.37,458.81 559.04,452.16 ZM 502.47 481.15 C501.07,481.50 499.52,482.47 497.85,484.04 C499.85,482.04 501.08,481.27 502.47,481.15 ZM 486.33 532.86 C485.85,532.70 485.40,532.52 485.00,532.31 C484.16,531.88 483.46,531.42 482.91,530.94 C483.46,531.39 484.16,531.83 485.00,532.25 C485.46,532.48 485.90,532.68 486.33,532.86 ZM 460.38 532.88 C459.88,532.72 459.42,532.53 459.00,532.31 C458.18,531.89 457.49,531.44 456.94,530.97 C457.50,531.41 458.18,531.84 459.00,532.25 C459.48,532.49 459.94,532.70 460.38,532.88 ZM 476.08 478.78 C476.77,478.04 477.52,477.41 478.18,477.04 C479.29,476.44 479.98,476.11 480.58,476.09 C479.98,476.11 479.30,476.44 478.21,477.06 C477.54,477.43 476.78,478.06 476.08,478.78 ZM 281.70 526.22 C281.50,525.32 281.17,524.41 280.70,523.48 C281.23,524.44 281.55,525.31 281.70,526.22 ZM 457.20 524.29 C457.16,524.33 457.12,524.37 457.08,524.41 C456.43,525.10 455.95,525.76 455.65,526.40 C455.96,525.71 456.48,525.01 457.20,524.29 ZM 483.14 524.35 C483.12,524.37 483.10,524.39 483.08,524.41 C482.50,525.03 482.06,525.63 481.75,526.20 C482.06,525.60 482.52,524.98 483.14,524.35 Z" fill="rgb(240,233,221)"/>
<path d="M 543.25 488.06 C546.29,484.15 550.33,480.72 553.29,479.63 C553.36,479.60 553.42,479.58 553.49,479.56 C559.11,477.64 559.73,476.15 557.16,470.82 C554.40,465.12 554.42,460.36 557.25,455.25 C557.89,454.10 558.48,453.07 559.04,452.16 C559.75,451.14 560.56,450.10 561.47,449.02 L 562.82 447.41 C565.47,445.16 568.67,444.68 574.67,444.58 C578.96,444.51 580.62,445.05 584.42,447.73 C588.19,450.38 589.00,450.65 589.01,449.23 C589.02,445.58 591.19,439.93 593.75,436.89 C599.14,430.48 607.99,428.45 615.54,431.88 C621.18,434.44 624.64,438.95 626.00,445.51 L 627.15 451.05 L 630.05 448.61 C638.70,441.33 650.78,443.30 657.56,453.09 C661.70,459.06 661.61,465.88 657.31,472.80 L 654.12 477.93 L 657.81 478.54 C663.51,479.48 666.52,480.89 669.51,484.01 C672.30,486.92 675.15,495.34 674.49,498.68 C674.28,499.68 673.86,501.73 673.55,503.23 C672.81,506.75 667.79,512.46 664.25,513.80 C662.74,514.38 659.83,515.12 657.80,515.46 L 654.09 516.07 L 657.03 520.71 C658.65,523.27 660.25,526.82 660.59,528.61 C662.50,538.79 649.86,551.51 639.72,549.61 C637.87,549.26 634.28,547.66 631.74,546.05 L 627.12 543.12 L 625.99 548.57 C623.95,558.40 617.95,563.00 607.18,563.00 C602.72,563.00 600.48,562.45 597.92,560.73 C593.36,557.65 590.37,552.96 589.57,547.60 L 588.90 543.15 L 584.14 546.10 C577.07,550.50 573.18,550.81 566.47,547.53 C558.85,543.80 555.50,538.73 555.50,530.90 C555.50,526.07 556.00,524.45 558.68,520.66 L 561.85 516.15 L 557.68 515.46 C549.54,514.11 543.97,509.31 541.98,501.94 C540.90,497.93 540.98,491.57 542.10,489.64 C542.52,489.37 542.80,489.11 542.87,488.89 C542.96,488.63 543.08,488.35 543.25,488.06 ZM 635.96 480.70 C635.99,478.26 635.43,476.04 634.42,474.17 C634.14,473.39 633.75,472.67 633.24,472.05 C632.82,471.52 632.22,471.05 631.49,470.64 C629.39,468.96 626.68,468.00 623.60,468.00 C619.67,468.01 614.30,471.25 612.82,474.50 C611.57,477.24 610.56,477.63 609.74,475.67 C609.67,475.37 609.57,475.09 609.43,474.81 C608.16,471.31 602.66,468.00 598.04,468.00 C594.38,468.00 593.18,468.58 589.76,472.01 C585.90,475.86 585.77,476.22 586.24,481.20 C586.66,485.55 587.32,486.90 590.36,489.69 C593.37,492.45 594.75,493.00 598.66,493.00 C602.89,493.00 603.75,492.57 607.56,488.60 L 611.77 484.20 L 612.87 486.60 C613.47,487.92 615.43,489.90 617.23,491.00 C625.73,496.18 635.87,490.60 635.96,480.70 ZM 620.12 515.46 C627.36,512.91 631.99,509.27 634.14,504.42 C635.84,500.58 635.93,499.62 634.79,497.24 C632.80,493.06 628.54,493.12 620.41,497.44 C611.51,502.16 607.26,502.18 599.95,497.53 C594.17,493.84 592.06,493.36 588.93,495.04 C587.59,495.76 587.00,497.13 587.00,499.58 C587.00,502.36 587.94,504.09 591.56,507.96 C594.07,510.64 598.00,513.75 600.31,514.87 C605.44,517.35 614.01,517.61 620.12,515.46 Z" fill="rgb(246,19,224)"/>
<path d="M 155.09 380.77 C153.61,384.35 151.60,384.44 147.93,381.08 C145.26,378.65 144.77,376.80 146.16,374.50 C146.70,373.61 147.94,368.87 148.62,365.10 C148.75,364.33 149.43,363.35 150.11,362.93 C150.80,362.51 151.47,361.38 151.61,360.43 C151.75,359.48 152.40,358.37 153.06,357.96 C153.79,357.51 153.93,356.69 153.41,355.86 C151.87,353.40 152.16,352.18 155.10,348.89 C156.69,347.10 158.01,344.93 158.02,344.07 C158.03,342.81 158.20,342.77 158.89,343.86 C159.53,344.86 159.94,344.91 160.48,344.04 C160.88,343.39 161.91,343.13 162.77,343.47 C163.63,343.80 164.69,343.49 165.13,342.79 C165.75,341.79 166.54,341.89 168.86,343.26 C170.48,344.22 172.42,345.00 173.16,345.00 C173.91,345.00 175.11,345.95 175.83,347.10 C176.92,348.85 176.92,349.08 175.82,348.46 C174.76,347.85 174.74,347.97 175.75,349.05 C176.44,349.79 177.00,351.27 177.00,352.32 C177.00,353.86 177.28,354.01 178.41,353.07 C180.10,351.67 181.62,353.44 181.16,356.25 C181.00,357.21 181.41,358.00 182.06,358.00 C182.95,358.00 182.94,358.37 182.01,359.49 C181.33,360.31 181.05,361.70 181.39,362.58 C181.92,363.95 181.38,364.11 177.75,363.64 C175.41,363.35 173.37,363.08 173.22,363.05 C173.06,363.02 173.11,361.76 173.34,360.25 C173.56,358.74 174.14,357.57 174.62,357.65 C175.11,357.74 176.08,357.18 176.79,356.40 C177.53,355.59 177.64,355.00 177.04,355.00 C176.47,355.00 176.00,354.19 176.00,353.20 C176.00,351.87 175.12,351.35 172.58,351.18 C170.69,351.05 168.86,351.42 168.51,351.99 C168.15,352.56 167.38,352.73 166.79,352.37 C166.20,352.00 164.31,351.55 162.61,351.36 C160.31,351.11 159.89,351.27 161.00,351.99 C161.82,352.53 162.05,352.98 161.50,353.00 C160.95,353.02 161.18,353.47 162.00,354.00 C163.28,354.83 163.25,354.97 161.75,354.98 C160.79,354.99 159.99,355.56 159.98,356.25 C159.98,357.02 159.69,357.12 159.23,356.50 C158.83,355.95 157.50,355.36 156.27,355.19 L 154.04 354.88 L 156.14 358.82 C158.25,362.76 158.25,362.77 161.06,361.15 C162.97,360.05 163.56,359.18 162.92,358.40 C161.59,356.80 163.84,355.31 167.42,355.42 C171.14,355.52 171.92,357.70 168.67,358.93 C165.77,360.04 164.30,364.83 165.94,367.88 C167.07,370.00 165.86,371.65 164.00,370.50 C163.45,370.16 163.00,370.53 163.00,371.32 C163.00,372.11 161.49,373.91 159.65,375.32 C157.80,376.73 155.75,379.18 155.09,380.77 ZM 640.60 334.50 C641.65,335.29 642.50,335.95 642.50,335.96 C642.50,335.96 642.51,335.53 642.53,334.82 C643.00,335.58 643.91,336.22 645.49,337.30 L 649.21 339.83 L 645.22 342.47 C642.55,344.24 641.68,344.89 641.68,346.33 C641.64,345.07 642.13,344.50 643.36,343.68 C645.41,342.31 645.37,342.27 642.25,342.38 C639.56,342.48 639.00,342.90 639.00,344.81 C639.00,346.08 638.58,346.86 638.08,346.55 C637.57,346.23 636.99,346.77 636.80,347.74 C636.57,348.93 636.22,349.12 635.72,348.33 C635.31,347.69 635.66,346.48 636.49,345.65 C637.32,344.82 637.99,343.55 637.97,342.82 C637.95,342.04 637.17,342.42 636.06,343.75 C634.03,346.18 632.00,346.72 632.00,344.83 C632.00,344.19 631.70,343.96 631.34,344.33 C630.98,344.69 631.39,345.78 632.26,346.74 C633.64,348.28 633.67,348.91 632.47,351.75 C630.99,355.25 628.75,355.89 626.36,353.50 C625.53,352.67 623.88,352.05 622.68,352.12 C621.05,352.20 620.93,352.35 622.21,352.68 C622.50,352.76 622.87,352.98 623.27,353.31 C622.36,352.97 621.13,353.12 618.77,353.44 C618.49,353.47 618.23,353.51 617.98,353.54 C618.57,352.99 618.30,351.90 617.29,349.88 C616.26,347.82 615.82,346.99 615.46,347.55 C615.71,345.76 615.35,344.89 614.11,343.87 C616.55,345.38 616.82,345.02 616.29,343.00 C616.00,341.90 615.11,341.00 614.31,341.00 C611.71,341.00 613.18,336.52 615.83,336.38 C619.06,336.22 622.98,338.20 623.01,340.00 C623.03,341.24 623.18,341.26 623.90,340.12 C624.43,339.30 625.32,339.06 626.14,339.53 C626.89,339.97 627.20,339.99 626.84,339.59 C626.48,339.18 626.56,337.53 627.02,335.92 C627.52,334.19 627.48,333.00 626.93,333.00 C625.25,333.00 624.55,332.80 619.67,330.87 L 615.15 329.09 L 614.71 325.83 L 619.20 326.51 C623.66,327.18 623.70,327.16 626.20,322.92 L 626.47 322.48 C626.59,322.62 627.03,322.54 627.83,322.33 C628.90,322.05 630.08,322.31 630.45,322.91 C630.82,323.51 631.33,324.00 631.58,324.00 C631.70,324.00 631.65,323.76 631.47,323.36 C632.97,325.91 634.65,327.71 635.21,327.37 C635.57,327.14 636.53,326.81 637.66,326.48 C637.25,326.70 637.00,326.95 637.00,327.17 C637.00,327.69 637.45,327.84 638.00,327.50 C638.55,327.16 639.00,327.39 639.00,328.00 C639.00,328.62 639.56,328.79 640.25,328.39 C640.94,327.99 640.78,328.52 639.90,329.58 C637.62,332.33 636.48,334.44 637.70,333.69 C638.25,333.34 639.56,333.71 640.60,334.50 ZM 181.71 391.36 C180.18,391.44 178.57,392.08 178.14,392.78 C177.52,393.78 176.81,393.64 174.92,392.18 C172.44,390.25 167.00,388.73 167.00,389.97 C167.00,390.35 165.20,390.62 163.00,390.58 C160.80,390.54 159.00,390.84 159.00,391.25 C159.00,391.66 158.30,392.00 157.44,392.00 C156.58,392.00 156.14,391.59 156.45,391.09 C156.76,390.58 156.56,390.02 156.01,389.84 C154.27,389.25 158.19,382.12 160.44,381.79 C161.71,381.61 162.44,380.82 162.36,379.71 C162.26,378.48 162.56,378.22 163.36,378.88 C163.98,379.40 164.73,379.78 165.00,379.73 C165.27,379.67 166.31,380.07 167.29,380.62 C169.78,382.02 168.53,384.92 165.69,384.32 C163.68,383.90 163.65,383.96 165.32,385.02 C166.78,385.95 167.53,385.83 169.07,384.43 C170.24,383.38 171.00,383.16 171.00,383.87 C171.00,384.73 171.76,384.67 173.75,383.66 C175.26,382.89 177.35,382.40 178.39,382.56 C179.43,382.73 181.24,382.23 182.42,381.46 C184.42,380.15 184.59,380.24 184.87,382.78 C185.04,384.27 185.20,386.17 185.22,387.00 C185.25,387.83 185.72,389.06 186.26,389.75 C187.29,391.06 187.21,391.09 181.71,391.36 ZM 142.75 400.74 C139.42,403.37 134.99,400.69 135.47,396.33 C135.63,394.84 135.14,393.00 134.37,392.23 C133.18,391.04 133.27,390.47 134.99,388.28 C136.10,386.88 137.01,385.00 137.03,384.12 C137.13,378.96 144.36,376.87 145.29,381.73 C145.94,385.15 144.97,395.00 143.98,395.00 C143.58,395.00 142.58,394.00 141.77,392.78 C140.38,390.68 140.20,390.65 138.58,392.28 C137.63,393.23 137.00,394.03 137.18,394.08 C137.36,394.12 138.33,394.31 139.33,394.50 C141.03,394.82 143.89,397.68 143.97,399.13 C143.99,399.47 143.44,400.20 142.75,400.74 ZM 141.98 369.75 C141.99,371.09 141.39,372.00 140.50,372.00 C139.68,372.00 139.00,371.58 139.00,371.06 C139.00,370.54 138.10,370.29 137.00,370.50 C135.90,370.71 135.00,370.46 135.00,369.94 C135.00,369.42 134.44,369.11 133.75,369.25 C132.57,369.49 132.48,368.43 133.17,362.50 C133.30,361.40 134.21,359.77 135.20,358.88 C136.19,357.99 137.00,356.51 137.00,355.60 C137.00,354.24 137.37,354.13 139.00,355.00 C140.48,355.79 141.00,355.76 141.00,354.87 C141.00,354.21 141.29,353.95 141.63,354.30 C142.24,354.91 140.22,360.96 139.06,362.00 C138.75,362.27 137.90,363.27 137.16,364.21 C135.97,365.73 136.08,365.87 138.11,365.48 C140.68,364.98 141.96,366.40 141.98,369.75 ZM 127.83 384.39 C127.25,384.04 126.38,384.36 125.90,385.12 C125.40,385.92 125.02,386.03 125.02,385.37 C125.00,384.21 119.13,381.32 117.71,381.78 C117.27,381.91 116.10,381.59 115.09,381.05 C113.22,380.05 113.01,377.91 114.46,374.67 C115.11,373.20 115.47,373.10 116.22,374.17 C116.95,375.22 117.26,375.23 117.66,374.24 C118.59,371.96 121.67,370.90 122.94,372.43 C123.82,373.49 123.81,374.00 122.89,374.57 C122.08,375.07 121.93,374.85 122.42,373.90 C122.82,373.13 122.42,373.39 121.54,374.49 C120.11,376.26 120.10,376.60 121.45,377.59 C122.29,378.20 122.68,378.99 122.32,379.35 C121.72,379.95 123.46,380.40 125.25,380.12 C125.66,380.05 126.00,380.50 126.00,381.11 C126.00,381.72 126.58,381.99 127.30,381.72 C128.06,381.43 128.65,382.01 128.73,383.13 C128.82,384.24 128.44,384.77 127.83,384.39 ZM 173.73 322.34 C175.96,328.66 178.93,334.15 182.45,338.53 C180.92,336.78 179.56,334.94 178.50,333.13 C175.28,327.67 174.55,327.13 173.62,329.55 C173.28,330.43 173.45,330.84 174.00,330.50 C174.55,330.16 174.72,330.57 174.38,331.45 C174.05,332.30 173.50,333.04 173.14,333.08 C169.18,333.60 167.85,333.49 166.03,332.52 L 163.91 331.38 L 166.10 328.60 C167.88,326.33 168.91,325.89 171.65,326.21 C173.49,326.42 174.99,326.58 174.98,326.55 C174.98,326.52 174.42,324.66 173.73,322.34 ZM 125.37 362.84 C125.12,364.84 124.58,366.82 124.16,367.24 C123.13,368.27 121.04,366.06 121.62,364.54 C121.88,363.87 121.40,362.74 120.55,362.04 C119.70,361.33 119.00,361.19 119.00,361.71 C119.00,362.24 118.44,362.71 117.75,362.76 C117.06,362.81 115.52,363.16 114.32,363.53 C112.47,364.10 112.22,363.88 112.68,362.10 C113.22,360.07 113.58,359.81 116.25,359.60 C116.94,359.55 117.83,359.05 118.23,358.50 C118.69,357.88 118.98,357.98 118.98,358.75 C118.99,359.44 119.48,360.00 120.06,360.00 C120.64,360.00 120.89,359.63 120.61,359.18 C120.33,358.73 121.39,358.55 122.96,358.78 C125.61,359.17 125.79,359.47 125.37,362.84 ZM 117.19 162.27 C119.44,163.56 119.74,163.47 119.51,162.16 C119.36,161.25 118.71,160.62 118.07,160.76 C117.23,160.96 117.20,160.50 117.96,159.08 C118.53,158.00 119.90,157.19 121.00,157.28 C122.94,157.42 123.40,158.19 123.08,160.73 C122.99,161.40 123.57,163.21 124.37,164.74 C125.78,167.48 125.75,167.53 122.90,167.65 C120.90,167.73 120.00,167.29 120.00,166.22 C120.00,164.52 119.68,164.66 119.25,166.22 C119.60,164.28 119.26,163.65 117.19,162.27 ZM 139.29 158.75 C138.79,162.51 138.00,164.50 138.00,162.00 C138.00,161.27 137.72,160.95 137.38,161.29 C137.04,161.63 136.11,161.25 135.31,160.46 C133.81,158.95 134.36,155.00 136.07,155.00 C136.58,155.00 137.00,154.10 137.00,153.00 C137.00,151.90 137.34,150.97 137.75,150.92 C138.16,150.88 139.29,150.70 140.25,150.51 C142.58,150.07 142.46,150.87 139.85,153.13 C138.66,154.16 138.16,155.00 138.74,155.00 C139.36,155.00 139.58,156.50 139.29,158.75 ZM 137.83 347.74 C138.86,349.06 136.98,348.84 135.62,347.48 C134.73,346.59 134.00,346.34 134.00,346.93 C134.00,348.32 131.32,348.32 130.46,346.93 C130.10,346.35 130.74,345.62 131.90,345.32 C133.19,344.98 134.01,343.94 134.04,342.63 C134.07,340.59 134.13,340.60 135.41,342.92 L 136.75 345.34 L 137.98 343.03 C138.87,341.38 139.43,341.08 139.99,341.98 C140.59,342.95 140.87,342.93 141.28,341.86 C141.56,341.11 141.75,341.48 141.69,342.68 C141.63,343.88 141.28,344.67 140.91,344.44 C140.16,343.98 137.30,347.05 137.83,347.74 ZM 128.67 397.63 C125.76,396.58 122.60,396.01 119.35,396.01 L 113.20 396.00 L 112.64 386.75 C112.41,382.89 112.25,380.29 112.09,378.54 C112.24,380.05 112.40,382.19 112.63,385.24 C112.96,389.50 113.63,392.73 114.13,392.42 C114.62,392.11 114.79,391.47 114.49,390.98 C113.84,389.93 117.46,387.80 118.37,388.70 C119.70,390.03 118.91,392.10 116.75,392.97 C115.51,393.47 115.09,393.90 115.81,393.94 C116.53,393.97 116.84,394.45 116.50,395.00 C116.12,395.61 117.74,396.00 120.69,396.01 C123.24,396.01 126.00,396.60 128.67,397.63 ZM 130.07 376.19 C130.68,376.39 130.24,377.38 129.08,378.43 C127.04,380.28 127.00,380.27 127.00,378.15 C127.00,376.97 126.55,376.00 126.00,376.00 C125.45,376.00 125.01,374.76 125.02,373.25 C125.03,371.11 125.24,370.83 126.00,372.00 C126.53,372.83 126.98,373.11 126.98,372.63 C126.99,372.15 127.67,372.31 128.49,372.99 C129.31,373.67 129.76,374.59 129.48,375.03 C129.21,375.47 129.47,375.99 130.07,376.19 ZM 152.71 326.34 C156.95,324.85 161.35,322.89 165.69,320.51 C165.79,320.45 165.89,320.40 165.99,320.34 C162.64,322.30 159.25,324.58 159.82,324.77 C160.78,325.09 160.81,325.53 159.94,326.57 C158.98,327.73 158.59,327.73 157.40,326.55 C156.42,325.57 155.58,325.44 152.71,326.34 ZM 123.20 356.00 C123.11,356.27 122.16,356.55 121.10,356.61 C119.76,356.69 119.35,356.25 119.76,355.20 C120.18,354.10 119.94,353.90 118.92,354.48 C118.14,354.92 118.31,354.43 119.31,353.39 C121.08,351.54 121.14,351.54 122.25,353.50 C122.87,354.60 123.30,355.73 123.20,356.00 ZM 164.49 349.98 C165.45,351.54 166.00,351.20 166.00,349.04 C166.00,347.95 165.19,346.64 164.20,346.11 C162.70,345.31 162.40,345.54 162.40,347.51 C162.40,348.81 162.73,349.67 163.13,349.42 C163.53,349.17 164.14,349.42 164.49,349.98 ZM 126.90 390.62 C125.52,392.29 124.35,392.38 123.43,390.89 C122.58,389.51 124.83,388.00 126.68,388.71 C127.73,389.11 127.78,389.56 126.90,390.62 ZM 120.61 346.58 C122.69,342.01 124.23,337.11 124.62,333.38 L 125.13 328.49 C125.28,328.80 125.60,329.20 126.12,329.72 C126.94,330.54 126.80,331.44 125.62,333.14 C124.73,334.41 124.00,336.36 124.00,337.47 C124.00,338.88 122.51,342.69 120.61,346.58 ZM 127.98 151.14 C127.99,151.50 127.40,152.02 126.66,152.30 C125.68,152.67 125.44,152.12 125.79,150.32 C126.14,148.48 126.49,148.17 127.12,149.16 C127.59,149.90 127.98,150.79 127.98,151.14 ZM 148.00 340.00 C148.00,341.73 145.40,341.68 145.27,339.95 C145.18,338.74 145.62,338.30 146.57,338.66 C147.35,338.97 148.00,339.57 148.00,340.00 ZM 156.50 383.00 C156.16,383.55 155.68,384.00 155.44,384.00 C155.20,384.00 155.00,383.55 155.00,383.00 C155.00,382.45 155.48,382.00 156.06,382.00 C156.64,382.00 156.84,382.45 156.50,383.00 ZM 150.48 327.09 C144.15,329.32 137.74,330.16 132.79,329.52 C137.57,330.11 143.86,329.20 150.66,327.03 C150.60,327.05 150.54,327.07 150.48,327.09 ZM 114.61 156.93 C113.24,157.92 112.38,158.80 112.56,159.10 C112.66,159.26 113.02,159.56 113.53,159.94 L 111.71 158.79 ZM 630.17 321.15 C629.35,319.92 628.66,319.08 628.58,319.22 C628.51,319.35 628.07,319.97 627.52,320.69 L 628.72 318.66 ZM 125.19 327.91 L 125.25 327.32 L 129.36 328.76 C129.33,328.74 129.29,328.73 129.25,328.72 C126.97,327.92 125.62,327.65 125.19,327.91 ZM 642.74 327.50 L 642.80 325.38 L 641.28 325.60 L 643.04 325.20 ZM 614.53 351.55 C614.35,352.71 614.37,353.35 614.68,353.68 C614.11,353.51 614.11,353.08 614.33,352.30 C614.40,352.04 614.46,351.79 614.53,351.55 ZM 615.55 332.36 C615.84,334.29 615.18,335.04 611.96,337.08 L 607.90 339.66 L 608.11 339.80 L 607.90 339.67 L 607.90 339.66 L 611.90 337.10 C614.96,335.13 615.67,334.58 615.55,332.36 ZM 119.56 152.00 C119.33,151.18 118.87,149.09 118.52,147.37 C118.87,149.09 119.34,151.18 119.57,152.02 C119.79,152.83 118.84,154.04 117.02,155.33 C118.81,154.00 119.77,152.76 119.56,152.00 ZM 118.61 169.12 C118.60,169.18 118.59,169.23 118.58,169.29 L 118.03 172.33 C118.03,172.31 118.02,172.30 118.02,172.28 C118.03,171.95 118.28,170.65 118.61,169.12 ZM 172.18 317.97 C172.30,318.03 172.38,318.12 172.42,318.25 C172.52,318.60 172.63,318.96 172.73,319.30 C172.52,318.75 172.34,318.29 172.18,317.97 ZM 111.56 375.39 C111.39,375.05 111.18,375.00 110.90,375.00 C111.19,375.00 111.39,375.04 111.56,375.39 Z" fill="rgb(247,62,26)"/>
<path d="M 139.08 404.80 C136.36,401.56 132.76,399.11 128.67,397.63 L 128.67 397.63 C126.00,396.60 123.24,396.01 120.69,396.01 C117.74,396.00 116.12,395.61 116.50,395.00 C116.84,394.45 116.53,393.97 115.81,393.94 C115.09,393.90 115.51,393.47 116.75,392.97 C118.91,392.10 119.70,390.03 118.37,388.70 C117.46,387.80 113.84,389.93 114.49,390.98 C114.79,391.47 114.62,392.11 114.13,392.42 C113.63,392.73 112.96,389.50 112.63,385.24 C112.40,382.19 112.24,380.05 112.09,378.54 C111.93,376.71 111.78,375.82 111.56,375.39 C111.39,375.04 111.19,375.00 110.90,375.00 C110.48,375.00 109.85,374.10 109.50,372.99 C109.15,371.89 107.71,369.62 106.31,367.95 C104.90,366.28 103.92,364.81 104.13,364.67 C110.61,360.43 113.41,358.16 115.52,355.38 C117.34,353.00 119.12,349.87 120.61,346.58 C122.51,342.69 124.00,338.88 124.00,337.47 C124.00,336.36 124.73,334.41 125.62,333.14 C126.80,331.44 126.94,330.54 126.12,329.72 C125.60,329.20 125.28,328.80 125.13,328.49 L 125.19 327.91 C125.62,327.65 126.97,327.92 129.25,328.72 C129.29,328.73 129.33,328.74 129.36,328.76 L 129.38 328.76 C130.40,329.12 131.54,329.37 132.79,329.52 L 132.79 329.52 C137.74,330.16 144.15,329.31 150.48,327.09 C150.54,327.07 150.60,327.05 150.66,327.03 C151.34,326.81 152.02,326.58 152.71,326.34 C155.58,325.44 156.42,325.57 157.40,326.55 C158.59,327.73 158.98,327.73 159.94,326.57 C160.81,325.53 160.78,325.09 159.82,324.77 C159.25,324.58 162.64,322.30 165.99,320.34 C169.50,318.43 171.50,317.66 172.18,317.97 C172.34,318.29 172.52,318.75 172.73,319.30 C173.04,320.34 173.38,321.35 173.73,322.34 C174.42,324.66 174.98,326.52 174.98,326.55 C174.99,326.58 173.49,326.42 171.65,326.21 C168.91,325.89 167.88,326.33 166.10,328.60 L 163.91 331.38 L 166.03 332.52 C167.85,333.49 169.18,333.60 173.14,333.08 C173.50,333.04 174.05,332.30 174.38,331.45 C174.72,330.57 174.55,330.16 174.00,330.50 C173.45,330.84 173.28,330.43 173.62,329.55 C174.55,327.13 175.28,327.67 178.50,333.13 C179.56,334.94 180.92,336.78 182.45,338.53 C186.24,343.26 190.66,346.70 195.46,348.54 L 199.75 350.18 L 196.45 355.07 C190.74,363.57 188.69,370.30 188.59,381.00 C188.54,386.23 188.85,391.47 189.29,392.65 C190.06,394.77 189.88,394.81 176.79,395.22 C160.96,395.71 154.25,397.82 147.03,404.57 L 142.47 408.84 ZM 129.93 175.39 C129.85,175.26 129.78,175.14 129.70,175.02 C128.59,173.23 128.01,172.44 126.89,172.20 L 126.89 172.20 C126.03,172.02 124.84,172.16 122.85,172.43 C120.28,172.77 118.16,172.72 118.03,172.33 L 118.58 169.29 C118.59,169.23 118.60,169.18 118.61,169.12 C118.71,168.66 118.82,168.18 118.93,167.70 C119.06,167.13 119.17,166.65 119.25,166.22 C119.68,164.66 120.00,164.52 120.00,166.22 C120.00,167.29 120.90,167.73 122.90,167.65 C125.75,167.53 125.78,167.48 124.37,164.74 C123.57,163.21 122.99,161.40 123.08,160.73 C123.40,158.19 122.94,157.42 121.00,157.28 C119.90,157.19 118.53,158.00 117.96,159.08 C117.20,160.50 117.23,160.96 118.07,160.76 C118.71,160.62 119.36,161.25 119.51,162.16 C119.74,163.47 119.44,163.56 117.19,162.27 C116.78,162.00 116.31,161.69 115.76,161.35 L 113.53 159.94 C113.02,159.56 112.66,159.26 112.56,159.10 C112.38,158.80 113.24,157.92 114.61,156.93 L 115.84 156.15 C116.26,155.87 116.66,155.60 117.02,155.33 C118.84,154.04 119.79,152.83 119.57,152.02 C119.34,151.18 118.87,149.09 118.52,147.37 L 117.89 144.24 L 122.61 145.12 C125.21,145.60 127.41,145.89 127.51,145.75 C127.61,145.61 128.84,143.78 130.24,141.67 L 132.79 137.85 L 135.08 141.92 C137.56,146.34 137.66,146.38 143.31,145.07 L 147.12 144.18 L 146.48 147.34 C146.14,149.08 145.67,151.18 145.44,152.00 C145.19,152.92 146.63,154.52 149.16,156.15 L 153.29 158.79 L 149.24 161.35 C145.30,163.84 145.21,164.01 146.07,167.70 C146.56,169.79 146.96,171.85 146.98,172.28 C146.99,172.72 144.82,172.78 142.15,172.43 C137.40,171.79 137.25,171.85 135.07,175.39 C133.84,177.38 132.69,179.00 132.50,179.00 C132.31,179.00 131.16,177.38 129.93,175.39 ZM 155.09 380.77 C155.75,379.18 157.80,376.73 159.65,375.32 C161.49,373.91 163.00,372.11 163.00,371.32 C163.00,370.53 163.45,370.16 164.00,370.50 C165.86,371.65 167.07,370.00 165.94,367.88 C164.30,364.83 165.77,360.04 168.67,358.93 C171.92,357.70 171.14,355.52 167.42,355.42 C163.84,355.31 161.59,356.80 162.92,358.40 C163.56,359.18 162.97,360.05 161.06,361.15 C158.25,362.77 158.25,362.76 156.14,358.82 L 154.04 354.88 L 156.27 355.19 C157.50,355.36 158.83,355.95 159.23,356.50 C159.69,357.12 159.98,357.02 159.98,356.25 C159.99,355.56 160.79,354.99 161.75,354.98 C163.25,354.97 163.28,354.83 162.00,354.00 C161.18,353.47 160.95,353.02 161.50,353.00 C162.05,352.98 161.82,352.53 161.00,351.99 C159.89,351.27 160.31,351.11 162.61,351.36 C164.31,351.55 166.20,352.00 166.79,352.37 C167.38,352.73 168.15,352.56 168.51,351.99 C168.86,351.42 170.69,351.05 172.58,351.18 C175.12,351.35 176.00,351.87 176.00,353.20 C176.00,354.19 176.47,355.00 177.04,355.00 C177.64,355.00 177.53,355.59 176.79,356.40 C176.08,357.18 175.11,357.74 174.62,357.65 C174.14,357.57 173.56,358.74 173.34,360.25 C173.11,361.76 173.06,363.02 173.22,363.05 C173.37,363.08 175.41,363.35 177.75,363.64 C181.38,364.11 181.92,363.95 181.39,362.58 C181.05,361.70 181.33,360.31 182.01,359.49 C182.94,358.37 182.95,358.00 182.06,358.00 C181.41,358.00 181.00,357.21 181.16,356.25 C181.62,353.44 180.10,351.67 178.41,353.07 C177.28,354.01 177.00,353.86 177.00,352.32 C177.00,351.27 176.44,349.79 175.75,349.05 C174.74,347.97 174.76,347.85 175.82,348.46 C176.92,349.08 176.92,348.85 175.83,347.10 C175.11,345.95 173.91,345.00 173.16,345.00 C172.42,345.00 170.48,344.22 168.86,343.26 C166.54,341.89 165.75,341.79 165.13,342.79 C164.69,343.49 163.63,343.80 162.77,343.47 C161.91,343.13 160.88,343.39 160.48,344.04 C159.94,344.91 159.53,344.86 158.89,343.86 C158.20,342.77 158.03,342.81 158.02,344.07 C158.01,344.93 156.69,347.10 155.10,348.89 C152.16,352.18 151.87,353.40 153.41,355.86 C153.93,356.69 153.79,357.51 153.06,357.96 C152.40,358.37 151.75,359.48 151.61,360.43 C151.47,361.38 150.80,362.51 150.11,362.93 C149.43,363.35 148.75,364.33 148.62,365.10 C147.94,368.87 146.70,373.61 146.16,374.50 C144.77,376.80 145.26,378.65 147.93,381.08 C151.60,384.44 153.61,384.35 155.09,380.77 ZM 181.71 391.36 C187.21,391.09 187.29,391.06 186.26,389.75 C185.72,389.06 185.25,387.83 185.22,387.00 C185.20,386.17 185.04,384.27 184.87,382.78 C184.59,380.24 184.42,380.15 182.42,381.46 C181.24,382.23 179.43,382.73 178.39,382.56 C177.35,382.40 175.26,382.89 173.75,383.66 C171.76,384.67 171.00,384.73 171.00,383.87 C171.00,383.16 170.24,383.38 169.07,384.43 C167.53,385.83 166.78,385.95 165.32,385.02 C163.65,383.96 163.68,383.90 165.69,384.32 C168.53,384.92 169.78,382.02 167.29,380.62 C166.31,380.07 165.27,379.67 165.00,379.73 C164.73,379.78 163.98,379.40 163.36,378.88 C162.56,378.22 162.26,378.48 162.36,379.71 C162.44,380.82 161.71,381.61 160.44,381.79 C158.19,382.12 154.27,389.25 156.01,389.84 C156.56,390.02 156.76,390.58 156.45,391.09 C156.14,391.59 156.58,392.00 157.44,392.00 C158.30,392.00 159.00,391.66 159.00,391.25 C159.00,390.84 160.80,390.54 163.00,390.58 C165.20,390.62 167.00,390.35 167.00,389.97 C167.00,388.73 172.44,390.25 174.92,392.18 C176.81,393.64 177.52,393.78 178.14,392.78 C178.57,392.08 180.18,391.44 181.71,391.36 ZM 142.75 400.74 C143.44,400.20 143.99,399.47 143.97,399.13 C143.89,397.68 141.03,394.82 139.33,394.50 C138.33,394.31 137.36,394.12 137.18,394.08 C137.00,394.03 137.63,393.23 138.58,392.28 C140.20,390.65 140.38,390.68 141.77,392.78 C142.58,394.00 143.58,395.00 143.98,395.00 C144.97,395.00 145.94,385.15 145.29,381.73 C144.36,376.87 137.13,378.96 137.03,384.12 C137.01,385.00 136.10,386.88 134.99,388.28 C133.27,390.47 133.18,391.04 134.37,392.23 C135.14,393.00 135.63,394.84 135.47,396.33 C134.99,400.69 139.42,403.37 142.75,400.74 ZM 626.03 356.54 C624.84,354.62 624.24,353.68 623.27,353.31 C622.87,352.98 622.50,352.76 622.21,352.68 C620.93,352.35 621.05,352.20 622.68,352.12 C623.88,352.05 625.53,352.67 626.36,353.50 C628.75,355.89 630.99,355.25 632.47,351.75 C633.67,348.91 633.64,348.28 632.26,346.74 C631.39,345.78 630.98,344.69 631.34,344.33 C631.70,343.96 632.00,344.19 632.00,344.83 C632.00,346.72 634.03,346.18 636.06,343.75 C637.17,342.42 637.95,342.04 637.97,342.82 C637.99,343.55 637.32,344.82 636.49,345.65 C635.66,346.48 635.31,347.69 635.72,348.33 C636.22,349.12 636.57,348.93 636.80,347.74 C636.99,346.77 637.57,346.23 638.08,346.55 C638.58,346.86 639.00,346.08 639.00,344.81 C639.00,342.90 639.56,342.48 642.25,342.38 C645.37,342.27 645.41,342.31 643.36,343.68 C642.13,344.50 641.64,345.07 641.68,346.33 C641.68,346.95 641.84,347.73 642.09,348.80 C642.57,350.84 642.96,352.85 642.98,353.28 C642.99,353.72 640.75,353.77 638.00,353.41 C635.25,353.04 633.00,353.14 633.00,353.62 C632.99,354.10 631.95,355.81 630.67,357.40 L 628.35 360.30 ZM 615.55 332.36 C615.51,331.77 615.42,331.06 615.30,330.18 L 615.15 329.09 L 619.67 330.87 C624.55,332.80 625.25,333.00 626.93,333.00 C627.48,333.00 627.52,334.19 627.02,335.92 C626.56,337.53 626.48,339.18 626.84,339.59 C627.20,339.99 626.89,339.97 626.14,339.53 C625.32,339.06 624.43,339.30 623.90,340.12 C623.18,341.26 623.03,341.24 623.01,340.00 C622.98,338.20 619.06,336.22 615.83,336.38 C613.18,336.52 611.71,341.00 614.31,341.00 C615.11,341.00 616.00,341.90 616.29,343.00 C616.82,345.02 616.55,345.38 614.11,343.87 C613.57,343.43 612.86,342.95 611.96,342.36 L 608.11 339.80 L 607.90 339.66 L 611.96 337.08 C615.18,335.04 615.84,334.29 615.55,332.36 ZM 141.98 369.75 C141.96,366.40 140.68,364.98 138.11,365.48 C136.08,365.87 135.97,365.73 137.16,364.21 C137.90,363.27 138.75,362.27 139.06,362.00 C140.22,360.96 142.24,354.91 141.63,354.30 C141.29,353.95 141.00,354.21 141.00,354.87 C141.00,355.76 140.48,355.79 139.00,355.00 C137.37,354.13 137.00,354.24 137.00,355.60 C137.00,356.51 136.19,357.99 135.20,358.88 C134.21,359.77 133.30,361.40 133.17,362.50 C132.48,368.43 132.57,369.49 133.75,369.25 C134.44,369.11 135.00,369.42 135.00,369.94 C135.00,370.46 135.90,370.71 137.00,370.50 C138.10,370.29 139.00,370.54 139.00,371.06 C139.00,371.58 139.68,372.00 140.50,372.00 C141.39,372.00 141.99,371.09 141.98,369.75 ZM 127.83 384.39 C128.44,384.77 128.82,384.24 128.73,383.13 C128.65,382.01 128.06,381.43 127.30,381.72 C126.58,381.99 126.00,381.72 126.00,381.11 C126.00,380.50 125.66,380.05 125.25,380.12 C123.46,380.40 121.72,379.95 122.32,379.35 C122.68,378.99 122.29,378.20 121.45,377.59 C120.10,376.60 120.11,376.26 121.54,374.49 C122.42,373.39 122.82,373.13 122.42,373.90 C121.93,374.85 122.08,375.07 122.89,374.57 C123.81,374.00 123.82,373.49 122.94,372.43 C121.67,370.90 118.59,371.96 117.66,374.24 C117.26,375.23 116.95,375.22 116.22,374.17 C115.47,373.10 115.11,373.20 114.46,374.67 C113.01,377.91 113.22,380.05 115.09,381.05 C116.10,381.59 117.27,381.91 117.71,381.78 C119.13,381.32 125.00,384.21 125.02,385.37 C125.02,386.03 125.40,385.92 125.90,385.12 C126.38,384.36 127.25,384.04 127.83,384.39 ZM 125.37 362.84 C125.79,359.47 125.61,359.17 122.96,358.78 C121.39,358.55 120.33,358.73 120.61,359.18 C120.89,359.63 120.64,360.00 120.06,360.00 C119.48,360.00 118.99,359.44 118.98,358.75 C118.98,357.98 118.69,357.88 118.23,358.50 C117.83,359.05 116.94,359.55 116.25,359.60 C113.58,359.81 113.22,360.07 112.68,362.10 C112.22,363.88 112.47,364.10 114.32,363.53 C115.52,363.16 117.06,362.81 117.75,362.76 C118.44,362.71 119.00,362.24 119.00,361.71 C119.00,361.19 119.70,361.33 120.55,362.04 C121.40,362.74 121.88,363.87 121.62,364.54 C121.04,366.06 123.13,368.27 124.16,367.24 C124.58,366.82 125.12,364.84 125.37,362.84 ZM 139.29 158.75 C139.58,156.50 139.36,155.00 138.74,155.00 C138.16,155.00 138.66,154.16 139.85,153.13 C142.46,150.87 142.58,150.07 140.25,150.51 C139.29,150.70 138.16,150.88 137.75,150.92 C137.34,150.97 137.00,151.90 137.00,153.00 C137.00,154.10 136.58,155.00 136.07,155.00 C134.36,155.00 133.81,158.95 135.31,160.46 C136.11,161.25 137.04,161.63 137.38,161.29 C137.72,160.95 138.00,161.27 138.00,162.00 C138.00,164.50 138.79,162.51 139.29,158.75 ZM 137.83 347.74 C137.30,347.05 140.16,343.98 140.91,344.44 C141.28,344.67 141.63,343.88 141.69,342.68 C141.75,341.48 141.56,341.11 141.28,341.86 C140.87,342.93 140.59,342.95 139.99,341.98 C139.43,341.08 138.87,341.38 137.98,343.03 L 136.75 345.34 L 135.41 342.92 C134.13,340.60 134.07,340.59 134.04,342.63 C134.01,343.94 133.19,344.98 131.90,345.32 C130.74,345.62 130.10,346.35 130.46,346.93 C131.32,348.32 134.00,348.32 134.00,346.93 C134.00,346.34 134.73,346.59 135.62,347.48 C136.98,348.84 138.86,349.06 137.83,347.74 ZM 640.60 334.50 C639.56,333.71 638.25,333.34 637.70,333.69 C636.48,334.44 637.62,332.33 639.90,329.58 C640.78,328.52 640.94,327.99 640.25,328.39 C639.56,328.79 639.00,328.62 639.00,328.00 C639.00,327.39 638.55,327.16 638.00,327.50 C637.45,327.84 637.00,327.69 637.00,327.17 C637.00,326.95 637.25,326.70 637.66,326.48 C638.29,326.30 638.97,326.12 639.64,325.97 L 641.28 325.60 L 642.80 325.38 L 642.74 327.50 L 642.41 329.99 C642.06,332.62 641.93,333.82 642.53,334.82 C642.51,335.53 642.50,335.96 642.50,335.96 C642.50,335.95 641.65,335.29 640.60,334.50 ZM 130.07 376.19 C129.47,375.99 129.21,375.47 129.48,375.03 C129.76,374.59 129.31,373.67 128.49,372.99 C127.67,372.31 126.99,372.15 126.98,372.63 C126.98,373.11 126.53,372.83 126.00,372.00 C125.24,370.83 125.03,371.11 125.02,373.25 C125.01,374.76 125.45,376.00 126.00,376.00 C126.55,376.00 127.00,376.97 127.00,378.15 C127.00,380.27 127.04,380.28 129.08,378.43 C130.24,377.38 130.68,376.39 130.07,376.19 ZM 614.53 351.55 C615.00,349.81 615.32,348.54 615.46,347.55 C615.82,346.99 616.26,347.82 617.29,349.88 C618.30,351.90 618.57,352.99 617.98,353.54 C616.22,353.76 615.21,353.83 614.68,353.68 C614.37,353.35 614.35,352.71 614.53,351.55 ZM 123.20 356.00 C123.30,355.73 122.87,354.60 122.25,353.50 C121.14,351.54 121.08,351.54 119.31,353.39 C118.31,354.43 118.14,354.92 118.92,354.48 C119.94,353.90 120.18,354.10 119.76,355.20 C119.35,356.25 119.76,356.69 121.10,356.61 C122.16,356.55 123.11,356.27 123.20,356.00 ZM 164.49 349.98 C164.14,349.42 163.53,349.17 163.13,349.42 C162.73,349.67 162.40,348.81 162.40,347.51 C162.40,345.54 162.70,345.31 164.20,346.11 C165.19,346.64 166.00,347.95 166.00,349.04 C166.00,351.20 165.45,351.54 164.49,349.98 ZM 126.90 390.62 C127.78,389.56 127.73,389.11 126.68,388.71 C124.83,388.00 122.58,389.51 123.43,390.89 C124.35,392.38 125.52,392.29 126.90,390.62 ZM 630.17 321.15 L 631.47 323.36 C631.65,323.76 631.70,324.00 631.58,324.00 C631.33,324.00 630.82,323.51 630.45,322.91 C630.08,322.31 628.90,322.05 627.83,322.33 C627.03,322.54 626.59,322.62 626.47,322.48 L 627.52 320.69 C628.07,319.97 628.51,319.35 628.58,319.22 C628.66,319.08 629.35,319.92 630.17,321.15 ZM 127.98 151.14 C127.98,150.79 127.59,149.90 127.12,149.16 C126.49,148.17 126.14,148.48 125.79,150.32 C125.44,152.12 125.68,152.67 126.66,152.30 C127.40,152.02 127.99,151.50 127.98,151.14 ZM 148.00 340.00 C148.00,339.57 147.35,338.97 146.57,338.66 C145.62,338.30 145.18,338.74 145.27,339.95 C145.40,341.68 148.00,341.73 148.00,340.00 ZM 156.50 383.00 C156.84,382.45 156.64,382.00 156.06,382.00 C155.48,382.00 155.00,382.45 155.00,383.00 C155.00,383.55 155.20,384.00 155.44,384.00 C155.68,384.00 156.16,383.55 156.50,383.00 Z" fill="rgb(247,64,28)"/>
<path d="M 475.59 607.09 C473.35,604.63 471.01,596.79 470.96,591.59 L 470.91 587.50 L 468.82 591.50 C460.90,606.64 451.00,608.94 451.00,595.63 C451.00,592.67 451.67,588.34 452.50,586.00 C454.50,580.33 454.51,580.34 450.47,583.89 C446.00,587.82 439.80,591.00 436.61,591.00 C433.76,591.00 431.00,588.62 431.01,586.18 C431.02,583.79 435.44,575.08 438.59,571.25 L 441.26 568.00 L 437.00 569.50 C431.90,571.30 420.89,571.49 419.20,569.80 C415.63,566.23 421.22,558.07 430.27,553.67 L 435.50 551.12 L 430.93 551.06 C424.01,550.97 416.27,548.33 414.36,545.42 C410.82,540.02 416.39,535.54 428.40,534.13 L 434.50 533.41 L 429.41 530.77 C423.73,527.82 418.00,521.93 418.00,519.04 C418.00,518.00 418.71,516.44 419.57,515.57 C421.60,513.55 431.25,513.47 436.82,515.44 L 440.89 516.87 L 437.30 512.19 C433.40,507.10 431.00,502.15 431.00,499.19 C431.00,497.03 433.98,494.00 436.08,494.01 C438.64,494.03 447.55,498.67 451.23,501.90 L 454.83 505.06 L 452.91 500.02 C449.38,490.73 451.07,481.00 456.21,481.00 C459.67,481.00 464.84,485.76 467.97,491.81 L 470.90 497.50 L 470.95 491.33 C470.98,487.94 471.34,485.02 471.75,484.83 C472.16,484.65 473.19,483.16 474.02,481.52 C474.86,479.89 476.74,477.88 478.21,477.06 C480.62,475.70 481.05,475.73 482.91,477.42 C485.41,479.68 489.18,489.38 488.37,491.48 C488.05,492.31 488.10,493.79 488.47,494.75 C489.04,496.18 489.51,495.83 491.09,492.79 C492.14,490.74 494.74,487.26 496.85,485.04 C501.38,480.28 505.10,479.70 507.51,483.37 C509.88,486.99 509.65,491.21 506.56,500.83 C505.87,503.00 506.17,502.92 511.00,499.59 C517.66,495.01 522.93,493.36 525.85,494.92 C530.01,497.15 527.73,505.68 520.89,513.47 C519.19,515.41 517.95,517.00 518.15,516.99 C518.34,516.98 520.71,516.31 523.41,515.49 C528.48,513.95 535.63,513.54 538.45,514.62 C541.29,515.71 542.21,518.69 540.63,521.74 C538.74,525.41 536.46,527.37 529.94,530.97 L 524.50 533.96 L 528.59 533.98 C530.84,533.99 534.82,534.64 537.44,535.43 C551.62,539.70 547.77,549.14 531.14,550.88 L 524.50 551.58 L 529.50 554.20 C536.60,557.92 541.24,563.00 540.83,566.61 C540.20,572.06 532.55,573.22 521.95,569.48 L 517.81 568.02 L 520.90 571.54 C527.03,578.52 529.73,586.87 526.80,589.80 C523.87,592.73 517.00,590.58 509.28,584.33 L 505.06 580.91 L 506.64 585.21 C508.66,590.71 508.92,600.18 507.12,602.36 C503.54,606.67 495.99,601.86 490.88,592.00 L 488.55 587.50 L 487.96 594.00 C486.84,606.16 480.66,612.70 475.59,607.09 ZM 486.30 556.65 C488.08,555.91 490.97,553.66 492.74,551.65 C494.50,549.64 496.57,548.00 497.35,548.00 C499.34,548.00 501.39,545.36 500.05,544.53 C499.47,544.17 498.51,544.19 497.90,544.56 C497.30,544.93 495.53,544.29 493.96,543.13 C490.77,540.77 489.28,541.78 491.06,545.10 C493.50,549.67 484.55,555.94 477.73,554.44 C476.15,554.09 473.28,552.43 471.36,550.75 C468.19,547.96 467.94,547.34 468.53,543.84 C469.28,539.38 468.01,538.82 465.57,542.53 C464.38,544.35 463.18,544.98 461.31,544.78 C457.23,544.34 457.35,546.79 461.45,547.56 C463.72,547.98 465.75,549.24 467.00,551.00 C469.35,554.30 476.37,558.00 480.28,558.00 C481.81,558.00 484.52,557.39 486.30,556.65 ZM 475.70 531.81 C477.84,530.79 478.50,529.77 478.50,527.50 C478.50,523.48 474.48,521.55 466.25,521.60 C461.08,521.64 459.57,522.06 457.46,524.04 C454.10,527.19 454.64,530.05 459.00,532.31 C462.95,534.36 470.89,534.12 475.70,531.81 ZM 502.54 531.57 C505.82,529.41 505.79,525.56 502.45,523.38 C500.73,522.25 497.68,521.69 492.99,521.65 C487.00,521.59 485.73,521.91 483.49,524.01 C480.10,527.19 480.62,530.05 485.00,532.31 C489.21,534.49 498.68,534.09 502.54,531.57 ZM 232.41 591.06 C226.57,587.71 212.93,575.21 205.87,566.74 L 201.07 560.99 L 196.87 566.74 C190.62,575.32 179.96,587.05 176.52,589.15 C167.82,594.46 160.81,588.44 156.45,571.93 C154.33,563.90 154.06,549.47 155.88,541.26 L 157.27 535.02 L 152.19 527.26 C143.59,514.11 138.60,502.60 138.16,494.91 C137.96,491.23 138.28,487.35 138.88,486.22 C139.48,485.09 142.07,483.38 144.62,482.40 C148.71,480.84 150.31,480.76 158.09,481.74 C162.94,482.36 171.25,484.09 176.54,485.59 L 186.17 488.32 L 183.06 490.75 C176.58,495.82 175.13,503.78 179.51,510.23 C184.23,517.17 194.41,517.79 200.68,511.52 C202.82,509.38 204.00,508.73 204.00,509.70 C204.00,512.73 207.43,518.29 210.42,520.11 C215.10,522.97 222.09,522.64 225.96,519.38 C231.94,514.35 233.35,508.89 230.31,502.52 C226.15,493.81 212.07,492.35 206.66,500.07 C205.25,502.09 205.17,502.04 203.95,498.33 C203.25,496.22 201.12,493.06 199.21,491.31 L 195.74 488.12 L 198.93 484.09 C207.09,473.79 224.87,461.04 231.14,461.01 C232.59,461.01 234.83,461.85 236.12,462.90 C238.45,464.78 238.46,464.95 238.15,482.65 L 237.83 500.51 L 247.16 504.40 C264.63,511.69 278.04,519.01 280.09,522.39 C282.43,526.22 282.52,529.81 280.36,532.90 C278.31,535.83 267.17,540.96 253.94,545.07 C244.01,548.15 243.85,548.25 244.52,550.85 C248.88,567.59 250.86,584.51 249.00,589.01 C246.57,594.87 240.38,595.63 232.41,591.06 ZM 205.77 538.45 C207.81,537.60 210.53,535.91 211.82,534.70 C213.35,533.26 215.43,532.50 217.83,532.50 C222.53,532.50 223.07,530.95 218.85,529.57 C216.67,528.86 215.39,527.69 215.01,526.07 C214.04,521.91 212.15,522.51 211.81,527.09 C211.42,532.40 208.12,535.11 201.32,535.70 C195.24,536.23 190.27,533.72 187.53,528.73 C185.66,525.33 185.65,525.04 187.28,523.24 C188.23,522.20 189.00,520.82 189.00,520.17 C189.00,518.69 186.34,518.64 185.43,520.11 C185.01,520.80 183.26,520.98 180.78,520.58 C176.39,519.88 175.79,521.67 179.80,523.48 C180.99,524.02 182.61,526.08 183.41,528.06 C185.12,532.34 190.95,537.73 194.77,538.57 C196.27,538.90 197.95,539.33 198.50,539.51 C200.55,540.19 202.16,539.96 205.77,538.45 Z" fill="rgb(254,171,1)"/>
</g>
</svg>